<?xml version="1.0" encoding="UTF-8"?>
<svg id="Livello_1" xmlns="http://www.w3.org/2000/svg" version="1.1" viewBox="0 0 841.89 595.28">
  <!-- Generator: Adobe Illustrator 30.2.1, SVG Export Plug-In . SVG Version: 2.1.1 Build 1)  -->
  <defs>
    <style>
      .st0 {
        fill: #ffffff;
      }
    </style>
  </defs>
  <path class="st0" d="M388.02,171.18c3.35-.32,7.27.28,9.91,2.48,1.23,1.02,3.42,4.57,4.6,4.64,1.11.06,3.99-2.75,5.21-3.51,6.09-3.81,14.89-4.49,21.78-2.78,29.44,7.31,30.89,62.54,14.2,81.74-6.53,7.51-18.5,11.47-28.01,7.79-1.67-.65-6.02-3.55-7.3-3.47-2.03.12-1.48,5.19-1.42,6.81.46,10.96,4.94,32.31-8.49,37.28-24.83,9.2-25.04-27.9-25.78-42.92-.9-18.37-1.04-37.13-.26-55.52.48-11.21.83-31.15,15.55-32.54ZM416.41,199.57c-2.9.39-4.12,2.89-4.78,5.45-1.44,5.54-1.87,21.45.96,26.37,2.04,3.54,6.51,3.72,8.95.43,4.33-5.84,4.13-24.7-.59-30.27-1.27-1.5-2.52-2.25-4.54-1.98Z"/>
  <path class="st0" d="M307.24,355.68c.48-.45.81-2.88.84-3.63.13-3.64-.76-15.91-.68-19.59.25-10.56,5.65-17.26,16.5-17.78,17.61-.85,17.88,18.84,18.56,31.6.76,14.2.78,36.33.15,50.52-.45,10.17-.76,35.12-8.05,42.35-4.19,4.15-14.44,5.38-19.2,1.78-1.53-1.16-3.72-5.13-5.37-5.13-1.08,0-5.25,3.67-6.77,4.5-8.07,4.37-18.36,3.33-25.77-1.87-19.99-14.02-19.49-55.29-7.54-74.17,6.31-9.96,17.51-15.69,29.21-11.46,1.9.69,5.64,3.28,7.27,3.18.26-.02.66-.13.85-.31ZM299.82,378.06c-4.26.69-5.96,9.59-6.33,13.12-.51,4.92-.37,18.52,4.88,20.95,3.21,1.48,6.03-.02,7.35-3.08,2.25-5.2,2.46-24.19-.77-28.83-1.1-1.58-3.27-2.46-5.14-2.16Z"/>
  <path class="st0" d="M182.67,281.65c-1.64,2.13,1.65,10.47,2.24,13.18,1.86,8.64.22,16.43-8.51,20.22-20.58,8.93-27.46-19.78-30.66-34.07-2.74-12.22-4.95-26.43-6.31-38.89-1.52-13.95-2.94-38.44,13.84-43.89,24.06-7.81,18.67,28.1,21.77,41.47,1.19,5.15,5.81,9.2,7.7,2.02,1.61-6.13,1.07-12.22,5.3-17.64,5.36-6.88,19.98-10.24,24.68-.98,6.05,11.89-7.55,19.3-7.08,29.98.75,17.18,18.12,21.56,21.73,36.73,3,12.63-4.89,21.7-17.85,20.43-8.79-.86-14.11-8.29-17.71-15.62-1.53-3.12-3.98-10.67-6.1-12.8-.77-.78-2.34-1.04-3.03-.15Z"/>
  <path class="st0" d="M671.03,433c-8.2-7.56-3.05-27.16-2.65-37.31.18-4.47.47-16.36-3.61-19.04-5.73-3.75-7.02,5.9-7.27,9.5-.72,10.32,1.45,20.45,2.53,30.62.94,8.83,1.31,16.29-8.83,19.16-7.48,2.12-18.68,1.51-23.33-5.6-4.22-6.45-4.5-21.3-5.08-29.2-.69-9.43-1.18-18.88-1.16-28.35.01-8.9-1.2-22.52,9.43-25.75,5.05-1.53,10.94-1.29,14.7,2.74,1.97,2.11,2.29,5.08,5.35,2.45,6.42-5.51,8.8-8.34,18.12-8.83,21-1.11,28.73,13.6,31.35,32.03,1.98,13.9,3.43,42.41-5.6,53.87-5.18,6.58-17.44,9.71-23.96,3.7Z"/>
  <path class="st0" d="M253.65,249.47c-.94,1.08-.57,3.1.46,3.99,2.91,2.51,12.05.68,15.41-.53,5.63-2.02,13.71-9.17,19.5-3.42,5,4.97,3.55,14.62.29,20.2-9.72,16.63-40.33,18.86-53.96,6.26-17.13-15.82-17.2-54.91-2.21-72.43,13.35-15.6,40.2-17.04,50.78,2.35,10.97,20.1,2.22,42.28-22.05,42.9-2.04.05-6.78-.97-8.21.68ZM261.82,228.14c2.36-3.08,1.77-10.44-2.35-11.97-6.67-2.46-6.9,6.9-5.45,11.01,1.11,3.17,5.98,3.34,7.8.95Z"/>
  <path class="st0" d="M331.09,170.72c21.66-1.55,33.83,14.81,32.28,35.35-1.1,14.54-14.89,22.71-28.53,21.89-2.29-.14-8.32-2.06-9.39.56-2.26,5.57,8.74,5.31,11.7,5.05,5.05-.44,7.84-2.44,12.27-3.84,16.72-5.3,16.88,13.73,8.97,23.04-13.71,16.12-47.07,12.81-57.31-6.14-13.48-24.93-3.64-73.49,30.01-75.91ZM331.84,194.75c-4.01.83-5.3,12.1-.7,13.63,6.18,2.05,8.39-6.25,6.33-10.68-.98-2.11-3.31-3.43-5.63-2.95Z"/>
  <path class="st0" d="M587.87,332.98c21.52,2.13,31.02,20.14,26,40.19-3.56,14.23-18.62,20-32,16.84-2.51-.59-8.67-4.03-9.49.08-.9,4.53,8.02,5.63,11.1,5.88,7.99.63,24.12-7.5,25.19,6.03,1.15,14.51-14.26,23.12-26.99,22.91-17.12-.28-33.22-8.46-37.06-26.11-5.8-26.71,10.65-69.05,43.25-65.82ZM580.4,369.17c.59.75,1.85,1.27,2.77,1.47,7.4,1.59,9.76-13.77,1.69-13.84-4.25-.04-6.57,9.7-4.46,12.37Z"/>
  <path class="st0" d="M485.25,309.02c21.08-2.52,17.01,22.7,17.44,36.14.14,4.44.4,10.81,1.62,15.01,1.82,6.25,5.13,4.06,6.71-.82,4.09-12.67,1.66-32.88,8.36-44.08,5.59-9.34,23-9.06,25.92,2.89,2.55,10.45-3.01,30.83-6.26,41.32-4.54,14.62-16.71,48.44-37.42,40.99-15.22-5.48-23.3-33.71-26.42-48.03-2.69-12.39-9.08-41.13,10.05-43.42Z"/>
  <path class="st0" d="M401.73,324.37c22.35-1.94,23.22,33.72,3.46,33.59-4.41-.03-10.38-5.88-13.89-1.81-1.8,2.08-2.18,6.75-2.31,9.46-.63,13.16,5.65,48.4-14.7,50.02-17.61,1.4-19.3-17.02-19.84-30.07-.55-13.23-1.57-41.27,5.01-52.55,5.14-8.82,16.1-9.7,23.01-2.33.82.88,1.39,2.6,2.82,2.58,1.13-.02,4.61-3.58,5.78-4.47,3.13-2.38,6.68-4.08,10.67-4.43Z"/>
  <path class="st0" d="M442.39,305.92c20.29-2.02,18.24,27.71,18.46,40.74.2,11.75,1.16,36.39-6.39,45.78-6,7.45-17.85,6.64-23.79-.5-8.11-9.74-6.29-34.74-5.87-47.07.43-12.75.61-37.25,17.59-38.95Z"/>
  <path class="st0" d="M352.02,302.92c-7.16,1.17-17.67,2.96-24.87,4.56-7.9,1.94-16.14,3.99-23.74,6.75,0,0-5.74,2.01-5.74,2.01l-5.56,2.34c-3.16,1.18-7.76,3.54-10.86,4.99-34.94,17.93-59.48,50.45-71.05,87.7,0,0-.21.64-.21.64l-.11.31c-.04.12-.06.1-.1.16l-1.99,3.53c-2.89,5.11-9.37,6.92-14.48,4.03-3.21-1.81-5.12-5.1-5.38-8.52l-.16-2.23-.1-1.97c-.85-39.34,20.36-77.57,51.87-100.57,31.64-23,72.28-32.88,110.65-32.35,17.73.76,19.22,25.66,1.81,28.61h0Z"/>
  <path class="st0" d="M690.18,164.17c-17.73-12.88-58.99,10.59-73.94,22.09-8.14,6.39-1.91,19.35,8.25,16.86,8.17-2.09,16.7-5.02,25.24-7.79-.88.89-1.76,1.77-2.64,2.64-18.05,17.72-38.07,33.22-60.3,45.22-31.12,16.09-65.98,21.36-101.01,21.58-6.9-.03-12.89,5.16-13.7,12.19-.86,7.55,4.55,14.38,12.1,15.24,39.65,4.61,80.87.01,118.11-16.03,28.62-11.83,54.01-32.41,69.8-59.23,1.38-2.38,2.69-4.8,3.92-7.27.79,8.51,1.41,17.13,2.75,25.65.36,2.97,2.37,5.6,5.38,6.6,4.17,1.38,8.66-.87,10.05-5.04,1.8-5.37,3.04-10.64,4.1-16.14,2.69-15.39,6.72-46.05-8.11-56.57Z"/>
  <path class="st0" d="M458.69,269.99c2.24,2.12,3.67,5.49,4.15,8.51,3.73,23.19-34.67,24.06-32.71.74,1.13-13.46,20.11-17.27,28.56-9.25Z"/>
</svg>