<?xml version="1.0" encoding="UTF-8"?>
<svg id="Livello_2" data-name="Livello 2" xmlns="http://www.w3.org/2000/svg" viewBox="0 0 1240.42 375.12">
  <g id="Livello_1-2" data-name="Livello 1">
    <g>
      <path d="M252.01,40.38c-5.73,19.27-15.03,36.31-27.52,52.04-2.86,3.6-3.87,7.57-3.44,12.15l3.46,36.85c.65,6.97-4.37,10.79-11.04,11.79-4.88.73-16.45,1.91-18.12-4.61l-3.76-55.5c-.76-11.21-22.35-25.22-21.9-66.38l.2-18.19c.06-5.85,4.36-8.74,9.91-8.52,3.31.13,6.18.01,8.52,2.05,1.79,1.56,3.14,4.28,3.27,7.53l.87,22.8c.86,22.39,15.26,40.4,22.03,30.39,7.71-11.4,14.95-22.91,20.01-35.78l4.18-17.31c1.08-4.46,11.69-5.71,14.68-2.08,4.09,4.96,1.72,11.73.83,18.62l-2.17,14.16Z"/>
      <path d="M712.99,144.19c-1.35,7.23-5.71,10.41-12.71,10.61-3.49.1-7.27-.64-9.79-2.72-8.31-6.87.69-39.34,4.05-57.95,5.95-32.96-5.62-59.02,12.61-65.1,14.33-4.78,26.65,2.29,34.65,14.25,10.08,15.06,20.94,28.75,29.42,44.83.83,1.57,2.96,2.27,3.73,2.99,1.05.98,4.88,1.06,5.43-1.18l9.82-40.61c1.53-6.33-.58-12.39,3.13-18.91,3.14-5.51,17.8-10.55,22.14-4.02,6.35,9.55,4.71,23.52,2.62,33.87l-5.48,27.17-2.61,49.49c-.4,7.51-1.33,17.24-7.42,22.36-5.87,4.93-18.02,3.67-23.97-.49-20.16-14.09-26.06-39.18-45.89-58.37-2.13-2.06-4.72-3.03-6.94-2.45-2.71.7-4.8,3.37-5.42,6.68l-7.38,39.56Z"/>
      <path d="M559.02,215.03c-2.7-2.12-2.86-6.63-2.62-9.83l4.17-55.73c.32-4.3-1.45-9.21.97-13.03l7.04-5.16c-2.57-2.78-7.13-5.08-7.44-8.9-.94-11.43,14.59-23.55,22.34-21.08,2.62.83,5.28,3.81,6.06,7.44,2.03,9.43-3.65,18.1-12.22,21.93-1.63.73.27,4.2,1.5,4.89,4.32,2.39,4.91,6.44,4.07,11-3.48,18.94-2.31,38.1-.73,57.29.58,6.99-2.48,11.72-9.37,12.79-4.32.67-9.43,1.82-13.78-1.61Z"/>
      <path d="M1240.41,292.26v.02c-.22,9.3-5.15,17.91-14.17,21.21-4.04,1.48-8.63.68-11.08-1.41-7.26-6.2-5.06-29.27,6.74-35.46,3.65-1.92,8.3.61,12.4,1.66,2.5,1.59,5.41,4.28,6.09,8.39-.21.25-.31.57-.26.94.13.93.22,1.86.26,2.79h0c.03.63.04,1.25.02,1.86Z"/>
      <path d="M0,124.87l.1-33.96,3.76-39.62c.42-4.45,2.18-8.04,5-10.05,11.59-8.22,32.38,10.97,44.43,23.63,5.7,5.99,10.04,13.15,17.15,17.85,5.65,3.74,13.17,1.23,18.52-2.57,14.52-10.32,25.9-23.15,38.05-35.89,8.36-8.77,21.01-15.82,27.97-10.66,5.62,4.16,5.41,20.95,3.52,32.22-2.92,17.41-2.64,34.08-.79,51.54,1.75,16.5,3.82,41.84-5.95,44.74-3.68,1.09-10.68.21-12.72-4.01-13.71-28.32-12.33-58.59-17.16-61.78-1.69-1.12-4.63-.98-6.63.43l-29.54,20.84c-3.9,2.75-11.39,6.5-15.2,2.84l-21.42-20.54c-2.33-2.24-5.36-3.54-8.51-2.87-2.54.54-4.98,4.33-5.52,7.88-2.63,17.28-9.06,54.74-18.66,56.19-8.97,1.36-12.69-12.62-15.33-24.32l-1.05-11.9Z"/>
      <path d="M1002.84,6.3l29.63-2.44c3.96-.33,8.92.39,11.96,3.04,12.76,11.15-39.1,23.46-39.11,30.89l-.06,39.08c-.03,22.74-2.54,44.99-11.13,65.64-2.69,6.46-11.14,9.37-15.9,4.5-3.49-3.57-4.51-9.85-4.45-15.06.31-25.81-.89-50.59-4.7-76.11l-3.46-14.82c-13.3-6.31-29.74,9.61-39.15-4.07-2-2.9-3-6.29-1.91-9.88.78-2.55,4.16-5.04,7.88-5.97l48.32-12.06,22.09-2.74Z"/>
      <path d="M139.88,335.79c-7.27,4.64-15.99,5.86-23.96,5.36-5.76-.36-9.09-4.99-8.84-10.21l1.45-30.3,3.39-71.62c.31-6.57-7.64-9.82-12.7-10.92l-34.1-7.42c-5.28-1.15-5.5-7.38-4.21-12.35,2.93-11.32,30.46-9.87,49.61-9.81l74.73.26c4.11.01,7.94,3.62,8.72,6.64.9,3.5-.98,7.59-4.65,9.12l-20.45,8.55c-5.32,2.22-14.7,5.3-16.48,11.66-9.41,33.55-5.38,73.42-12.51,111.04Z"/>
      <path d="M228.7,300.24l-.83-52.8c-.4-25.16,3.76-50.29,11.03-74.49,3.41-11.35,31.03-10.14,49.35,7.44,12.09,11.6,10.69,38.29,20.89,26.31,12.06-14.17,24.12-27.79,39.53-38.17,3.43-2.31,8.48-2.76,12.35-1.55,3,.94,6.18,5.12,7.66,9.59,6.88,20.79,6.55,42.5,4.92,64.69l-5.84,79.37c-.72,9.72-7.75,14.04-16.5,14.26-4.81.12-13.45.97-14.61-5.58-4.78-26.96,5.66-65.43-1.94-98.2-.46-2-1.96-3.58-3.29-3.91-1.4-.36-3.2.69-4.35,2.35-15.68,22.5-18.3,53.8-28.75,53.09-1.9-.13-4.15-1.42-4.92-3.97l-6.29-20.67c-4.52-14.86-13.09-38.88-21.98-35.75-2.38.84-2.22,3.52-2.64,6.25-3.96,26.16-4.55,51.16-.92,78.01.88,6.49.16,14.48-4.13,19.07-5.51,5.9-18.31,8.94-25.42,5.04-5.42-2.97-3.01-11.03-4.79-16.88l1.5-13.47Z"/>
      <path d="M427.18,229.84c-2.49,8.54,18.88,10.85,36.21,9.48,32.82-2.6,105.36-16.42,89.58,12.6-1.7,3.12-6.17,7.17-11.55,7.15-15.13-.05-29.4,2.23-44.53,3.2l-49.3,3.15c-16.58,1.06-45.39,8.62-54.49-3.83-2.87-3.93-2.79-8.79-1.12-13.71,5.07-14.92-1.55-25.7,2.05-40.81,2.35-9.88,3.03-19.61,3.68-29.56,1.39-21.4,26.29-13.11,40.7-13.08l53.78.11c9.75.02,21.93-.42,29.59,6.17,4.82,4.14-2.32,11.09-7.3,12.13-20.71,4.33-40.85,4.14-61.86,4.98-7.92.32-15.67,3.28-19.25,11.14,6.66,4.67,14.54,3.53,22.2,2.71l53.36-5.72c7.52-.81,14,1.62,15.39,8.4,1.39,6.81-2.12,14.02-9.65,15.34-21.69,3.82-43.27,4.8-65.49,4.35-9.27-.19-20.85,1.86-22,5.79Z"/>
      <path d="M207.73,357.19c-3.05,12.76-14.33,20.91-26.68,16.91-3.66-1.19-6.46-6.75-6.53-10.76l-1.2-63.03,3.17-41.31c1.09-14.27-4.22-37.06,12.67-37.94,16.55-.87,15.61,41.47,14.61,64.92l3.59,41.34c.87,10.02,2.85,19.53.38,29.87Z"/>
      <path d="M1151.45,269.01c1.86,5.42,8.73,7.08,13.33,7.15l21.55.33c3.4.05,6.28,2.01,7.55,3.76,3.99,5.48,0,18.27-4.33,20.14-5.67,2.44-12.68,1.91-18.96,1.89l-34.59-.1c-6.56-.02-13.44.13-19.45-1.49-7.32-1.97-8.35-7.13-8.05-13.76l3.96-88.95c.45-10.21,1.51-22.65,11.26-28.05,10.82-5.99,24.33-4.76,36.47-5.43l36.26-2.01c3.37-.19,6.12.99,8.01,3.26,1.94,2.34,1.56,5.74,1.11,9.11-2.61,19.79-27.35,7.24-53.12,13.62-2.09,3.49-1.51,7.28-1.78,10.9-.69,9.05,5.2,15.64,14.15,15.86l29.65.73c4.66.11,5.71,5.72,5.7,8.99-.01,4.1-1.1,8.96-5.6,10.56-18.73,6.66-39.7.69-43.03,9.12-2.81,7.1-2.79,16.47-.07,24.38Z"/>
      <path d="M748.04,287.38l.1-35.38,3.89-41.28c.44-4.63,2.25-8.38,5.16-10.47,11.96-8.56,33.43,11.42,45.88,24.62,5.89,6.24,10.36,13.7,17.7,18.6,5.83,3.89,13.6,1.28,19.12-2.68,14.99-10.75,26.74-24.12,39.29-37.39,8.64-9.13,21.7-16.48,28.88-11.11,5.8,4.34,5.59,21.83,3.64,33.56-3.01,18.14-2.73,35.5-.82,53.69,1.8,17.19,3.95,43.59-6.15,46.61-3.8,1.14-11.02.22-13.13-4.18-14.16-29.5-12.73-61.03-17.72-64.36-1.74-1.16-4.79-1.02-6.85.45l-30.5,21.71c-4.02,2.86-11.76,6.77-15.7,2.96l-22.12-21.39c-2.41-2.33-5.53-3.69-8.79-2.99-2.62.56-5.14,4.51-5.7,8.21-2.72,18-9.36,57.02-19.27,58.54-9.26,1.42-13.1-13.15-15.83-25.33l-1.08-12.39Z"/>
      <path d="M964.53,338.69c-2.77,11.7-13.03,19.18-24.25,15.5-3.33-1.09-5.87-6.19-5.94-9.87l-1.1-57.79,2.88-37.88c.99-13.08-3.84-33.98,11.51-34.79,15.05-.79,14.18,38.02,13.28,59.53l3.27,37.91c.79,9.19,2.59,17.91.35,27.39Z"/>
      <path d="M1094.08,268.29c5.77-23.12,8.4-46.82,2.85-69.94-2.14-8.88-8.11-14.75-17.44-14.78-12.48,2.77-11.23,24.59-11.23,24.59-.85,18.59-2.33,36-7.23,53.18-1.02,3.56-4.17,6.01-7.14,6.31-7.47.73-14.03-13.21-15.33-25.25-1.29-12.11-6.08-22.09-14.26-30.91-3.84-4.16-6.35-10.16-11.39-13.18-5.7-3.42-12.02-1.33-16.95,2.4-3.78,2.86-6.71,8.57-6.77,14.53l-.28,32.77c-.11,11.82-1.5,23.7.3,35.38,5.54,35.93-7.45,57.34-1.84,67.5,3.64,6.6,13.06,4.74,17.75-.11,14.32-14.83,10.62-36.44,21.78-39.11,12.38-2.96,18.65,23.74,55.68,40.65,6.25,2.84,13.42-2.16,13.94-8.53.88-10.68,2.91-22.44-.33-32.72-4.55-14.43-5.88-27.69-2.13-42.75Z"/>
      <path d="M669.01,191.49c.04,13.53-9.88,24.44-22.78,24.66l-20.4.34c-14.97.25-27.7-21.15-27.7-39.23,0-4.81,2.86-8.17,6.74-9.12,12.64-3.09,8.31,22.79,23.76,22.07,6.19-.29,14-8.87,12.07-16.79-2.33-9.56-18.37-5-28.76-22.89-2.85-4.91-7.6-9.07-9.41-14.7-3.05-9.51-.45-19.07,4.14-27.98,5.59-10.87,17.86-20.54,30.81-17.51,7.35,1.72,15.77,7.96,20.28,13.86,6.57,8.6,10.17,33.43-2.91,35.58-4.02.66-7.19-2.21-8.56-6.49l-4.98-15.59c-1.4-4.39-5.39-6.06-9.68-5.8-7.96.5-12.79,6.5-11.99,14.3.6,5.9,3.09,10.47,8.3,13l27.01,13.07c9.19,4.44,13.98,11.76,14.02,22.22l.06,17.03Z"/>
      <path d="M914.87,51.74c-11.46-3.62-23.45-3.43-34.98,1.18-15.79,6.32-32.06,15.38-42.22,29.86-13.06,18.6-13.14,44.26-4.59,64.46,4.33,10.22,12.49,16.81,19.99,23.79,8.14,7.55,17.35,12.01,28.87,12.18,19.06.27,38.06-5.61,52.8-18.85,11.23-10.07,18.89-47.49,20.09-66.09,1.74-27.2-15.89-38.95-39.97-46.54ZM919.47,130.98c-4.52,5.83-13.94,7.1-20.39,9.7-6.19,2.5-12.99,5.73-20.68,3.94-9.48-2.19-17.16-10.52-20.74-19.15-2.53-6.09-3.27-16.25.4-22.12,7.54-12.05,19.51-21.57,32.16-26.55,14.56-5.71,28.96.43,33.21,15.64,3.38,12.06,3.39,27.75-3.96,38.54Z"/>
    </g>
  </g>
</svg>