<?xml version="1.0" encoding="UTF-8"?>
<svg id="Livello_2" data-name="Livello 2" xmlns="http://www.w3.org/2000/svg" viewBox="0 0 1239.35 326.13">
  <g id="Livello_1-2" data-name="Livello 1">
    <g>
      <path d="M878.09,246.64l-4.16,15.79-3.47,28.84c-.57,4.74-3.07,7.68-8.17,7.33l-.72,6.87-7.98.62c-3.33-3.92-7.89-6.72-10.78-10.83-2.45-3.48-5.07-9.23-6.04-13.58l-4.68-21.13c-1.94-8.78-3.34-20.51-10.28-27.04-1.08-1.01-5.71-.55-6.74.94-4.14,5.98-5.94,19.32-3.86,25.72-3.53,19.76,7.17,37.79-10.68,54.79-2.72.71-6.43,2.2-8.77,3.77l-12.01-5.53.73,4.33c.15.86-3.3-.27-3.78.48l-1.73,2.71c-.48.75-2.28.36-4.06-.25l4.13-3.47c-3.94-2.69-7.33-5.38-8.37-9.84-7.17-30.72-3.48-50.29,2.59-80.36l3.8-12.7c3.46-11.56,9.81-28.3,17.99-36.19,6.52-4.26,15.72-9.22,24.41-8.28l12.62,3.01c8.4,2,11.75,11.93,15.51,18.75l3.65-2.48c-1.35,3.34-1.76,4.41-1.15,5.92l8.52,21.24c4.77-10.08,9.82-17.69,16.55-25.22l11.51-12.87c2.73-3.05,6.88-4.62,10.71-6.12,16.86-6.59,31.85,5.55,32.66,14.18l1.82,19.18,2.13,1.4c.52.34-1.36,1.81-2.48,2.57l3.02,28.14,3.88,36.45c1.74,16.37,2.42,34.73-13.33,39.77-1.03,1.17-3.01,3.6-4.37,4.16-3.66,1.49-5.05-3.89-10.48-7.05-5.92-3.44-8.99-10.84-9.47-17.47l-1.48-20.2-.48-42.89-1.74-3.32c-2.54-4.85-11.34,6.15-14.94,19.83Z"/>
      <path d="M452.81,315.66l-8.47-4.42-5.49-4.95-4.98-6.84-22.62-31.2-16.38-20.85c-.72-.91-3.1-2.17-3.92-2.54-3.99-1.84-3.81,14.37-1.62,24.85l2.87,13.75,2.27,16.13-1.38,6.74,1.56,2.27c1.21,1.76-8.57.44-9.74,2.24-.84,1.28-1.51,3.56-2.45,6.21l-9.96.42-1.91,6.29c-1.67-.16-4.65-.61-5.13-1.75l-2.07-4.9c-6.5-1.1-6.61-6.59-8.13-6.15l-4.34,1.26,1.54-3.01c-4.12-6.1-5.95-12.69-7.27-20.11-5.06-28.59-2.67-56.91,3.05-85.43,1.72-8.57,3.12-18.41,12.21-22.6,3.35-1.54,7.38-3.69,10.59-5.97,9.9,3.98,13.41-8.24,19.67,1.63,4.53,1.21,11.87,1.16,13.51,6.49.87,2.82,1.41,4.09,5.01,5.82,2.04-.28,3.02.26.57,1.75l19.07,31.67,18.55,24.65c.19-16.78,1.39-32.22,3-48.42.65-6.53,2.01-14.04,7.08-18.42,4.32-3.73,10.15-3.2,15.41-1.58,7.09,2.18,10.02,14.58,10.22,14.02l-.84,2.31-.66,4.64c-1.43,10-1.62,23.57,1.47,32.27l2.43,30.63c.78,10.67.51,21-1.04,31.28-.97.45-3.25,1.58-2.86,2.12l1.53,2.1c-8.51,2.78-2.66,15.75-9.05,16.55-2.13-1.3-4.46-2.57-4.93-2.36.01,1.81.28,3.65-.36,3.56l-3.34-.47.3,6.41c-3.59-1.36-6.44-3.37-9.4-5.97l-3.58-.11Z"/>
      <path d="M1184.97,272.86c3.13.1,9.53,1.24,11.61,3.25l7.71,7.5c.97-1.1,3.13-4.96,4.76-6.02l7.78-5.07c6.23.15,14.28,1.57,18.67,6.69,5.77,6.72,4.57,18.56-.34,24.9-5.35,6.91-17.23,9.75-22.94,5.8-5.86-4.04-9.6-10.22-9.81-16.98l-6.75,5.83.05,3.83c0,.81-8.58,5.04-14.69,4.93l-19.03-.33-29.81-3.86c-7.76-1-14.62-2.37-21.69,2.31l-9.01.08.29,6.02c-4.04-.33-6.46-2.83-7.37-6.66l-1.96-8.2-3.52-15.29-3.32-15.05-4-31.17v-14.44s.28-9.07.28-9.07l.96-22.78c.13-3.09-1.18-8.08,1.52-10.8,4.67-4.7,11.78-12.18,19-11.77l53.36,3.05c9.93.85,19.45,1.77,28.68,4.56l2.55,2.81c.55.61-.1,1.98-.84,3.19,2.14,1.01,5.5,3.87,6.16,6.12l-3.03,2.21c-.53.38,1.04,2.47,1.35,3.3-8.87,14.31-31.05,14.16-49.13,12.01l-8.73-1.04-15.12.24c-4.13,6.35-4.47,15.62-.19,17.26,6.09,2.34,11.83-.16,17.64-.37l21.37-.78,21.53.75c4.22.15,7.5,3.32,9.22,6.53l2.47,4.59c.64,1.18-1.03,4.16-2.68,4.89l2.24,1.52c.75.51-.38,2.77-1.04,3.37l-6.25,5.63c-1.78,1.61-6.7,3.81-9.15,4.09l-19.65,2.21-15.92,1.09c-5.54.38-11.64-1.09-17.14,1.72-.72,3.73.68,9.38,3.69,12.31,1.85,1.79,6.44,2.51,9.13,2.69l22.91,1.48,28.18.92Z"/>
      <path d="M1071.25,309.9l-.08,4.8-5.91,2.21-7.26-2.77-9.79-5.21c-3.41-1.82-5.12-6.75-7.27-10.27l-5.17-8.48-21.27-43.63c-3.84,5.77-4.74,16.97-1.6,20.06-.95,1.95-1.9,5.15-2.1,7.85l-1.34,18.3c-.44,6.03-3.97,12.39-4.47,18.98l-3.32-.45c-.91-.12-1.2,3.1-1.62,3.92l-1.92,3.7c-.49.94-2.68-1.64-2.96-2.94-12.63-.23-15-12.96-14.88-26.34l.36-40.23.13-35.9c.03-7.27.94-15.14,2.82-22.09l2.75-10.15c1.02-3.76,6.76-6.24,10.38-7.13,7.58-1.88,18.69,2.99,20.69,7.45l15.17,33.88,5.49,9.1,10.04,17.67-.67-20.69c-.42-13-1.09-25.52.87-38.3.6-3.94,5.9-9.54,9.21-9.02,2.88.45,4.31.68,7.41.43,3.56-.28,9.71,2.79,11.22,6.74,1.9,4.98,1.06,10.59,1.11,15.97l.46,45.92.61,10.93,1.8,22.51,1.81-2.57c.2-.28.54-.39.87-.61-.41.27,2.72,9.64.09,16.65-.55-4.66.33-8.56-2.14-12.65l.44,20.03c.06,2.74-1.19,5.69-2.26,8.1l-1.86,4.18c-.43.96-2.6.69-5.84.06Z"/>
      <path d="M252.87,324.09c-18.61,1.43-34.2,1.28-46.79-12.09-6.39-6.79-10.45-18.49-7.69-27.76,2.28-7.66,10.01-11.68,17.64-11.23,7.51.44,13.45,5.92,15.5,13.57,1.62,6.04,7.08,7.94,12.59,7.58,2.78-.18,7.65.37,10.25-.97l14-7.19,3.17-8.77c5.21-14.42-16.98-19.22-30.61-24.39l-19.64-7.45c-15.67-5.95-22.75-21.35-16.12-37.65,2.94-7.23,9.94-13.33,17.29-15.52l11.72-3.5c11.96-3.57,24.61-4.19,37.26-4.41,13.2-.23,27.01,5.36,28.67,17.68.71,5.29-3.05,11.65-5.93,15.09-3.53-.81-5.25-.13-8.17,1.31-4.6,2.26-11.81-2.22-14.1-6.53-2.1-3.95-5.95-3.56-9.79-4.31-9.37-1.84-20.87-1.41-28.22,3.07-2.66,1.62-3.41,6.92-2.45,10.03.8,2.59,3.89,6.1,7.43,7.19l33.2,10.24c6.81,2.1,13.07,7.23,19.13,11.36,3.55,2.42,7.39,7.52,9.53,10.95,6.59,10.57,7.53,21.81,2.01,32.63l-5.78,11.31.29,2.55c.07.64-2.44.21-3.11.06-9.77,13.31-24.73,15.87-41.28,17.14Z"/>
      <path d="M193.95,309.21c-1.53,1.41-5.83,4.8-5.76,6.86.17,2.77-.12,9.24-3.17,9.29l-16.75.25c-4.17-2.86-7.58-4.47-12.74.52l-5.86-15.74c-7.68-26.77-9.42-54.17-7.77-82.38.4-6.79.73-13.73,2.31-19.87l2.68-10.38c.56-2.16,2.44-6.3,3.44-8.43l10.22-4.55c1.89-.84,6.48.77,8.69.73,3.94-.06,7.21-.09,10.46,2.41,8.71,6.68,7.43,19.43,4.21,30.59-.93,3.2-.08,6.91.15,10.1l3.41,48.03c.06.83.19,2.66.75,2.94l3.04,1.51-2.31.8c-.62.22-.87,1.88-.79,2.67l2.49,24.62,2.35-2.56c.38-.42,1.36,2.21.94,2.59Z"/>
      <path d="M959.84,316.78l-2.7,2.72c-2.73,2.75-5.31-7.31-11.17-8.5-1.93-2.53-6.04-8.35-6.35-11.63l-1.41-14.62-1.13-25.15.42-21.59c.26-13.03.37-26.13,3.35-38.58l4.04-16.9c3.53-6.26,9.14-9.63,16.14-8,8.09-2.95,16.34.77,19.7,8.92l-4.15,11.52c-2.34,6.49-2.87,12.48-1.86,19.65l1.5-1.57c.4-.42,1.62-.34,2.26-.14-.6,1.89-1.88,3.25-3.84,4.11l-.81,22.59c-.64,17.81-.18,34.63.91,52.6l-.88,8.86c-8.16,8.82-5.75,18.11-14.02,15.71Z"/>
      <path d="M638.35,220.96l.88,4.55-6.24-6.55c.59-.78,1.75-1.88,1.5-2.42l-1.26-2.65,6.52-2.29c.29.18,1.41,2.01,1.01,2.49l-2.39,2.89,8.32,2.67-2.77,2.47c-.8.71-3.11-.17-5.55-1.16Z"/>
      <path d="M701.56,293.79l-2.2,2.08c-.49.47-1.54-1.89-1.61-2.63,1.6-.37,4.59-1.91,4.58-3.39l-.04-7.79c3.85,3.38,4.54,9.5,4.41,14.28l-1.94-3.82c-.43-.85-2.47.56-3.21,1.27Z"/>
      <path d="M703.82,267.38l-2.79,1.6c-.82.47-.05,3.03.33,3.83l-4.18-.46-2.34-8.48,2.69,3.73c.72,1,3.93.08,6.3-.23Z"/>
      <path d="M100.13,199.86c-.45.46-2.45.91-2.45.27v-2.96c.01-.62,2.02-.2,3.3.04.28-.72,1.18-3.01.72-1.84l-2.85-2.39c-.52-.44,1.22-1.77,2.2-2.33,2.67,1.62,1.82,6.38-.92,9.21Z"/>
      <path d="M1201.64,113.77c-4.13.31-5.81.62-10.01-1.91l7.49-3.06,2.52,4.97Z"/>
      <path d="M741.36,105.18l-.75,10.59-1.22,21.36c-.05.89-1.29,3.83-2.13,3.48l-4.09-1.67-2.84,3.48c-.69.84-3.51-.92-4.45-1.48l-1.91-1.16c-.6-.36-2.31,6.08-5.6,4.6-1.19-.54-2.35-2.92-2.98-4.61-1.36.72-4.57,1.84-6.01,1.15-2.07-.99-3.97-3.14-5.39-5.17-2.04.19-8.72.5-9.26-2.66l-4.52-26.23c-1.13-6.59-.77-14.16-4-19.68l-8.25-14.1c-1.88-3.21-5.1-7.1-8.18-9.12-1.28-.84-4.42,2.84-4.54,4.28l-1.55,17.64-1.55,3.88-.45,23.72c-.16,8.25-.22,16.3-2.07,24.35-1.14,4.97-5.13,7.26-9.05,9.22l-3.5,3c-.77.66-3.28-1.61-4.34-1.7-2.74-.22-7.6.53-9.65-.69l-7.24-4.32c-3.31-5.46-4.53-13.88-5-19.54-.07-.81-1.78-2.41-1.48-2.97l1.39-2.55c.29-15.11,1.68-29.84,3.65-44.91l3.83-29.71,1.89-14.94c.82-6.46-.4-13.18,5.76-16.47.26-2.84,2.13-4.76,4.6-6.24l2.57-1.54c.64-.39,2.1.78,2.99,1.31l13.25-3.16c5.31-1.27,12.11-3.71,16.6.84l8.15,8.27,7.13,8.09c4.77,5.41,9.81,10.63,15.37,15.3,9.52,7.99,10.05,14.42,15.63,16.26l9.33-8.2c6.06-5.33,10.59-12.66,17.58-16.81l17.36-10.31c8.47-5.03,16.8-5.55,25.9-2.75,6.11,1.88,11.05,4.58,13.71,10.65,4.49,10.23,9.1,20.41,8.6,32-.54,12.27-.4,24.15.74,36.76l1.45,6.94,3.76,29.99c1.7,13.58-9.86,19.28-11.35,16.66l-1.94-3.43-2.45,5.22c-.49,1.03-3.27,2.47-4.42,2.36-2-.19-7.72-3.49-10.35-6.97l-1.27,4.08c-.35,1.13-8.37-2.46-9.19-19.43l-1.58-32.61-.09-8.63.12-14.67-.68-18.91c-.05-1.48-1.47-4.08-2.53-4.93-1.21-.97-5.32-1.1-6.54-.15l-15.18,11.93c-5.03,3.95-11.3,9.3-12.73,16.04.69,5.09,1.8,10.91,1.55,16.3l-.58,12.62Z"/>
      <path d="M957.78,83.49c4.3,12.36-21.84,10.26-35.96,11.03l-8.3.46-17.27.24-6.44.52c-5.9.47-11.24,1.58-16.94,3.45-.11,3.56-.08,8.22,2.28,10.17,2.95,2.43,7.59,2.65,11.27,2.65l42.21.04,33.66-.16,9.63,1.65c4.03.69,9.43,3.15,7.94,7.35l-3,5.4c2.42,5.45-5.25,13.75-4.51,13.61l-4.28.84-13.33,2.21-27.13,1.3-9.47-.06-27.81,1c-6.19.22-12.4,0-18.55.11l-13.5.22c-4.25.07-7.64.48-12.65,1.76l-10.91-5.13c-3.91-7.48-4.78-15.7-5.36-24.22l-2.64-38.64-.21-7.64-.15-8.7-.42-12.12.1-13.81,3.63-17.43c6.38-4.91,12.02-7.61,19.29-9.36,2-.48,5.68-1.88,7.44-1.32,4.64,1.47,9.02,2.19,13.52,2.32l14.56.42,9.74-.53,6.6.04,10.58.58,39.96,2.3c6.94.4,13.99,3.17,20.95,1.66,2.9-.63,6.6-.43,7.52,2.94.42,1.52-2.53,4.63-4.05,4.66-4.02-1.33-8.41-2.34-12.07-2.17,2,5.85,2.39,9.49.1,14.14,2.94-.48,4.62-.49,6.73,1.05-2.55,1.47-4.4,1.6-7.77,1.92l-9.06,3.68-16.37,1.7-5.89.08-20.07-.31c-11.13-.17-35.44-3.51-39.65,2.14-5.09,6.83-7.2,23.41,2.03,22.23l19.66-2.53,21.68-3.16,20-2.25,8.58-.19c12.14-.27,8.61,8.6,15.39,11.41l-1.96,2.01s-.71,6.51.65,10.44Z"/>
      <path d="M583.22,144.48c-3.86,3.53-12.66,4.65-14.36.97l-9.05.06c-3.01-1.27-9.1-4.77-10.25-7.89-2.21-6.01-3.04-11.76-3.66-18-3.06-30.55-2.18-61.01,2.66-91.28,1.57-9.84,11.18-19.14,18.88-20.39l8.96-1.46c7.15-1.16,15.48,4.15,18.58,10.48l3.54,7.23,1.27,24.35,2.23,47.52,1.13,33.21c.13,3.73-1.36,8.27-3.15,11.41-1.4,2.46-5.98,1.2-7.26-.3-1.53,3.99-3.38,6.97-5.87,10.13l-3.66-6.06Z"/>
      <g>
        <path d="M83.16,138.39c-2.88-.41-8.5.29-9.15-4.42,2.16.61,5.26-.02,6.75-1.62-3.14-5.53-5.74-10.22-8.96-14.95-5.69-8.36-13.42-21.69-19.81-23.56-1.2-.35-4.59,1.5-4.76,2.89-.59,4.92.34,12.47.71,17.71.72,10.42.48,18.75-1.15,28.46l1.87,5.96,2.17,3.7c.72,1.23-2.98,7.09-8.61,7.48.02.14.3,3.21-.36,2.99-.8-.26-2.15-.88-2.92-1.43-4-2.89-5.54,1.69-9.09-.97-3.23-2.41-6.08-2.19-9.1-.11l-7.02-2.76c-2.28-.9-3.82-5.9-4.26-8.64l-3.84-23.98c-3-18.76-4.49-37.08-3.82-56.36.24-6.87,1.16-14.25-.64-20.61C-3.18,32.81,4.93,15.62,20.21,9.52c3.9-.67,6.95-.75,10.32,1.31,5.97-.37,12.07,1.09,17.88,3.77,5.13,2,10.83,4.42,13.98,8.88l7.6,10.77c2.59,3.67,5.27,6.93,7.38,10.78l5.4,9.85c3.66,6.67,6.62,13.63,10.9,19.73l5.88,8.37c1.06-1.41,2.98-3.66,3.53-4.87l9.96-21.71c.58-1.26,3.3-3.26,4.04-4.47l18.4-30.19c1.9-1.02,3.27-2.03,4.52-3.48,13.91-15.99,16.25-12.78,22.96-16.59,5.45-3.09,9.28,1.96,13.34,3.68,8.07,3.4,16.85,5.41,18.8,14.61-3.74,8.21-2.63,16.69-.06,25.09l7.63,24.92c1.99,6.51,4.44,12.57,5.8,19.27l7.55,37.1.13,7.44c.02.87-.66,3.41-1.5,3.31l-3.44-.4c-.43-.05-1.4,2.12-1.03,2.34-4.87-2.89-6.57-1.87-11.96,1.92l-3.45-.58c-1.88-.32.46,5.17-2.58,8.06-.83.79-3.18-.63-4-1.38l-2.13,5.93-.05,1.9c-.01.48-1.67,1.37-1.86.93l-1.28-2.91-5.15-7.84c-3.76-1.12-4.86-2.95-5.6-6.35l-5.27-24.32c0-12.71-1.23-24.91-3.45-37.35l-2.54-4.49c-5.2-1.51-8.51,1.67-10.84,5.67-1.71,2.94-3.62,5.02-2.13,7.9-3.92-.47-3.62,5.32-4.81,7.77-1.41,2.92-2.18,5.01-3,7.96-1.84,6.65-5.09,10.2-5.94,17.62-.23,2.05-.66,2.53-1.28,4.41l-5.73,17.47c-.62,1.88-1.95,4.13-2.72,5.34.44,6.8-5.8,13.3-6.32,12.61l-1.87-2.49-3.25,1.88c.08-3.07-1.15-5.33-3.19-6.38-2.39-1.23-5.92.18-8.27,1.7l-3.79,8.51c-4.24-3.15-7.68-6.03-10.71-9.36.56-5.19-.08-11.24-3.83-14.75Z"/>
        <path d="M297.26,148.71c-8.57,2.78-22.16,5.37-28.92,4.79l-22.23-1.9-5.82-2.49c-3.69-1.27-9.6-3.24-11.06-6.66-.03-3.44-.16-4.79-1.3-7.66s1.07-8.01,3.15-9.88c3.15-2.84,7.35-3.67,11.55-3.15l16.9,2.11c8.26,1.03,18.21-.48,23.67-7.55,6.93-8.97,7.32-21.38,3.84-31.97-3.67-1.22-6.97.59-10.15,2.76-14.86,10.11-31,10.42-47.7,3.17-2.77-1.2-6.89-3.88-8.89-6.04-14.25-15.38-13.93-36.24-12.7-56.56l.69-11.34c.37-6.05,3.49-13.47,9.83-15.59,7.82-2.61,16.08,1.99,21.67,7.09.68-.33,1.77-.92,1.89-.87l1.38.58c.4.17-.81.98-1.78,1.6,5.21,18.88-3.38,41.32,9.74,52.97,3.92,3.48,10.31-.58,13.02-3.95l7.05-8.76c2.21-2.74,4.83-8.11,6.11-11.5l3.76-9.94,4.59-11.67c1.22-3.09,2.47-4.7,5.97-5.62l7.8-2.05c7.83-2.06,15.34,1.07,21.66,5.59l3.99,6.99.95,10.85.4,45.16c.09,10.76.58,21.47-1.46,31.82l-2.03,10.3c-2.09,10.58-7.25,18.18-16.57,23.82-2.35,1.42-5.94,4.52-9,5.51Z"/>
      </g>
      <path d="M688.3,305.68l-.2,9.41-3.38-5.66-4.29,14.68c-1.75-2.26-2.05-3.7-2.78-6.36-1.15.03-6.4.76-7.78-.16l-2.59-7.91-6.64,3.24-2.15-5.21-4.87-2.12c-.52-4.46-1.56-6.78-3.71-10.34l-2.45-10.62-1.38-11.56-2.26-40.6c-3.22-.49-5.64-1.82-6.19-4.25-.51-2.26,2.33-4.59,5.79-5.21l-1.17-23.05c-12.66-.03-23.27.13-34.29-4.02-2.68-1.01-5.29-3.42-8.79-3.73,9.1,9.3,14.1,19.55,16.82,31.89,4.3,19.48,2.94,39.39-6.04,57.58-1,2.02-3.62,5.71-5.16,7.1l-5.14,4.63-8.2,6.49c-16.12,12.75-45.17,13-65.91,8.64-4.85-1.02-8.95-3.78-13.41-6.06-5.53-2.83-9.44-6.15-13.19-11.11-9.5-12.57-13.48-27.66-12.14-43.18,1.49-17.27,5.84-32.96,16.14-47.21l5.32-6.26c5.5-6.47,11.26-13.81,19.75-16.99l16.99-6.37c2.25-.84,5.51-.61,8.03-.44,14.55.96,26.69,4.02,38.73,11.66,1.37-2.27,1.08-4.5.4-7.8,7.56-11.68,15.65-7.92,18.94-8.01l32.57-.87,9.25-.34,11.05-.49,10.22-.17,21.15-.62,24.31-.44c12.34-.22,21.35,1.81,28.82,11.03l2.13,5.37c.3.75.86,3.05.2,3.47l-3.91,2.52,2.58,2.76c-4.59,2.24-6.97,4.52-8.01,9.68-3.55,1.44-9.38,4.49-13.22,4.44l-10.48-.14c-4.59-.06-8.15.39-12.83.54l-18.61.62,1.81,25.94,3.78,29.01,2.29-3.25,1.03,2.22c.3.64-1.35,1.71-2.55,2.38-.29,4.8.59,9.95,2.52,14.94,1.76,4.56-1.18,13.21-4.91,15.27l-2.06,13.71,1.58,1.39,2.01-11.05,2.57,10.54-5.31,1.47-.75-1.02ZM579.55,252.35c6.41-11.16,6.36-24.3,4.08-37.1-.69-3.89-2.99-7.45-6.04-9.64-4.78-7.97-13.2-11.26-22.67-9.11-12.97,2.94-26.43,19.97-29.25,32.68-1.87,8.43-3.11,16.83-1.49,25.18,2.11,10.9,9.46,20.13,20.26,21.78,20.69,3.16,26.47-8.77,35.1-23.79Z"/>
      <path d="M474.32,144.8c-2.61-.08-7.48,1.87-9.94.98-6.36-2.28-13.21-6.4-14.67-13.03l-3.62-16.44-1.74-7.67c-1.92-14.79-1.72-29.28-1.86-44.16-.05-5.04-.65-9.28-2.49-14.05l-10.14-1.26-14.19-1.58c-2.17-.24-4.22.62-7.2,1.82l2.02-2.52c-2.07-.69-4.83-.84-7.53-.74l-5.91.21c-9.77.34-19.89-.42-29.31-3.19l-7.8-2.29-.02,1.75c0,.33-1.11.67-1.2.35l-.62-2.26c-8.3-4.13-12.89-14.77-7.14-23.41,6.32-4.05,13.91-6.07,21.67-4.82l38.37-1.21,12.6-.41,14.51-.34,11.06-.36,26.1-.35,22.14-.18,8.41.44,16.46.81,12.29,1.82,7.74,8.09-3.7,2.94c-.71.56.56,2.98,1.56,3.77-1.63,7.23-7.76,11.7-15.57,11.9l-10.01.26c-9.89.26-20.03,1.06-25.35,8.93l6.97,2.43-5.76-.26.76,16.96,1.76,25.12.93,41.14-5.43,5.04-7.24,4.78c-1.7,1.12-3.65,1.06-6.89.96Z"/>
    </g>
  </g>
</svg>