<?xml version="1.0" encoding="UTF-8"?>
<svg id="Livello_2" data-name="Livello 2" xmlns="http://www.w3.org/2000/svg" viewBox="0 0 1240.2 354.13">
  <g id="Livello_1-2" data-name="Livello 1">
    <g>
      <path d="M326.94,183.45l2.4-.35c-.88-.82-1.93-.52-2.4.35Z"/>
      <path d="M400.12,268.1l-.55,11.88c-.04.93-.29,2.82-1.45,4.6-.34-.64-.64-1.34-.9-2.11-1.25-3.71-1.74-10.41,2.04-13.67.29-.25.57-.48.86-.7Z"/>
      <path d="M400.12,268.1l-.55,11.88c-.04.93-.29,2.82-1.45,4.6-.34-.64-.64-1.34-.9-2.11-1.25-3.71-1.74-10.41,2.04-13.67.29-.25.57-.48.86-.7Z"/>
      <path d="M1110.62,331.21l-.57,12.28c-.03.64-.17,1.8-.78,3.03-.16-.17-.3-.34-.42-.52-2.01-2.75-2.6-5.96-1.66-9.06.75-2.43,1.95-4.3,3.42-5.73Z"/>
      <path d="M1110.62,331.21l-.57,12.28c-.03.64-.17,1.8-.78,3.03-.16-.17-.3-.34-.42-.52-2.01-2.75-2.6-5.96-1.66-9.06.75-2.43,1.95-4.3,3.42-5.73Z"/>
      <path d="M538.55,171.02c-.18,6.69-.37,13.61.56,20.95.53,4.13-1.62,8.55-3.93,10.28-1.65,1.24-4.38,1.67-6.39,1.67-1.86,0-4.45-.34-6.14-1.99l-.41-.39-.22-.52c-2.52-5.9-2.95-13.01-3.01-19.81l-.98-97.4c-.03-2.52,1.05-6.87,8.61-7.67.49-.05.97-.07,1.43-.07,4.6,0,7.69,2.48,8.26,6.66,2.01,14.6,2.08,28.7,2.16,43.64l.2,35.42c.02,3.12-.07,6.23-.15,9.25Z"/>
      <path d="M64.45,136.69c-4.79-.22-8.74-3.34-10.67-5.94-2.04-2.76-2.12-8.24-.9-11.63,1.22-3.42,3.5-4.47,4.75-4.79l.29-.07.29-.03c23.96-2.38,43.86-3.48,62.62-3.48,15.22,0,29.38.73,43.28,2.23,3.61.4,6.25,3.6,7.05,8.57.78,4.82-.19,10.48-4.13,12.27-8.81,4.01-17.97,4.2-25.33,4.37-6.29.14-11.73.25-14.63,2.57-.79.74-.96,4.68-.07,6.6,2.7,5.73,1.77,10.14,1.01,13.68-.3,1.48-.6,2.89-.62,4.3l-1.29,107.86-.37.77c-.55,1.18-1.35,2.33-2.22,3.54-1.33,1.87-2.83,4.01-3.2,6.13-.64,3.57-4.15,5.87-8.95,5.87-1.29,0-3.75-.18-5.65-1.41-1.48-.94-6.28-4.49-6.38-10.43l-.6-40.14-2.09-74.89.23-23.56c-1.19-.55-2.79-1.09-4.23-1.16l-28.19-1.23Z"/>
      <path d="M.53,43.52l-.53-16.19L.51,11.24c.07-2.49.15-5.31,1.09-7.95C2.31,1.31,4.36.12,7.1.12c1.03,0,2.04.17,2.82.48,3.59,1.41,4.36,4.87,4.87,7.15.17.79.47,2.1.75,2.31,0,0,.06.02.2.02.23,0,.66-.06,1.39-.32l1.31-.48,6.72,8.03c.08,0,.16.01.24.03,1.05.12,2.81.32,3.75,1.89l1.01,1.7s-1.78,1.06-1.82,1.09l9.12-.23c.13-.27.24-.55.36-.83l.08-.2,7.4-11.27,1.55.73c1.51.71,2.38.85,2.84.85.73,0,1.05-.42,1.71-3.19.63-2.65,1.5-6.28,5.48-6.97.24-.04.51-.06.77-.06,2.43,0,5.11,1.71,5.39,4.56l1.02,10.34c.56,5.66,1.04,20.19.51,22.7-1.18,5.66-.72,10.04-.14,15.6l.13,1.19c.21,1.98-.1,4.15-.41,6.25-.22,1.55-.45,3.15-.48,4.64l-.24,17.79c-.06,4.84-2.15,7.43-6.18,7.71-.19,0-.37.01-.55.01-3.83,0-6.32-2.79-6.36-7.1l-.34-43.44c-1.83.84-3.25,2.78-4.36,4.29l-.31.42-3.78,2.06c-.36.2-.75.4-1.14.6-1.61.83-3.43,1.78-4.67,3.1l-.64.69-.94-.06c-5.96-.42-8.34-3.14-9.76-4.76-.33-.38-.78-.89-.96-.96,0,0-.03,0-.1.02l-2.44.53.03-2.5c0-.35.02-.72.05-1.1.03-.61.06-1.2.03-1.76-.32.11-.65.17-.99.17-.79,0-1.55-.33-2.13-.92-.95-.99-1.38-1.96-1.49-2.92-.45.32-.83.72-1.01,1.18.17.17.38.36.49.45.13.11.23.21.3.28,1.41,1.4.25,3.1-.19,3.74-.09.13-.23.34-.3.46-1.36,11.82-1.91,24.4-1.71,39.6.03,2.07-.63,3.85-1.9,5.15-1.25,1.28-3.01,2-4.94,2.02h-.1c-2.21,0-3.9-.71-5.05-2.1-1.04-1.27-1.55-3.01-1.55-5.32v-20.01s.07-19.92.07-19.92Z"/>
      <path d="M878.63,277.51l.28.88-2.28,16.49-1.02,46.67c-.17,7.8-6.54,11.96-12.38,12.52-.4.04-.79.06-1.17.06-6.99,0-12.48-5.94-12.52-13.54l-.42-86.98c-.01-2.6-.08-2.63-1.81-3.3-.1-.04-.18-.07-.24-.08-.51.42-1.42,1.78-2.08,2.8-2.24,3.38-5.59,8.48-12.64,11.15-1.81.69-3.75,2.12-5.8,3.64-2.6,1.92-5.29,3.91-8.41,4.9-1.4.44-2.9.67-4.43.67-8.59,0-17.41-6.86-22.33-13.67-1.43-1.98-1.36-4.33-1.29-6.21.01-.44.03-.81.03-1.13-.64.23-1.3.34-2,.34-1.75,0-3.44-.78-4.63-2.15-1.29-1.49-2.56-3.33-2.75-5.68-1.17,1.12-1.73,1.83-1.98,2.25l2.28,3.1c2.17,2.94-.28,5.76-1.33,6.96-.14.16-.33.35-.47.54-2.76,22.88-3.79,46.49-3.37,76.45.18,12.6-5.11,16.28-9.58,17.15-1.67.33-3.26.5-4.71.5-3.96,0-7.16-1.19-9.48-3.52-2.56-2.56-3.86-6.33-3.85-11.17l.08-39.2.34-42.23-1.29-31.02,1.12-31.43c.03-.81.06-1.64.07-2.48.13-5.07.27-10.81,2.43-16.43,1.61-4.2,6.81-5.7,11.12-5.7,1.97,0,6.85.34,9.64,3.44,4.03,4.46,5.21,9.45,6.35,14.29.16.65.31,1.3.48,1.97.51-.04,1.02-.07,1.53-.07,7.2,0,10.57,4.83,13.27,8.72,3.01,4.32,5.38,7.73,12.61,7.73h5.87l-2.08,5.46c-.42,1.1-.93,2.02-1.49,2.77,2.39-.68,4.76-2.38,6.21-4.59l4.33-6.57,2.77,7.36c.41,1.09.68,2.11.83,3.06,4.66-5.32,9.09-12.68,12.99-19.16l3.72-6.14,3.34,1.75c3.1,1.64,5,1.98,6.04,1.98.44,0,.82-.06,1.15-.18.38-.55.76-2.49,1.02-3.78.86-4.32,2.05-10.22,7.71-14.7,1.4-1.1,3.38-1.71,5.62-1.71,4.3,0,9.16,2.26,10.27,7.33,2.33,10.59,2.55,19.66,2.72,26.93.1,4.42.18,8.22.68,11.55,1.37,9.02.69,15.33.18,19.94-.27,2.59-.54,5.04-.04,5.76l.89,1.3-.62,4.27c-1.56,10.63-2.92,19.81.48,30.16Z"/>
      <path d="M188.61,128.34c.23-3.39.92-13.73,11.92-15.04.88-.1,1.72-.15,2.52-.15,10.93,0,12.23,10.29,12.73,14.16,1.93,15.34.86,39.74-.16,63.35-.38,8.84-.75,17.19-.94,24.77l-1.45,57.35c-.15,5.77-.37,14.52-11.92,16.39-1.09.18-2.15.26-3.12.26-3.37,0-6.09-1.05-8.1-3.16-4.58-4.78-4.23-13.38-3.74-25.29.27-6.34.56-13.49.14-21.03-.74-12.71-.66-24.92.26-37.34.57-7.75.29-15.56.01-23.1-.27-7.36-.56-14.97-.05-22.58l1.92-28.59Z"/>
      <path d="M632.89,183.41c-1.37,5.3-5.99,10.57-9.85,14.57-4.67,4.84-10.7,7.5-16.98,7.5-4.68,0-9.26-1.51-13.15-4.3-3.7,3.34-8.02,5.02-12.89,5.02-1.2,0-2.45-.1-3.72-.31-7.7-1.27-12.51-6.52-16.56-12.01-.14-.19-.76-.66-1.21-1-3.78-2.91-11.63-8.95-7.47-29.65.89-4.45,5.79-6.03,9.72-6.03,1,0,1.96.11,2.77.31,4.91,1.21,7.7,5.59,7.48,11.73-.22,6.03,2.66,13.64,7.72,15.44,1.41.5,2.95.77,4.57,1.05,3.29.58,6.91,1.22,10.06,3.95,2.33-2.28,4.95-2.67,7.16-3,.59-.09,1.19-.18,1.81-.31,8.96-1.85,11.62-10.74,11.17-17.77l-1-15.83c-.05-.77-1.91-2.34-3.02-3.29-.57-.48-1.14-.97-1.69-1.48-1.33.14-2.58.22-3.81.22-4.2,0-7.97-.9-11.55-2.74-.93.04-2.69.51-4.56,1.01-4.07,1.09-9.65,2.58-15.93,2.58h-1.1s-.65-.39-.65-.39c-19.06-11.17-20.05-17.6-20.34-29.95-.05-2.18-.1-4.44-.3-7l-.09-1.14c-.56-7.07-1.26-15.88,5.08-21.83l8.72-8.19c4.54-4.26,10.09-6.6,15.65-6.6,4.3,0,8.34,1.38,11.82,4.04,3.85-2.64,7.95-3.98,12.25-3.98,5.41,0,11.07,2.19,16.37,6.35,6.76,5.29,13.75,10.77,12.9,22.87-.03.39-.05.78-.07,1.18-.13,2.84-.32,6.71-3.78,8.98-1.84,1.21-3.91,1.82-6.12,1.82-1.76,0-3.58-.4-5.39-1.18-4.36-1.89-4.98-5.79-5.58-9.57-.07-.43-.14-.87-.22-1.33-.45-2.62-4.34-6.89-6.94-7.61-.94-.26-1.86-.46-2.75-.66-2.94-.66-5.95-1.33-8.81-3.76-.77.32-1.58.7-2.43,1.1-2.76,1.29-5.63,2.63-8.47,2.75-4.49.19-5.92,1.1-8.51,5.44-3.54,5.93-3.67,8.76-.55,11.23l4.22,3.34-3.87,1.21c.5.55.87,1.16,1.02,1.88.38,1.71.06,3.37-.2,4.7-.1.51-.25,1.25-.24,1.59.89,1.32,2.51,2.27,4.19,2.43l14.83,1.42c.07.01.14.01.23.01.74,0,1.99-.18,3.44-.39,2.48-.36,5.58-.82,9.08-.82,11.47,0,20.39,5.25,26.5,15.59,3.95,6.68,3.21,32.52,1.05,40.81Z"/>
      <path d="M927.17,184.73l.55,44.37-1.51,74.65-1.83,33.87c-.41,7.4-3.51,12.23-9.26,14.31-.92.34-1.98.51-3.13.51-3.68,0-7.67-1.71-10.16-4.37-2.15-2.31-3.18-5.17-2.99-8.28.74-11.08.45-21.92.18-32.41-.21-8.19-.44-16.67-.17-25.23l1.22-39.39c.11-3.96-.1-8.1-.31-12.1-.25-4.84-.52-9.84-.21-14.8l2.19-35.54c.45-7.19,7.29-10.46,13.46-10.46.57,0,1.1.03,1.61.08,6.37.69,10.25,6.23,10.35,14.79Z"/>
      <path d="M1238.6,312.51l1.57,24.84c.37,6.13-2.17,10.49-7.6,12.92-.87.4-1.89.68-3.02.82-3.62.46-7.74-.44-10.47-2.31-1.06-.73-1.9-1.58-2.52-2.52l-1.53-28.45c-.31-5.97,6.07-9.52,12.15-10.3.55-.07,1.09-.11,1.59-.13,4.35-.16,7.78,1.69,9.84,5.13Z"/>
      <path d="M1238.6,312.51l1.57,24.84c.37,6.13-2.17,10.49-7.6,12.92-.87.4-1.89.68-3.02.82-3.62.46-7.74-.44-10.47-2.31-1.06-.73-1.9-1.58-2.52-2.52l-1.53-28.45c-.31-5.97,6.07-9.52,12.15-10.3.55-.07,1.09-.11,1.59-.13,4.35-.16,7.78,1.69,9.84,5.13Z"/>
      <path d="M68.46,1.92c.94-1.68,3.3-1.92,4.61-1.92.97,0,2.75.13,3.89,1.06,5.19,4.22,6.98,8.64,8.72,12.9,1.15,2.8,2.22,5.45,4.26,8.17l.55.73-.2.89c-.48,2.13.27,3.15,1.77,4.92,1.13,1.34,2.5,2.96,2.73,5.33.17.02.37.03.59.03.64,0,1.14-.09,1.43-.18.41-2.33,1.34-3.88,2.15-5.26.42-.71.82-1.39,1.15-2.15l8.76-20.52c1.2-2.81,4-5.84,7.31-5.84,1.1,0,2.15.34,3.12,1.01,3.79,2.64-.34,14.63-3.09,18.98-1.94,3.06-3.36,7.54-4.74,11.88-2.38,7.49-4.82,15.19-10.38,18.13,1.56,2.95,1.43,6.08,1.29,9.12l-.02.43c-.13,3.27-.1,6.59-.08,9.8.05,5.94.1,12.08-.87,18.21-.36,2.25-2.82,3.7-6.25,3.7s-5.72-1.48-5.91-3.78l-.92-11.22-1-20.42c-.15-3.05-1.96-6.39-3.65-9.28-.08-.14-.35-.41-.56-.62-.8-.79-2.57-2.53-1.44-5.12l-9.99-26.42c-4.61-3.69-5.15-9.16-3.23-12.56Z"/>
      <path d="M930.25,18.8c-1.53,1.85-3.84,2.89-6.85,3.07l-21.44,1.31c-.52.03-.97.04-1.37.04h-.67c-.25-.01-.39,0-.48.01.53.69,1.15,1.7,1.06,3.05l-2.52,36.28-1.9,65.02c-.05,1.5-.71,6.39-7.42,6.39-.66,0-1.27-.05-1.67-.08-6.97-.58-7.85-4.7-7.9-6.44l-1.04-33.78.14-23.73-1.51-35.67-.03-10.23c0-.08-.01-.13-.01-.14-.67-1.27-7.94-1.52-11.45-1.64-4.89-.17-10.44-.37-15.13-1.64-3.06-.83-5.78-3.78-6.47-7.01-.53-2.47.2-4.74,2.01-6.22,4.29-3.53,9.7-4.01,14.91-4.01.75,0,1.49.01,2.22.01l23.78.26,20.09-1.05c.43-.03.85-.04,1.28-.04,2.27,0,4.5.3,6.64.59,2.09.28,4.07.55,6.03.55.32,0,.64-.01.95-.02.32-.02.63-.03.93-.03,7.81,0,9.32,5.17,9.61,7.38.41,3.24-.18,5.85-1.77,7.77Z"/>
      <path d="M1108.85,346c.13.18.27.35.42.52-1.1,2.28-3.78,4.83-10.18,4.83-2.26,0-4.25-.31-5.22-.5-9.04-1.75-9.14-11.85-9.17-15.17l-.35-40.28-.08-48.22,2.39-67.44c.23-6.71,7.43-10.29,12.54-10.29.37,0,.71.01,1.02.06,3.54.37,7.35,1.34,10.23,5.08,6.95-5.45,12.04-7.29,19.11-7.29,3.71,0,7.88.52,13.39,1.25,1.26.17,2.56.25,3.99.25,1.77,0,3.51-.13,5.34-.25,1.91-.13,3.88-.27,5.96-.27.82,0,1.66.01,2.52.07l20.44,1.23c7.23.42,12.54,4.26,13.52,9.75.76,4.26-.01,7.85-2.32,10.68-5.17,6.35-16.56,6.65-27.58,6.95-4.36.11-8.46.23-11.94.68-1.77.23-3.48.55-5.29.89-3.51.65-7.15,1.32-11.17,1.32-2.14,0-4.19-.18-6.27-.57-.85-.17-1.64-.24-2.38-.24-2.39,0-4.18.82-5.79,2.66l-4.39,5-2.38-6.21c-.27-.72-.51-1.36-.72-1.95.07,2.43-.3,4.8-.65,6.93l2.29.96c2.48,1.02,3.21,3.38,3.38,5.55,2.59.98,5.08,2.41,5.97,5.18.89,2.79.78,5.39-.34,7.56-.72,1.42-2.25,3.31-5.38,4.3-.23.08-.41.14-.55.21.23.65.67,1.61.99,2.32,1,2.18,2.36,5.09,2.39,8.38l42.9,5.28c3.75.47,6.26,4.16,6.51,9.64.2,4.51-1.2,10.13-5.83,11.15-13.88,3.03-29.97,3.74-41.72,4.26-2.6.13-5.36.24-7.73.4.28.14.54.28.75.41,1.97,1.22,2.79,3.55,2.9,5.19.13,1.75-.48,3.27-1.68,4.27-1.4,1.16-3.41,1.8-5.8,1.87l-2.25,48.8c-1.47,1.43-2.67,3.3-3.42,5.73-.95,3.1-.35,6.31,1.66,9.06Z"/>
      <path d="M1191.09,332.39c2.59,2.62,3.89,6,3.85,10.06-.06,6.37-5.79,11.35-13.03,11.35l-58.35-.64c-4.44-.04-10.83-2.38-14.28-6.65.61-1.23.75-2.39.78-3.03l.57-12.28c4.9-4.8,12.71-4.8,16.13-4.8,1.44,0,2.84.04,4.16.08.58.03,1.15.04,1.68.06,1.57.04,3.16.06,4.76.06,4.78,0,9.64-.16,14.32-.3,4.53-.14,8.82-.27,12.91-.27,10.5,0,20.97.76,26.51,6.35Z"/>
      <path d="M1067.81,267.9c1.33,15.3,2.69,31.12.18,45.99-.61,3.65-.69,7.5-.78,11.58-.16,7.47-.31,15.2-3.84,22.57-1.9,3.93-7.47,4.98-10.49,4.98-4.2,0-6.16-1.71-7.05-3.14-3.81-6.07-5.7-12.45-6.03-20.63-1.12.21-2.21.34-3.31.34s-2.19-.13-3.27-.4c-3.43-.86-5.28-3.64-6.62-5.68-.51-.75-.98-1.46-1.4-1.92l-1.49-1.54c-5.18-5.41-10.13-10.59-12.37-18.27-1.77.85-3.58,1.33-5.25,1.33-1.51,0-2.86-.37-4-1.1l-.91-.57-.5-.95c-2.15-4.06-.86-8.99,1.75-13.06l-12.88-6.3,5.93-3.85c1.16-.76,1.23-1.39,1.19-1.92-.17-2.84-4.56-7.98-11.34-11.29l-3.33-1.63,1.34-3.44c1.03-2.62,0-4.12-5.45-7.46-1.39.88-2.86,1.43-3.95,1.83-.25.1-.51.2-.76.3.34.78,1.05,1.88,1.43,2.49.48.76.93,1.49,1.27,2.21l.72,1.59-.67,1.61c-2.05,4.98-2.94,10.02-3.4,13.16.31.06,2.38.48,3.23.65l8.52,1.78-6.89,5.32c-4.01,3.1-4.15,6.74-4.05,14.01l.33,26.07-2.19,19.46c-.71,6.41-6.01,10.44-10.63,10.98-.41.04-.82.07-1.23.07-5.59,0-11.75-4.39-11.92-11.48l-.79-33.12c-.18-7.19-.33-13.32-.55-20.28l-.79-23.39-.24-42.6-.47-38.75c-.1-7.53,4.64-13.57,11.25-14.35.42-.06.85-.07,1.26-.07,6.07,0,9.72,5.15,11.65,8.8.57-.03,1.13-.04,1.68-.04,8.79,0,15.45,4.17,19.83,12.41.4.74,1.33,1.63,2.32,2.58,2.14,2.05,5.05,4.84,5.62,9.3.79,6.33,5.87,12.62,10.37,17.08l2.08-3.76,5.11,12.99c4.71.17,9.51.86,14.1,4.83l3.92,3.4-4.27,2.94c-2,1.37-3.92,2.11-5.45,2.59.69.79,1.53,1.66,2.24,2.41,1.6,1.7,3.4,3.58,5.07,5.69l4.02.72c.23-2.24,1.16-4.2,1.78-5.52.2-.41.47-.99.61-1.34-.99-3.86-.82-7.29-.64-10.91.04-.91.1-1.85.13-2.83l1.43-48.3c.28-9.38,6.17-12.2,11.27-13.61.85-.24,1.7-.35,2.55-.35,6.09,0,10.74,5.9,11.05,14.02l2.63,67.29c.23,5.92.75,12.03,1.32,18.5Z"/>
      <path d="M356.6,181.18c-.04-.27.23-1.22.4-1.77.33-1.12.73-2.52.67-4.06l-1.22-29.12c-.33-7.75-1.72-17.21-3.93-26.66-.85-3.61-4.13-5.86-8.55-5.86-2.19,0-5.21.57-7.17,2.2-4.67,3.91-5.46,8.8-6.03,12.36-.51,3.16-.79,4.16-1.81,4.78-.08.01-.25.03-.52.03-1.35,0-3.57-.49-6.1-1.35l-3.04-1.03-1.59,2.79c-2.03,3.59-4.82,7.29-7.5,10.89-1.42,1.9-2.89,3.86-4.23,5.77-.71,1.03-1.35,2.07-1.98,3.07-.03.05-.07.1-.1.15-.04-.14-.1-.27-.15-.41-.85-2.16-2.57-3.65-4.68-4.12l.93-.9-9.11-.36c-10.96-.42-14.44-5.62-17.49-10.22-1.81-2.7-3.67-5.5-6.94-6.34-.42-.11-.89-.16-1.35-.16-1.08,0-2.16.27-3.22.55-.18.04-.41.1-.63.15-.45-.97-.92-2.85-1.25-4.17-1.31-5.32-3.3-13.38-12.18-15.31-.74-.16-1.61-.25-2.57-.25-6.02,0-12.54,2.71-12.66,8.66l-1.23,65.7.63,93.57c.01,2.81,1.27,9.33,12.53,9.33h.81c3.52-.07,6.38-1.23,8.51-3.48,4.94-5.19,4.65-14.87,4.32-26.1-.16-5.42-.33-11.03.04-16.59l2.96-43.98c.12-.33.59-1.07.9-1.56.38-.63.89-1.44,1.35-2.38l13.11,7.02c.01,1.87.41,4.47,3.02,5.6l3.85,1.64c3.74,2.64,7.36,3.91,11.08,3.91s7.5-1.34,11.29-4.12c2.05-1.49,4.46-2.86,6.99-4.28,5.01-2.83,10.5-5.93,14.26-10.8.86,4.49.47,9.4.07,14.15l-.19,2.33.34.85c2.85,7.07,3.78,12.33-.3,16.61l-3.16,3.33,3.8,2.57c1.66,1.11,1.97,2.09,2,3.63l.6,44.32c.07,5.46,5.08,9.43,11.88,9.43,1.96,0,3.82-.36,5.36-1.04,6.87-3.01,7.13-11.18,7.23-14.26l1.92-60.32c.1-3.17-.07-6.4-.23-9.51-.37-7.16-.73-13.9,1.98-19.66l1.35-2.9-2.6-1.89c-.34-.25-.48-.42-.49-.44ZM264.6,191.12c.03-.23.04-.47.05-.7.15.21.31.4.48.59l-.53.11ZM279.35,153.52c.53-.99,1.71-1.33,2.71-.4l-2.71.4Z"/>
      <path d="M397.21,282.47c.26.77.56,1.46.9,2.11-1.41,2.18-4.2,4.21-9.67,4.21-.73,0-1.4-.04-1.96-.08-6.71-.55-11.76-6.35-11.76-13.51l.21-110.32v-4.83c-.04-14.07-.07-28.63,4.53-42.37,1.15-3.41,4.27-5.43,8.37-5.43s8.58,1.87,11.71,4.93c3.19-3.63,6.54-6.17,12.56-6.17h.59l56.3,1.52c5.51.14,9.67,3.64,11.22,6.81,2.23,4.61,2.22,12.88-3.64,15.78-6.16,3.07-13.22,4.69-20.39,4.69-1.75,0-3.52-.11-5.27-.29-.79-.1-1.61-.14-2.45-.14-3.19,0-6.27.6-9.54,1.25-3.23.63-6.55,1.27-9.99,1.3h-.42c-1.89,0-3.74-.1-5.51-.18-1.7-.08-3.3-.16-4.86-.16-4.91,0-8.1.85-11.04,2.94l-3.04,2.16c.47,3.34,2.09,4.98,3.98,6.91,2.49,2.52,5.57,5.65,5.05,11.88l-.3,3.5-3.52.04c-1.07.01-1.78.1-2.23.16.14.7.41,1.67.64,2.45.71,2.53,1.64,5.77,1.67,9.59l37.97,3.39c6.97.62,10.73,5.69,10.04,13.59-.75,8.81-10.28,9.44-13.41,9.65l-35.8,2.33c-.3.03-.62.03-.93.03-.7,0-1.44-.04-2.19-.08-.51-.04-1.01-.07-1.52-.08,2.12,1.96,4.56,4.98,2.78,8.53l-.52,1.04-1,.57c-.7.4-1.48.6-2.33.6h-.16l-2.19,47.31c-.29.22-.57.45-.86.7-3.78,3.26-3.28,9.96-2.04,13.67Z"/>
      <path d="M478.54,270.86c2.42,2.81,3.34,6.38,2.72,10.61-.81,5.43-7.05,9.85-13.92,9.85-.26,0-.52-.01-.78-.01-5.09-.23-10.04-.27-14.63-.27h-5.86c-5.12.01-11.08-.03-17.16-.41l-24.66-1.61c-2.55-.16-4.71-1.75-6.14-4.43,1.16-1.78,1.41-3.67,1.45-4.6l.55-11.88c4.67-3.63,9.57-4.12,13.36-4.12,1.63,0,3.23.1,4.79.19,1.38.08,2.68.16,3.97.18.86.01,1.72.01,2.59.01,4.3,0,8.73-.11,13.01-.22,4.31-.11,8.36-.21,12.32-.21,11.65,0,23.14.83,28.4,6.92Z"/>
      <path d="M828.38,10.76c-4.87-4.33-10.78-6.71-16.64-6.71-4.85,0-9.35,1.58-13.14,4.61-4.01-3.35-8.31-4.92-13.38-4.92-1.16,0-2.4.08-3.69.25-4.9.62-8.75,4.38-12.47,8.01-.47.46-.95.93-1.44,1.4l-11.65,11.17-2.42,83.83c-.16,7.11,3.72,13.1,11.23,17.35,3.91,7.28,11.99,12.11,20.43,12.11,4.66,0,8.97-1.47,12.46-4.25.66.96,1.56,1.64,2.7,2.04,3.35,1.18,6.69,1.77,9.94,1.77,9.15,0,17.34-4.71,23.08-13.26.51-.75,1.13-1.53,1.79-2.36,2.23-2.79,5.01-6.28,5.16-11.33l.89-30.66c.12-4.1.03-8.05-.07-11.87-.13-5.6-.26-10.88.23-16.64,1.71-20.19,2.28-26.98-13-40.54ZM821.2,80c-.08,2.52-.16,5.07-.22,7.66-.04,1.81,0,3.67.04,5.45.12,5.74.24,11.16-2.09,15.46-4.38,8.04-9.32,8.92-13.67,9.69-2.92.51-6.39,1.13-8.03,4.41-.52-.69-1.1-1.34-1.72-1.94-2.33-2.25-6.16-3-9.54-3.66l-.19-.04c-5.02-.97-10.22-6.77-10.31-11.49l-.33-17.8c-.08-4.16-.28-8.04-.47-11.8-.2-4.05-.41-8.23-.48-12.79l-.33-24.17c-.04-3.04,1.56-5.16,3.59-7.83.45-.6.91-1.21,1.36-1.84l3.24-4.53,16.31-1.61.44-2.01c.12-.52.24-.98.37-1.38,2.97,3.65,7.63,4.45,10.74,4.98.54.1,1.19.21,1.7.32l-.52,3.57,2.78.43c4.86.75,7.77,2.39,7.3,18.77-.07,2.8-.16,5.71.02,8.37.53,8.03.28,15.69.02,23.8Z"/>
      <path d="M748.49,81.26l-1.39-1.95c-2.88-4.05-2.41-8.23-1.87-13.08.31-2.74.62-5.59.34-8.58l-1.28-13.47-1.59-33.24c-.19-4.03-3.83-6.82-9.5-7.29-.34-.03-.7-.05-1.09-.05-4.86,0-8.12,2.58-8.31,6.58l-1.33,28.73c-.04.93-.03,1.83-.01,2.71.04,2.96,0,4.85-1.37,6.61-1.04,1.35-1.04,3.61-.72,5.02l-4.01-1.28c-9.21-2.96-8.72-8.46-8.56-10.27l.48-5.38-4.71,2.65c-1.13.64-1.85.77-2.26.77-.28,0-.81,0-1.41-1.13l-6.95-13.06c-5.46-10.24-8.71-15.11-12.45-15.11-.23,0-.46.02-.69.06-1.02.17-1.88.6-2.63,1.18-.81-2.17-1.88-4.22-3.88-5.63-2.04-1.46-4.71-2.32-7.1-2.32-2.97,0-5.37,1.26-6.79,3.57-2.04,3.35-2.04,23.47-1.76,29.4l.48,10.39-.52,54.84.96,20.71c.25,5.28,2.68,8.88,6.52,9.61,1.18.23,2.21.34,3.17.34,4.71,0,6.56-2.87,7.25-4.58,2.1-5.25,1.97-10.42,1.85-15.41-.07-2.45-.12-4.77.07-7.08.62-7.3,1.08-13.96.41-21.46-.17-1.87.15-4.02.48-6.28.3-2.09.62-4.23.59-6.36,1.16-.49,2.34-1.24,3.01-2.32.57-.94.69-2.06.31-3.06-.15-.41-.32-.76-.49-1.13,1.06-.41,2.17-1.15,2.92-2.48.06.13.11.26.16.39,1.25,3.18,2.44,6.17,2.05,9.17l-.2,1.53,1.17,1c.17.14.34.27.52.39-.13.71-.06,1.43.22,2.09l1.43,3.35c1.22,2.84,3.21,3.15,4.01,3.15s1.46-.24,2.02-.67c.34,1.51.32,3.32.24,5.51-.13,3.35-.26,6.81,2.16,9.35,1.42,1.49,3.48,2.34,6.25,2.59l3.99,6.52c3.21,5.24,6.73,9.16,13.18,11.04.54,1.49.78,3.12,1,4.7.5,3.56,1.13,7.97,5.89,10.1,1.42.63,3.09.97,4.7.97,3.12,0,5.63-1.3,6.91-3.59,2.69-4.79,5.41-28.29,4.9-37.66l2.01-3.82-1.89-3.79c.35-.7,1.13-1.48,1.43-1.78l1.69-1.7ZM683.24,54.42c-.11.65-.24,1.38-.26,2.14l-1.09.28c-.96.25-1.78.39-2.42.41.48-1.71,1.08-3.99.67-6.12,1.95.51,2.67,1.15,3.26,2.24-.02.27-.1.72-.15,1.04ZM721.16,57.31c-2.34,1.43-4.14,3.64-5.53,5.61-.76-.49-1.31-1.15-1.44-1.51.07-1,.91-2.74,3.09-4.55l3.36-2.75c.24.53.6.97,1.02,1.29-.23.67-.38,1.31-.49,1.91Z"/>
    </g>
  </g>
</svg>