<?xml version="1.0" encoding="UTF-8"?>
<svg id="Livello_2" data-name="Livello 2" xmlns="http://www.w3.org/2000/svg" viewBox="0 0 1242.58 383">
  <g id="Livello_1-2" data-name="Livello 1">
    <g>
      <g>
        <path d="M429.77,292.45c.05-13.75-.76-27.67-1.54-41.3-.47-8.25-.56-16.75-.8-25.13-.15-3.75-.23-5.63-.39-9.38-.18-4.34-.25-8.18-.24-12.39.05-14.17.08-28.34.08-42.51,1.66.3,2-.89,2.08-1.66.06-.63-1.5-1.52-1.52-2.15-.16-6.38-.25-9.57-.42-15.95.31-23.53.56-47.05.76-70.58-.12-4.58-.18-6.87-.3-11.45-.14-5.25-1.61-10.56-.28-16.32.5-2.18-.99-4.4-2.45-4.49-3.04-.2-1.2-5.86-2.13-7.54-.29-.52-1.47.46-2.22.24-1.04-.31-3.14-2.81-4.44-1.2-2,2.48-1.99,7.3-2.83,10.8-2.69,11.38-5.44,22.73-8.27,34.05-1.08,4.33-2.42,7.99-3.44,12.21-3.01,12.55-6.09,25.07-9.24,37.55-2.68,10.86-5.33,21.78-7.66,32.77-.41,1.95-2.03,3.58-1.92,6.86-1.79-3.45-1.62-6.94-2.47-10.8-2.94-13.18-5.88-26.36-8.82-39.54-1.06-4.75-1.87-9.02-1.89-13.83-.55-2.49-4.89-6.27-6.76-5.69-2.3.71-4.49,2.25-7.33,2.98-7.08,1.83-14.2,3.58-21.35,5.25-.92-1.3-1.74-2.11-3.2-1.92.78,3.39-.3,5.11-1.17,7.59-.49,1.4,1.94,2.84,2.93,2.93,2.35.21,3.52.32,5.87.52-.83,2.33-.06,4.14-.17,6.07-.83,14.47-1.67,28.95-2.52,43.42-.16,2.65-.04,4.86-1.69,6.41.71.77,1.21,1.94.97,2.3-.46.68-.69,1.02-1.16,1.7-.64,17.56-1.29,35.12-1.96,52.68-.27,13.2-.55,26.4-.84,39.6-.06,2.69,2.79,7.07.08,9.6-2.2-2.3-5.01-2.18-7.34-3.15-2.81-1.17-4.21-1.76-7.02-2.95.17-4.35.26-6.53.43-10.88-.14-8.51.02-16.95.18-25.4.43-23.74.82-47.49,1.9-71.22.43-7,.85-14,1.28-21,.6-7.54,1.12-14.86,1.23-22.47.36-2.48.53-3.71.89-6.19-.77-2.38-2.82-3.66-4.56-4.76-4.67,3.13-10.97,2.74-15.6,4.04-4.59,1.28-9.46,5.05-14.52,5.83-.96.15-1.84,3.46-1.12,4.38,2.17,2.81,5.15,2.46,8.29,1.67,1.12,4.61-.35,8.91-.67,13.4-.52,7.61-1.05,15.23-1.59,22.84-.27,8.72-.54,17.43-.81,26.14-.18,9.08-.37,18.17-.56,27.25.09,14.64.18,29.27.27,43.91.29,5.69.43,8.54.71,14.25-2.27.25-4.47.3-4.76,3.93,3.04-.92,5.24-.09,7.83.12,5.35.42,10.69.82,16.04,1.18,6.05.3,11.95.4,17.81-.3,1-.12,2.2.97,2.63,1.62.55.84.5,2.76-.23,2.82-.84.07-1.25.11-2.09.18-5.82,4.23-8.96,3.39-7.82,7.92,4.35.03,6.52.03,10.88.02,6.92-.25,13.83-.58,20.72-.97,1.81-.1,4.5-.44,4.89-3.43-4.25-4.79-10.98-2.91-9.42-9.65,1.25-5.39,1.95-10.71,2.08-16.49.19-8.18.38-16.36.56-24.54.39-10.52.78-21.04,1.15-31.57,1.39-14.47,2.75-28.94,4.1-43.42,3.06,9.33,6.14,18.68,9.25,28.07,1.04,3.14,2.27,5.7,3.29,9.22,2.55,8.88,5.11,17.79,7.68,26.72.8,2.79,1.66,5.31,3.68,6.59,1.33.84,2.83-.61,4.53-2.4-.17-3.81-.26-5.71-.44-9.52-.16-3.35-.62-6.92,1.16-9.14,4.87-6.07,5.5-21.32,7.5-30.92,1.55-7.1,3.08-14.2,4.59-21.31.88-4.12,2.34-7.33,3.31-11.15,3.72-14.83,7.38-29.68,10.97-44.57-.52,7.99-1.06,15.98-1.6,23.96-1.1,22.29-2.27,44.57-3.49,66.85-.41,10.6-.83,21.2-1.27,31.79-.15,5.93-.23,8.9-.38,14.83-.19,6.79-.39,13.59-.59,20.38,0,1.39,1.3,2.12,1.51-.49,1.72,3.86-2.65,4.1-1.4,8.43.2.71.92,1.35,1.81,1.23-.8,1.61-1.2,2.41-2,4.01.03,6.76.06,13.53.09,20.29,0,2.8-.88,5.64.12,8.77-1.48.92-2.22,1.38-3.7,2.29-4.94,6.38-9.25-.32-9.5,6.91,2.64,2.02,5.81,1.21,8.67,1.03,1.4.55,2.09.82,3.49,1.36,3.45-1.11,5.17-1.68,8.62-2.84,9.31-1.11,18.61-2.4,27.89-3.86,1.87-.3,3.6.31,4.08-2.48.94-5.43-11.09-7.03-14.99-8.85ZM406.49,262.28c-.22-.23-.33-.35-.55-.58.23-.4.35-.59.58-.99.14.45.21.68.35,1.13-.15.18-.23.27-.38.45Z"/>
        <path d="M486.81,257.1c10.41-2.62,20.8-5.54,31.11-8.76,1.22-7.12,2.42-14.24,3.59-21.37.94-7.2,1.85-14.4,2.75-21.6.29-2.34-.9-8.61,1.55-9.32,2.98-.86,3.35,5.79,3.04,9.2-1.49,16.32.48,33.19,1.56,49.49.35,5.24-.7,10.86,1.93,15.59-1.08.8-1.62,1.2-2.71,1.99-.9.66-.54,3.34-.5,4.93.03,1.31-1.18,1.59-1.69,1.11-1.34-1.22-1.07-3.8-1.88-4.81-.77-.96-1.7-.15-2.67-.05-11.67,1.04-23.31,1.88-35,2.54-13.55.46-27.34,1.65-40.38,6.49-.58.22-1.39,1.85-1.8,1.57-.84-.56-1.26-.84-2.1-1.41-2.62-1.76-8.48,3.78-10.73-3.59,3.66-2.08,6.74-3.38,9.54-7.19-1.29-12.24-1.76-24.88-1.87-37.22-.32-16.36-.66-32.71-1.03-49.07-.06-2.51-2.55-6.15.35-7.57.27-25.34.46-50.69.58-76.03.06-15.05.11-30.1.13-45.15,0-3.43-.67-6.5.34-10.75-3.07-.66-4.61-1-7.68-1.69-1.04-.23-1.2-2.81-.87-3.97.44-1.51,1.85-2.07,3.39-1.71-.27-1.06-.4-1.59-.67-2.65-.67-2.64,3.82-1.14,7.02-6.21,5.72-2.07,11.32-4.45,16.88-6.94,17.34-7.77,34.88-14.68,52.71-20.54,1.24-.64,2.38-2.87,3.96-2.33,2.72.93,4.56,7.4,4.32,8.04-.6,1.65-.9,2.47-1.51,4.12-.3,7.33-.45,10.99-.77,18.3,0,11.76-.01,23.5-.06,35.24-.01,2.87.82,5.82-.99,8.1-.97,1.23-2.27.31-3.02-.3-1.18-.98-1.66-3.06-1.76-5.35-.5-10.89-2.39-23.81-6.07-33.75-2.16-5.82-5.28-6.05-9.35-4.92-9.41,2.6-19.84,5.53-28.74,10.95-.21,14.45-.44,28.91-.7,43.36-.21,7.91-.43,15.81-.67,23.71-.07,2.43.18,4.47-1.42,6.25.76.83,1.49,2.06,1.3,2.56-.44,1.13-.66,1.69-1.1,2.81-.16,5.74-.46,11.55.27,17.09.35,1.87,3.1.92,4.23.64,6.67-1.7,13.3-3.49,19.89-5.38,1.1-7.26,1.64-10.91,2.72-18.21.33-2.23,1.87-5.32,3.25-4.03,2.16,2.02,1.25,6.18,1.3,9.23.24,14.1.44,28.19.6,42.29.05,4.56,1.31,9.51-.07,13.87-.77,2.42-4.1,1.33-4.62-1.39-1.37-7.25-2.05-10.86-3.42-18.09-.98-5.15-3.86-5.35-7.06-4.69-5.14,1.05-10.3,2.04-15.48,2.99.34,12.44.66,24.88.96,37.32.33,17.25.65,34.54,1.84,51.47.44,6.2.77,11.83-.22,18.69,5.86-1.23,11.7-2.53,17.51-3.89Z"/>
        <path d="M337.49,35.5c-.29-5.7-.69-11.22.97-16.53.58-1.86,2.74-4.15,1.56-6.69-.61-1.33-2.29-3.32-3.27-3.91-1.97-1.17-3.41,2.28-4.55,3.4-4.41-.16-8.83-.35-13.24-.56-4.95-.35-9.88-.84-14.81-1.53-5.23-.67-10.45-1.37-15.67-2.08-5.66-.78-11.31-1.58-16.95-2.39-11.65-1.46-23.27-2.66-34.95-3.62-5.81-.37-11.62-.76-17.43-1.16-7.26-.2-14.35.28-21.54,1.98-1.5.35-2.9,2.01-4.72,1.53-1.93-.5-3.51,1.01-5.2,1.42-2.76.67-5.55,1.52-7.07,4.99,8.47,3.48,17.21,4.55,26.02,5.95,4.05.64,7.85,1.63,11.95,1.94,9.26.69,18.66,3.19,27.77,5.61-.14,3.68-.21,5.52-.35,9.2.41,7.01.08,14.77-.71,21.72-1.36,11.92-1.63,24.22-2.09,36.29-.61,11.01-1.22,22.01-1.83,33.02-.15,2.72-.7,3.94-.69,7.25.02,4.72.03,7.08.05,11.8,0,.67,1.09,1.75.54,2.62-.24.39-.44.91-1.35,1.31,2.66,2.82,1.15,5.12.91,8.21-.53,6.73-1.07,13.46-1.6,20.19.36.71.54,1.07.89,1.78.12.24-.56.89-.9,1.26.35,1.88.52,2.82.87,4.71-1.48.97-2.22,1.45-3.7,2.42.65,1.36,2.2,2.2,2.24,3.06-.23,6.51-.46,13.01-.69,19.52-.03.81,1.3,2.79,1.89,2.67.46-.1,1.08-1.56,1.66-2.42,1.11,2.73.93,6.42-.46,8.54.06-2.79-1.68-3.13-1.91-1.11.22,7.21.33,10.82.55,18.04-5.11.11.98,3.34.52,6.37-.13.85-1,1.28-1.72,2.17-.44.54,1.67,2.47,1.75,3.34.36,4.26.54,6.4.9,10.67.22,2.56-.56,4.21.28,7.5-2.79-2.09-3.55-1.57-5.22-1.79-12.31-1.64-24.81-2.64-37.24-3.36-1.53-.09-5.55-2.52-5.5,1.31.06,4.17,4.41,8.05,7.88,7.96,1.92,3.41,4.16,4.83,7.03,4.57,3.58,1.52,7.03,2.03,10.65,2.6,3.4.54,5.1.81,8.5,1.34,5.07.79,9.81,1.32,14.85,2.25,11.6,2.11,23.21,4.16,34.83,6.16,3.64.24,5.46.36,9.11.58-4.33-1.71-6.49-2.56-10.81-4.28,7.28-.74,14.45,1.65,21.58,3.56-1.12-3.97-4.21-6.11-7.11-6.34-3.57-.27-6.52-2.15-9.72-3.81-4.24-2.19-12.05-3.69-13.69-9.41-.61-2.13,1.12-3.29,2.28-4.29-.03-5.9-.04-8.84-.07-14.74.72-13.64.57-27.53.51-41.12-.05-12.34.69-24.94,1.51-37.29.54-9.3,1.07-18.6,1.61-27.9.8-8.17,1.6-16.34,2.4-24.51.62-9.92,1.24-19.83,1.85-29.75.36-5.81,1.74-11.03,2.28-16.66.65-6.76.97-10.14,1.62-16.91.34-4.21.5-6.31.84-10.52.13-1.61-.65-5.47,1-6.43,14.18,4.37,28.22,9.29,42.22,14.51.83.31,2.33-.85,2.72-.25,2.88,4.47,3.1,12.93,5.49,18.59.74,1.75,2.93-.82,3.25-2.14.15-.6,1.93-.85,2.12-1.42.19-.57-1-1.77-1.05-2.57-.19-2.87-.29-4.3-.48-7.16,1-.37,2.48-.7,2.61-2.36.12-1.59-1.16-2.82-1.6-3.99-.94-4.18.04-8.53-.19-12.89ZM239.69,185.62c-.3-.25-.44-.37-.74-.62.33-.34.49-.5.81-.84.12.44.18.66.31,1.1-.15.15-.23.22-.38.37Z"/>
        <path d="M294.55,93.88c-4.05-4.48-4.29-12.57-1.56-18.36,1.37,1.59.71,3.28.9,5.17,1.73-3.47,2.59-5.22,4.32-8.72-1.41-.19-1.87.71-2.82,1.62-.39-3.12,1.49-3.53,2.52-4.73,3.1-3.6,6.35-4.1,10.22-4.12,2.89-.01,3.6,1.59,5.67,3.23,3.21,2.53,6.14,5.75,6.58,11.25.53,1.07.8,1.61,1.33,2.68.44.88-1.06,2.06-1.25,2.74-1.44,6.79-5.31,11.8-9.98,13.94-5.46,2.51-11.47.23-15.92-4.69Z"/>
        <path d="M382.07,68.84c-6.51-1.97-16.19.63-22.07-4.21-.62-.51-.55-2.06-.33-2.63.26-.64.94-1.68,1.78-1.67,6.09.11,11.91-2.6,18.17-.22,3.61,1.38,6.87,4,8.51,9.54-2.17,1.77-3.94-.18-6.05-.82Z"/>
        <path d="M222.42,124.39c-1.25-2.18.16-3.97,1.47-5.21,1.53-1.45,3.65-.83,4.62,1.04,1.08,2.1.82,5.24-.67,6.5-1.5,1.27-3.87.38-5.42-2.34Z"/>
        <path d="M543.24,281.93c-1.75.43-2.49-2.68-2.46-4.35.03-2.12,1.15-4.05,2.98-3.77,1.23.19,1.51,2.24,1.51,3.62,0,1.4-.31,4.07-2.03,4.5Z"/>
        <path d="M201.74,147.51c-1.61-.02-2.04-2.11-2.07-3.22-.04-1.44.77-3.34,2.18-3.04,1.42.3,1.79,2.05,1.77,3.17-.02,1.16-.34,3.1-1.87,3.08Z"/>
        <path d="M207.01,157.22c-.31-1.8.06-3.41.57-4.13.43-.62,1.72-1.32,2.7-.33,1.05,1.06.89,3.7.11,4.66-.67.83-3.17.99-3.37-.2Z"/>
        <path d="M226.01,233.71c-.06,1.19-.88,1.94-1.83,1.69-.95-.25-1.67-1.42-1.61-2.6.06-1.18.88-1.94,1.83-1.69.95.25,1.67,1.41,1.61,2.6Z"/>
      </g>
      <g>
        <path d="M18.45,237.56c1.08.6,1.07,1.43,1.3,1.95.59,1.28-1.11,2.35-1.62,1.36-.99-1.92-.2-8.52-.2-8.52,0,0,.66-.28.89-.26,1.28.09,1.59,4.3-.38,5.48Z"/>
        <path d="M195.79,197.79c-1.38.12-1.84-1.63-1.92-2.58-.1-1.22.5-2.92,1.72-2.78,1.22.14,1.62,1.6,1.66,2.57.04.99-.14,2.68-1.45,2.79Z"/>
        <path d="M21.51,204.47c-1.51,2.8-.1,6.28-1.18,7.28-.36.33-1.53.11-1.51-.86.03-2.04.04-3.06.07-5.11.01-.87.47-1.31.69-1.67.41-.66,1.92-.22,1.93.37Z"/>
        <path d="M200.74,205.65c-.35-1.51-.11-2.92.29-3.58.34-.57,1.41-1.27,2.29-.5.94.82.93,3.09.31,3.97-.54.76-2.66,1.11-2.89.11Z"/>
        <path d="M220.56,269.42c0,1.02-.66,1.73-1.49,1.6-.82-.14-1.5-1.07-1.5-2.09,0-1.02.66-1.73,1.49-1.6.82.13,1.5,1.07,1.5,2.09Z"/>
        <path d="M18.42,225.49c.68.15,1.03.22,1.71.37-.22,1.38-.34,2.08-.56,3.46-.68-.15-1.03-.23-1.71-.38.22-1.38.33-2.07.56-3.45Z"/>
        <path d="M18.6,229.66c.62-.2.98.09,1.09.32.25.49.1,1.38-.29,1.48-.37.09-1.29.03-1.49-.37-.17-.34.11-1.23.7-1.42Z"/>
        <path d="M195.45,97.42c-.43,1.21-.65,1.81-1.08,3.01-1.08-1.32-.76-2.08-1.05-3.72-2.35,2.01-4.31,1.21-6.65,1.64-6.49,1.19-12.99,2.36-19.51,3.51-.91.16-2.88-2.14-3.89-.57-1.37,2.14.02,5.75,2.01,6.93,3.3,1.95,6.32,1.61,10.45,1.09-1.71,5.33-2.42,9.94-3.21,15.09-.61,1.86-.91,2.79-1.51,4.64-.64,5.26-1.28,10.52-1.92,15.77-.89,5.49-1.77,10.99-2.66,16.48-.63,3.91-.82,8.39-2.06,11.95-1.48,4.26-2.6,7.97-3.03,13.36-1.5-3.25-1.9-6.41-4.57-8.28-2.48-6.29-4.94-12.55-7.4-18.78-1.84-4.53-3.84-8.88-5.59-13.44-1.88-5.06-3.75-10.09-5.62-15.1,2.53-1.38,3.79-2.07,6.31-3.46,1.26-.69,2.8-.81,3.44-1.87.68-1.12,1.1-3.64.12-4.73-.93-1.02-3.25-.75-4.43-.32-4.84,1.75-9.85,2.75-14.87,3.78-1.97.41-4,2.41-6.18.67.72-7.98,1.45-15.96,2.19-23.94.66-5.89,1.61-11.94,1.68-17.82,4.32-1.64,10.76-3.24,12.92-6.28.13-.19,0-.84-.21-.93-.23-.1-.81-.02-1.33.38-.75,1.18-2.04-.29-.55-.93,1.75.14,3.8-2.4,3.15-3.96-4.88-2.14-11.21,2.59-15.59-.38,3-1.07,5.65.01,8.6-1.94-3.53-.58-7.58.82-11.1,1.55-3.22.66-6.52.81-9.8,1.68-4.07,1.08-6.11,1.63-10.19,2.72-1.71.46-2.61,2.51-3.96,3.75.07-1.39-.01-2.84-.85-3.44-.47-.34-1.51.19-2.24.67-.49.33-1.56,1.1-.53,2.05.41.38.97.57,1.09,1.08.11.46-.09.91-.31.96-.24.05-.98.01-1.81-.09.35,2.59-1.97,4.36-2.63,6.35-4.91,14.99-9.3,30.45-13.09,46.01-.36,1.47-1.22,2.52-1.52,3.84-1.44,6.38-2.87,12.76-4.3,19.13-.49,2.18.06,4.46-1.02,6.71-1.07-1.61-.59-3.6-.92-5.53-2.12-12.38-4.22-24.77-6.29-37.17-.28-1.68-1.15-2.96-1.52-4.87-1.08-5.54-1.62-8.3-2.69-13.8-1.51-.52-2.59-1.39-2.51-3.37.11-2.79.17-4.18.29-6.97.05-1.19-1.92-2.7-2.72-3.24-1.73-1.18-3.63.75-5.22,1.09-6.68,1.42-13.33,3.29-20.11,5.71-.1.76.66,1.11,1.07,1.21-5.64,2.5-11.37,2.78-16.81,2.31-1.24-.11-2.28,1.15-2.31,2.14-.03,1.06,1.15,1.25,1.96,1.72-3.93,1.54-5.91,2.32-9.86,3.89-.31,2.14-.65,4.14-1.9,6.18,2.86,1.95,9.85.46,10.81,4.3.09.34.66,1,.99,1.01.3,0,.83-.87,1.23-.98,2.61-.73,3.91-1.1,6.5-1.82,1.73-.48,3.5.11,5.49-1.21,1.24,3.33-.24,6.39-.56,9.71-.77,8.14-1.53,16.29-2.26,24.43-.38,4.28-1.61,8.49-.37,12.35.33-1.17-.14-2.49,1.17-2.93-.55,8.17-1.08,16.34-1.6,24.52-.12,2.32-.18,3.48-.3,5.8-.2,5.58-.39,11.16-.57,16.74-.5,13.81-.96,27.61-1.37,41.42-2.2.27-2.89,1.93-3.57,3.02-1.18,1.92.51,3.36.87,4.78-.13,8.71-.23,17.44-.3,26.17.12,2.11.18,3.16.3,5.27-4.43,3.55-8.88,7.09-13.36,10.63-1.8,1.43-4.44,1.39-4.74,5.05,4.58-.85,9.32.55,13.63-1.71,1.63-.86,3.01.06,4.28.5,5.17-1.29,7.76-1.93,12.92-3.19,2.93-.62,4.4-.94,7.33-1.55,6.92-1.41,13.81-2.82,20.69-4.21,1.66-.33,3.64-.27,3.85-2.74-4.36-.74-8.73-1.45-13.1-2.14-3.88-.6-5.81-.88-9.69-1.44.03-1.91.05-2.86.09-4.77-1.6,1.48-.43,5.51-1.97,2.32.17-3.29-.1-6,.55-8.96,1.48,2.15-.11,4.05,1.05,6.65,1.49-3.18.94-6.99,1.07-10.77.14-4.35.21-6.52.37-10.86.06-1.69-.14-2.82-.02-4.61.22-3.18.33-4.76.55-7.94.04-.58-.71-1.3-.62-1.71.09-.43.94-1.22.95-1.71.16-5.2.33-10.39.51-15.58.07-2.02-.14-3.06-.36-4.89-.62-5.31,1.77-12.38.56-17.81-.52-2.33.16-3.39.4-5.67.32-3.02.2-5.93.87-9.05.74-3.47.4-7.28.73-10.87.98-10.83,2-21.65,3.06-32.47.5,1.49,1.26,3.01,1.56,4.48,1.55,7.71,3.13,15.45,4.74,23.22,2.08,11.68,4.19,23.34,6.35,35,.33,1.75.69,3.17,1.07,4.79,2.03,8.61,3.03,18.1,4.43,27.19.72,4.64,1.15,9.07,4.99,12.37,2.1-4.79,2.27-10.21,4.5-14.68.51-10,2.5-20.35,4.39-29.91,1.63-8.22,3.28-16.64,5.08-24.94,1.15-5.21,1.73-7.83,2.89-13.06.52-2.35,1.43-3.88,2.03-5.98,1.06-3.72,1.59-5.58,2.65-9.31,1.08-3.8,1.96-7.65,2.82-11.42.63-2.76.84-5.55,2.33-8.34.93,4.51.3,8.94.2,13.85-.4,20.56-.73,41.13-.99,61.7-.19,13.48-.36,26.96-.5,40.43.1,5.49.15,8.23.27,13.72-.04,6.21-.06,12.43-.08,18.65,0,2.36.96,6.73-.98,8.11-2.34,1.67-4.75,3.66-7.45,4.67-2.02.76-5.27-.94-6.73,2.25,1.91.76,4.78,2.63,6.69,2.4,2.84-.34,4.26-.52,7.11-.86,2.12-.25,3.75.41,5.63,1.88,1.25-.66,2.94-1.56,4.67-1.43,6.05.48,12.07,1.01,18,.5,6.45-.56,10.16.74,12.04-.9.23-.2.74-3.97-.11-4.49-3.97-2.47-8.58-1.99-13.18-5.49-.41-7.12-.81-14.24-1.21-21.35-.51-9.5-1-18.99-1.48-28.47-.31-8.49-.6-16.97-.87-25.45-.32-17.14-.09-34.01.86-51.11.77-9.44,1.55-18.88,2.34-28.32,1.32-.34,2.09-.4,3.38-.15,1.42,5.29,3.65,10.21,5.71,15.04,4.32,10.81,8.65,21.62,12.99,32.43,3.53,8.21,7.08,16.46,10.67,24.77.36.84,1.66,1.99,1.65,3.09-1.35,6.6-2.31,12.9-3.08,19.61-.8,7.86-1.59,15.71-2.39,23.57-2.23,14.44-4.45,28.88-6.67,43.32-.82.89-1.23,1.34-2.04,2.22-.79,3.51-1.19,5.26-1.98,8.76-1.62-1.08-2.34-.19-2.91.72-.49.79-.45,1.74-.1,3.15-1.77.59-3.19,2.77-5.32,2.42-1.69-.28-3.17-1.18-4.13.48-.46.8-1.46,2.27-.28,3.81,2.03,2.65,7.43-1.2,11.34.2.48.17,1.63,1.98,1.74,1.64.26-.77.39-1.15.66-1.91,3.66-.57,5.49-.86,9.15-1.44,2.52-.4,4.44-.4,7.03-.47,4.6-.12,6.9-.18,11.52-.3-.08-2.01-.11-3.02-.19-5.03-.08-2.24-5.68-.4-10.22-3.11,2.55-3.85-2.62-9.79,2.08-6.83-.21-3.58,1.68-6.61,1.84-10,.76-15.73,3.48-31.3,7.35-46.19.73-2.83,1.54-5.22,2.16-7.99,1.4-6.29,2.79-12.59,4.18-18.89,1.28-.68,1.77-2,.75-3.84,1.13-5.48,2.25-10.97,3.37-16.45,1.79-10.02,3.57-20.04,5.33-30.07.58-2.73.87-4.09,1.45-6.83,3.49-18.21,6.34-36.43,8.09-54.89.23-2.44,2.64-4.76.58-7.76ZM11.48,294.37c-1.26.71-2.54,1.34-4.74,1.36.79-1.89,2.66-2.97,4.58-3.58.38.75.33,1.89.15,2.22ZM99.56,213.08c-.5-2.74-.49-5.12-.47-7.58.03-3.56.05-5.34.09-8.89-.01-7.42-.35-14.81.5-22.3,1.65,3.53.82,7.02.76,10.47-.13,7.25-.24,14.51-.34,21.76-.03,2.25,1.19,4.57-.54,6.54ZM117.9,241.13c.32,4.35-.26,7.81.71,12.19-1.86-2.16-1.46-8.15-.71-12.19Z"/>
      </g>
      <g>
        <path d="M803.01,239.47c-.43-.71-1.22-2.71-1.78-2.9-.4-.14-1.39-.55-1.6,0-.15.41.08,1.49.19,2.38-5.67-1.21-8.5-1.82-14.15-3.04-5.03-.68-7.54-1.02-12.54-1.71-1.18-.16-2.3-.97-2.67-2.04-.21-.6-.59-1.96-.56-2.86.28-7.88-.43-16.01-.92-24.13-.6-15.47-1.18-30.94-1.76-46.42,0-5.79.02-8.69.03-14.48.01-4.08,1.15-7.88-1.09-12.36,1.88-2.28.53-5.54.67-8.23.52-10.36,1.04-20.71,1.57-31.07.42-9.83.57-19.74,2.09-29.41.54-3.42-1.19-9.97,1.54-11.41,2.31-1.22,3.47-1.84,5.78-3.07,1.57-.84,6.04-.8,6.09-3.73.05-3.18-3.79-2.32-5.39-2.51-5.86-.69-12.66-.1-18.46,1.44-4.06,1.08-8.68.51-12.38,2.54-1.48.81-2.51,2.05-4.48,1.92-.48-.03-.43,2.31.53,2.53,1.69.4,3.1.83,4.58,2,.41,5.02-.48,9.38-.55,14.27-.1,7.6-.15,11.39-.24,18.99-.13,12.99-.09,26,.1,38.98.1,6.83.2,13.66.31,20.49-3.03-9.23-6.05-18.44-9.05-27.62-3.81-11.5-7.6-22.96-11.37-34.38-1.44-4.3-2.16-6.45-3.59-10.73-2.25-6.72-4.8-10.38-5.68-15.58.74-1.04,2.17-3.43.63-4.98-1.4-1.41-3.65-1.74-5.39-2.61-3.89,1.99-8.13,2.26-12.44,3.05-5.03.92-7.55,1.37-12.57,2.28-1.44.26-2.76-.58-3.7.39-.67.68-1.45,3.18-.37,3.8,3.83,2.22,7.56,2.15,11.78,3.15-.85,11.85-.61,23.38-.18,35.2.19,5.91.29,8.87.48,14.79.03,3.5.05,5.25.08,8.75.08,6.85.16,13.7.25,20.55.07,5.51,1.64,10.97,1.72,16.62.16,10.26,1.12,20.63.5,30.98.05,2.43.08,3.64.13,6.07.19.62,1.01,1.78.78,2.1-.43.63-.64.94-1.07,1.57.03,5.37.05,8.06.09,13.43,0,.48,1.48,2.12,1.04,2.08-.29-.03-1.15.97-.91,1.29,1.76,2.4.61,4.14.38,5.83-.35,2.65.45,5.01-2.53,5.71-1.65.39-4.75,1.92-6.7,1.06-2.32-1.03-2.85-.22-4.56-.05-10.7,1.04-21.9.59-32.55-.7-18.72-2.27-37.19-6.17-55.31-13.06-3.29-1.25-6.57-2.96-9.62-2.25,2.04,1.39,4.01,1.09,5.41,3.64-3.86-1.41-5.78-2.11-9.64-3.49.38-6.66.77-13.33,1.17-19.99-.04-19.57-1.5-39.08-3.44-58.46.99-1.21.49-3.57.48-4.88-.02-2.91.97-4.92.33-8.36-.33-1.82-.24-4.23-.33-6.35-.3-7.52-.45-11.27-.73-18.78-.08-2.2-.1-3.78-.07-5.9.21-12.37-.45-25.12,1.55-37.54.11-.7,2.02-1.35,1.92-2.04-.14-.9-1.33-2.1-1.86-2.72-2.52-3-3.57-1.89-5.51-1.3-8.28,2.51-18.71,4.29-25.37,10.82-.64.63-1.09,1.26-.55,2.2,1.18,2.04,3.79-.17,7.12-.02.77,6.84-.72,14.16-.83,20.91-.09,5.94.9,12.19.52,18.01-.74,11.48.33,23.31.94,35.03.76,23.16,1.63,46.3,2.61,69.44-2.45-1.26-3.68-1.88-6.14-3.12-2.19,1.14-3.28,1.71-5.46,2.85-1.84.96-3.49,2.97-2.64,5.82.23.75,1.51,2.12,1.24,2.48-.54.76-.8,1.13-1.34,1.89,3.15,3.4,6.53,7.23,11.04,9.44-1.9-2.65-2.85-3.97-4.75-6.59,5.07,3.53,7.61,5.31,12.67,8.93,8.52,4.83,17,9.91,26.24,13.35,4.98,1.78,7.47,2.69,12.45,4.52,10.17,3.58,21.09,6.08,31.59,7.03,8.1.52,16.2,1.06,24.3,1.62,2.28.16,4.01-.14,6.11-.27,5.49-.35,8.24-.52,13.75-.87,9.2-.83,18.39-1.67,27.56-2.54.75,2.02,1.13,3.04,1.88,5.06,1.18-1.43.76-3.01.82-4.65,4.69-1.52,9.82-1.02,14.72-1.71,5.67-.8,11.07-1.07,16.88-1.27,26.17-.87,52.25,2.61,78,9.41,2.45.65,3.72-1.42,4.96-2.72,1.24-1.3,4.89,4.35,9.6-.09-10.58-4.93-21.64-7.48-32.38-11.71ZM752.51,130.08c0,.56-.38.91-.85.79-.47-.13-.85-.68-.85-1.24,0-.56.37-.91.84-.78.47.13.86.68.86,1.24ZM750.29,84.86c-.29-1.15.29-3.48.96-4.25.11,6.97.16,10.46.28,17.44.19,6.75.5,13.56.23,20.32-.61,2.67,1.24,6.44-.52,8.94-.41-12-.81-23.99-1.19-35.97-.08-2.26.93-3.78.25-6.48ZM766.82,233.66c-4.8-.53-7.2-.8-11.98-1.33-7.08-.77-14.15-1.55-21.22-2.35-4.56-.51-9-3-13.52-2.09.02-2.99.03-4.48.05-7.46.09-6.64.13-13.31-.12-19.94-.29-7.68-.58-15.35-.86-23.02-.42-23.13-.8-46.26-1.13-69.39,1.63,2.89,2.15,5.71,4.25,8.25,4.86,12.38,9.68,24.78,14.49,37.19,1.09,2.83,2.43,5.06,3.43,7.65,5.57,14.51,10.64,29.66,15.74,44.68,1.73,3.63,2.59,5.44,4.32,9.09.25-.91,1.55-2.22,2.41-1.17,2.48,3.04-.71,9.78,3.08,15.74.71,1.11,1.55,2.97,1.07,4.16Z"/>
        <path d="M595.02,182.29c-.91-8.9-.63-18.55,2.31-27.07,1.06-3.07,1.15-7.58,3.56-9.73,1.59-1.42,3.39-1.83,3.55-5.03.11-2.12,3.41-3.79,4.57-2,1.49,2.29-1.47,3.19-1.81,4.18-1.48,5.64-2.41,12.36-1.79,18.68,1.71,17.39,6.37,38.87,18.84,47.94,4.19,3.05,12.03,5.41,17.13,2.48,2.41-1.58,3.62-2.37,6.05-3.95,2.14-1.4,3.41-5.25,4.65-7.51,4.67-8.45,4.57-21.3.77-30.29-2.58-6.36-3.87-9.52-6.45-15.82-.99-2.42-1.05-3.91-3.21-6.09-2.28-3.74-3.43-5.6-5.71-9.31-1.87-3.03-4.91-5.34-6.78-8.5-4.16-7.05-9.56-13.06-14.65-19.1-2.89-3.42-5.37-7.55-7.94-11.32-2.72-3.98-4.87-9.09-8.68-12.13-.03-1.13.07-2.98-.29-4-3.25-2.2-4.71-5.68-5.54-9.03-2.22-8.97-2.77-18.25,1.96-27.61,1.6-3.18,2.94-5.59,5.62-7.84,3.74-3.15,7.01-7.65,11.98-8.51,13.28-2.28,26.7.65,38.72,8.74,1.77-1.82,3.36-1.93,4.99-.47,2.27,2.03,1.93,3.62,1.61,6.22-1.27,10.54-.94,21.41-.75,32.2.03,1.95-.94,3.32-2.05,3.64-.99.29-3.82-1.65-4.17-3.43-2.03-10.39-4.68-19.82-8.89-29.05-2.31-5.07-7.02-10.96-12.24-11.6-2.38-.29-6.16-1.06-8.19.27-1.71,1.13-3.86,2.48-5.16,4.21-7.41,9.9-4.69,23.91-.35,32.8,1.11,2.27,3.01,3.86,4.23,6.4,1.67,3.47,4.13,6.9,6.45,9.99,3.02,4.02,4.52,6.05,7.54,10.12,1.72,2.31,3.53,3.28,5.08,5.77,1.5,2.41,2.25,3.62,3.75,6.04,9.69,12.37,18.85,25.73,26.09,40.77,3.84,7.99,6.3,17.57,5.72,26.59-.56,8.51-3.45,16.62-6.71,22.67-8.62,15.97-30.2,20.53-43.86,13.56-6.68-3.41-16.32-7.73-13.22-9.15.42-.19-.21-1.02-.49-1.24-.47-.36-1.18-.15-1.52-.06-2.23.6-3.45-2.65-4.71-3.81-4.29-3.92-6.2-7.74-7.97-13-.76-2.26-1.8-4.03-2.07-6.66Z"/>
        <path d="M835.37,214.47c-2.22.28-4.46-.27-6.49-2.49,3.22-3.72,8.71-3.15,10.02-5.41.87-1.51-1.9-10.27-1.53-16.22.42-6.76-.19-13.74-.5-20.55-.19-7.29-.38-14.58-.57-21.86-.45-22.37-.9-44.73-1.34-67.1-.08-4.2-.37-7.64-.08-11.82-.58-5.52-.87-8.27-1.45-13.78-7.96-.87-15.96-.53-23.89.54-1.05,2.44-1.57,3.65-2.61,6.08-.45,1.04-.43,2.83-1.09,3.3-.68.49-3.1-.61-3.38-2.12-1.41-7.59-2.11-11.38-3.51-18.95-.31-1.7-2.04-3.75-.48-5.1,1.28-1.11,3.02.45,4.71,1.03,9.72,3.36,21.5.87,31.44.8,1.66-.01,3.56-1.62,5.8.08,12.52.33,25,.87,37.51,1.6,1.23-.63,4.5-1.9,5.62-.18,2.89,5.3,2.61,11.82,3.69,17.74.51,2.79,1.93,5.53,1.55,8.55-.13,1.06-3.01,1.05-3.48-.27-1.55-4.34-2.32-6.5-3.86-10.82-4.41-1.62-8.54-1.85-13-1.77-4.56.08-6.84.11-11.4.16-2.58.03-1.14,5.69-1.11,8.03.22,21.2,1.02,42.59,1.69,63.89.33,12.7.65,25.39.98,38.09.05,6.73-.76,13.36-.71,20.09.14,5.36.21,8.04.35,13.4.07,2.53-.37,7.51,2.26,9.15,3.21,1.05,7.78-.3,10.9,3.78.68,1.8-1.32,4.55-2.53,5.69-2.73-2.35-5.15-2.36-7.97-2.73-8.46-1.13-17.09-1.86-25.53-.81Z"/>
        <path d="M826.31,113.61c-1.79-7.04-2.69-10.56-4.48-17.57-1.52-5.95-4.91-10.28-8.22-14.58-3.21-4.17-5.89-5.61-10.29-6.48-2.76-.55-5.36-1.31-8.39-.65-6.57,1.45-11.51,7.38-14.48,14.26-2,4.63-4.5,8.73-5.16,14.43-.91,1.71-1.36,2.56-2.27,4.27-3.6,19.28-3.17,39.37.55,58.55,1.15,3.06,1.73,4.6,2.88,7.67,3.88,15.6,16.65,34.2,30.54,29.64,2.35-.77,5.11-.97,7-4,2.78-4.46,4.17-6.7,6.95-11.2,1.94-6.34,3.87-12.68,5.8-19.02,4.98-17.84,3.54-37.4-.45-55.3ZM816.37,146.26c-.45,13.16-2.82,28.23-6.56,40.77-1.81,2.92-2.71,4.37-4.51,7.27-1.15,1.84-3.91,3.41-5.51,1.95-5.22-3.84-8.52-11.08-6.25-17.9-1.06-6.74-1.58-10.11-2.63-16.83-1.46-12.32-1.87-24.08-.2-35.93,1.82-12.89,4.86-25.87,8.14-38.23.07-1.89-1.16-6.61.55-7.07,3.71-1.02,6.03,2.24,8.32,4.73,3.74,4.05,4.7,8.84,5.56,14.03,2.65,16.04,3.65,30.77,3.09,47.21Z"/>
        <path d="M582.4,31.96c-4.36,10.11-18.63,11.96-25.12,5.33-4.65-4.75-1.47-13.25,3.07-17.13,6.67-5.71,18.45-3.93,22,4.41.45,1.05,1.7,2.22,1.84,3.54.21,1.88-1.28,2.7-1.78,3.86Z"/>
        <path d="M697.93,173.73c.22.24.33.36.54.6-.21.11-.32.17-.53.28-.15-.22-.23-.33-.38-.55.15-.13.22-.2.37-.33Z"/>
        <path d="M556.78,3.25c-1.57.89-3.16,1.67-5.9,1.69.99-2.36,3.32-3.7,5.72-4.46.47.93.41,2.36.19,2.77Z"/>
      </g>
      <g>
        <g>
          <g>
            <path d="M1073.06,336.47c-7.16,2.16-14.31.26-21.42.02-.1-4.05-.91-5.76-4.12-8.05,7.97-2.41,6.41-14.69,6.34-22.29,1.28-29.36,2.48-58.73,3.61-88.1.57-15.68,1.1-31.36,1.62-47.06.71-15.33,1.95-30.34,4.32-45.01.89-5.53-.3-11.4-1.02-16.97-.38-2.96,4.55-5.99,5.99-3.54,1.98,3.38,3.5,5.55,5.62,8.63.8,4.36,1.2,6.55,2,10.92,2.45,4.16,2.88,7.36,3.99,12.02,2.97,12.47,5.94,24.96,8.9,37.46,1.85,8.75,3.69,18.04,6.93,26.42,2.64,9.46,5.27,18.93,7.89,28.41-.08-9.24-.17-18.48-.27-27.72.11-33.14,1.12-66.19,3.11-99.1.14-2.34-3.21-5.7-.72-8.38,1.67-1.79,3.24-2.1,6.19-.49.86.47,3.14-1.1,3.84-.26.83,1.01,2.89,3.54,2.96,5.69.72,20.93,1.4,41.86,2.05,62.79.25,16.87.43,33.78,1.23,50.62-.09,11.7-.2,23.4-.33,35.1-.05,10.28.25,20.59.16,30.86-.18,13.05-.39,26.09-.61,39.12-.1,5.7.63,10.37.73,15.7.13,6.44-.46,12.53.01,19.03.2,2.72-5.96,5.28-7.41,2.9-6.33-24.66-11.61-49.47-16.42-74.72-1.36-4.52-2.04-6.78-3.41-11.29-5.19-23.49-10.96-46.75-17.36-69.7-.23,17.91-.51,35.82-.82,53.73-.53,10.14-.8,15.2-1.34,25.32-.56,12.1-1.13,24.19-1.72,36.28-.14,2.81-2.93,4.75-1.88,8.96.56,2.27,2.59,4.12,5.58,5.83-1.24,2.02-2.31,5.53-4.22,6.85Z"/>
            <path d="M1170.77,319.07c11.19-1.59,22.33-3.35,33.42-5.28,1.77-8.79,3.52-17.58,5.25-26.37.68-3.46-.36-7.85,1.39-11.15,1.07-2.02,3.12-.22,4.2.39,2.27,1.3,1.15,4.63,1.16,7.26.04,8.72,6.87,52.47-6.07,48.13-15.14,1.19-30.26,2.17-45.42,2.94-5.15-.62-10.14-.49-15.27.38-5.75.97-8.63,1.44-14.39,2.32-2.16,1.23-3.59,3.88-6.01,1.51-1.52-1.49-3.69-6.05-.71-7.77,3.64-2.1,9.74-1.5,12.41-6.33,1.88-3.41-.11-9.38-.21-13.26-.34-13.73-.7-27.46-1.08-41.2.08-17.99.12-36.98-2.36-54.69-.7-5.02-.06-6.21-.1-10.88-.13-15.43-.3-30.87-.49-46.32-.07-7.94-.1-11.91-.18-19.85-.11-10.39-.24-20.79-.38-31.19-2.11.05-6.34,1.03-7.72-1.77-1.35-2.73-1.03-7.33-.86-10.4,2.91-.35,4.36-.52,7.26-.89,3.35-2.29,5.99-1.54,9.4-2.27,17.88-3.85,35.85-7.4,53.7-9.45,3.14-.36,5.59-2.12,8.42-3.36,1.6-.7,3.69.63,5.05-2.82.2-.5,1.04-.93,1.47-1.1.92-.37,1.36.39,1.21,1.6-.15,1.15-.45,2.66-2.62,2.47,1.61,5.94-1.14,10.29-1.09,15.38.11,11.58.21,23.15.28,34.71.02,3.61.55,6.42,2.2,8.76-1.52,3.56-2.28,5.33-3.8,8.87-8.53-10.26-4.61-29.91-11.97-42.22-2.4-2.68-7.27-1.73-10.14-1.17-7.73,1.45-15.47,2.86-23.25,4.11.2,1.65,1.17,2.6,1.93,3.26.67.58-1.22,2.47-1.29,3.63-1.5,22.14-1.67,44.63-1.7,67.22.01,6.65.02,9.98.02,16.63,7.85-.56,11.77-.87,19.61-1.6,4.28-8.22,2.63-19.25,6.09-21.78,1.2-.88,4.32-.33,4.37,2.65.35,20.73.65,41.45.91,62.18.04,3.24-.92,5.46-2.39,5.98-1.51.54-4.43-.54-4.43-3.31,0-8.12-4.03-23.85-5.11-25.02-1.56-1.69-3.66-1.72-5.74-1.56-4.88.38-7.32.56-12.2.87.61,18.61,1.18,37.21,1.7,55.82.75,12.19,5.58,25.27,2.37,36.61-.47,1.68-2.3,2.87-1.56,5.73.5,1.94,2.06,3.94,4.72,3.58Z"/>
            <path d="M1044.89,129.56c-.85,9.1-6.03,14.17-10.91,16.5-5.85,2.79-13.07,1.38-18.28-4.89-5.11-6.14-3.4-15.19-.53-20.77,3.84-7.48,10.88-10.61,18.17-8.24,5.68,1.85,12.47,7.71,11.56,17.4Z"/>
            <path d="M1241.09,296.31c2.81,5.66,1.25,13.4-1.36,16.61-3.19,3.92-8.41,5.63-11.8,1.67-3.23-3.78-4.22-9.35-3.1-14.13,1-4.27,2.62-9.26,6.84-10.11,2.99-.6,7.33,1.74,9.42,5.96Z"/>
            <path d="M877.81,355.79c-.96,2.08-1.89,3.38-4.44,2.38.26-2.58,2.28-3.13,4.44-2.38Z"/>
          </g>
          <g>
            <path d="M1048.04,383c-.45-.4-.84-.96-1.07-1.63.43.65.64.98,1.07,1.63Z"/>
            <path d="M1011.69,347.99c-.33,1.09-.49,1.63-.82,2.72-3.75-.39-7.96-2.39-11.62-4.99.25-.46.38-.68.63-1.14.31-.05.63-.08.94-.07.11,0,.21,0,.32.01,3.41.25,7.15,3.42,10.55,3.47Z"/>
            <path d="M1017.85,355.94c-1.53-.42-3.14-1.35-4.92-3.05-.36-.35-.13-1.91.14-1.97,1.93.2,4.6,2.02,4.78,5.01Z"/>
            <path d="M1046.97,381.37c.43.65.64.98,1.07,1.63-.45-.4-.84-.96-1.07-1.63Z"/>
            <path d="M1013.08,358.86c-.04.55-.06.82-.11,1.37.09.06.54.56,1.11,1.57.04-.54.06-.82.11-1.36-.09-.06-.54-.57-1.11-1.57ZM1037.71,338.83c-.05-22,.54-43.68,1.43-65.64.5-12.95.99-25.91,1.46-38.87,1.38-23.17,2.71-46.34,4-69.51.12-2.07,2.15-4.27,1.32-5.64-1.2-1.96-2.86-4.19-4.81-3.63-3.38.98-5.07,1.46-8.45,2.41-7.22,1.95-24.49,5.48-24.91,11.89-.2,3.01,5.95.38,10.81,3.45-4.21,49.4-6.33,98.85-7.96,148.48-.19,5.76-3.02,11.68-4.49,16.11-.97,2.93-3.73-.27-4.7-1.52-1.39-1.78-1.79-4.75-1.89-7.53-.6-16.58-1.22-33.15-1.85-49.72-.38-21.44-.37-42.76-.17-64.2.12-11.98.23-23.96.33-35.94.52-21.65,1.51-42.91,3.05-64.48-.53-2.57-3.51-4.84-4.65-6.78-4.31-.24-5.6,4.28-7.51,8.1-3.79,7.55-5.69,11.3-9.5,18.76-8.44,18.8-15.07,36.94-21.46,57.12-1.18-3.14-1.76-4.71-2.94-7.85-3.63-14.28-7.28-28.52-10.92-42.74-1.51-5.92-4.99-12.38-4.19-18.28.64-4.75-1.27-6.92-4-9.23-3.49-2.95-4.74-.13-7.69.91-5.46,1.93-11.49,3.64-17.25,3.72-3.37.05-4.84,1.9-7.21,3.82-1.14.92-4.93-.86-6.31-.1-1.24.69-3.49,3.92-2.17,5.39,4.1,4.32,9.19,2.59,13.68,2.61-.99,10.09-1.99,20.18-3,30.26-1.19,20.14-2.4,40.29-3.62,60.43-.91,14.62-1.83,29.24-2.76,43.85-.44,8.78-.88,17.56-1.33,26.34-.7,13.59-3.1,9.64-13.65,16.46-.86,2.18,3.09,4.67,4.85,4.15,7.18-2.1,14.65-.62,21.96-.95,7.72-.35,16.63-.96,24.52,1.19,1.33.36,2.65-1.18,2.69-2.2.06-1.57-.77-2.87-1.62-4.33-4.76-8.19-11.27-2.46-10.79-11.35.88-16.12,1.75-32.25,2.59-48.37.55-9.7.83-14.55,1.37-24.26.4-8.93.79-17.86,1.18-26.79.2-4.74.69-7.48,2.06-11.47,1.13-3.31.02-8.91,1.75-11.35,2.93,8.47,5.86,16.95,8.79,25.46,3.71,11.69,6.47,22.27,8.56,34.42,6.87-1.84,9.9-6.4,11.47-13.97,4.45-21.5,11.48-41.98,20.65-60.65-2.62,24.3-3.93,48.82-4.49,73.34-.85,1.89-1.28,2.84-2.14,4.73-.37,7.87-.56,11.8-.93,19.66-.39,8.7-.78,17.41-1.17,26.11-.5,17.6-1.04,35.2-1.59,52.8-.57,4.01-6.69,4.16-9.45,3.82-3.02,19.62,19.04,7.2,28.42,7.13,2.66-.02,5.27.01,7.74.15.11,0,.21,0,.32.01,3.41.25,7.15,3.42,10.55,3.47,4.61.07,6.92.09,11.54.11,7.82.05,15.64.02,23.44-.09.83-5.79-5.06-4.26-8.97-9.18Z"/>
            <path d="M1023.03,366.56c-.22.76-.33,1.13-.54,1.89-2.34-1.6-3.51-2.4-5.85-4.01.21-.75.32-1.12.53-1.87,2.34,1.6,3.51,2.4,5.86,3.99Z"/>
            <path d="M1014.08,361.8c-.56-1-1.02-1.5-1.11-1.57-1.97-.06-1.26-2.73.11-1.37.57,1,1.02,1.51,1.11,1.57,1.97.05,1.27,2.73-.11,1.36Z"/>
          </g>
        </g>
        <path d="M877.81,355.79c-.96,2.08-1.89,3.38-4.44,2.38.26-2.58,2.28-3.13,4.44-2.38Z"/>
        <path d="M1017.85,355.94c-1.53-.42-3.14-1.35-4.92-3.05-.36-.35-.13-1.91.14-1.97,1.93.2,4.6,2.02,4.78,5.01Z"/>
        <path d="M1014.08,361.8c-.56-1-1.02-1.5-1.11-1.57-1.97-.06-1.26-2.73.11-1.37.57,1,1.02,1.51,1.11,1.57,1.97.05,1.27,2.73-.11,1.36Z"/>
        <path d="M1023.23,348.11c-4.62-.02-6.93-.05-11.54-.11-.33,1.09-.49,1.63-.82,2.72-3.75-.39-7.96-2.39-11.62-4.99.25-.46.38-.68.63-1.14.31-.05.63-.08.94-.07.11,0,.21,0,.32.01,8.8.57,16.36,1.99,22.09,3.58Z"/>
        <path d="M1017.18,362.57c2.34,1.6,3.51,2.4,5.86,3.99-.22.76-.33,1.13-.54,1.89-2.34-1.6-3.51-2.4-5.85-4.01.21-.75.32-1.12.53-1.87Z"/>
      </g>
    </g>
  </g>
</svg>