<?xml version="1.0" encoding="UTF-8"?>
<svg id="Livello_2" data-name="Livello 2" xmlns="http://www.w3.org/2000/svg" viewBox="0 0 1263.66 374.08">
  <g id="Livello_1-2" data-name="Livello 1">
    <g>
      <g>
        <path d="M22.12,223.89c-.37.67-.6,1.65.41,2.17.2-3.03.29-4.55.49-7.58-1.1,1.14-.49,2.74-1.58,4.59-.84-2.31.29-4.59,1.29-6.87,1.66-3.77,1.47-7.7,1.99-11.6.84-6.29,1.68-12.57,2.51-18.86.15-1.11.01-2.97-.08-3.93-.32-3.37,1.05-6.2,1.48-9.3,1.07-7.73,2.13-15.47,3.18-23.21-.08-.65-1.16-1.49-1.6-1.87.15-3.05.8-5.46,2.31-8.49-.39-.27-1-.25-1.52-.38.39-8.24.78-16.48,1.17-24.72.18-3.81-.44-7.85,1.05-11.61,1.56-3.93,2.23-7.83,3.26-11.83,1.22-4.79,2.11-10.86,1.5-15.92,1.53-.84,2.09-2.24,3.15-3.89-.18-.51-.75-.66-1.5-1.72,2.28-1.73,3.42-2.61,5.69-4.35,1.12-.87,3.65.36,4.71-.73-.89-4.33,2.96-.19,5.09-2.57.61-.68.86-2.07.95-3.47,1.92,1.31,2.88,1.96,4.8,3.28,1.49,1.02,1.83,3.89,2.86,5.53.62.81,3.06.95,3.25,2.49-.05.22-.46.5-.66.55-.63.16-.29.76-.06.71.2-.04,1.31.14,1.4.4,1.65,4.49,2.48,6.74,4.15,11.24,2.44,6.49,4.89,12.73,8.06,18.58.91,1.67,1.22,3.56,2.07,5.24,2.36,4.7,4.72,9.39,7.1,14.08,3.45,6.8,6.38,13.93,8.88,21.25.9.92,2.87,1.88,3.85,3.54.49-2.49.73-3.73,1.22-6.23.31-1.61.73-2.19,1.16-3.66,1.74-5.98,2.6-8.98,4.31-15.02,1.2-4.21,2.47-8.49,3.72-13.05,1.55-5.66,2.32-8.51,3.85-14.23.52-1.95.65-2.75,1.23-4.57,1.54-4.84,2.31-7.27,3.84-12.16,1.13-3.65,1.69-5.48,2.82-9.16.8-2.61.99-4.59,2.83-6.76,1-2.74,1.49-4.11,2.49-6.87.55-1.53,2.85-2.55,3.9-3.95,3.71-.29,7.15-3.5,12.53-6.01,2.4-1.12,5.6.4,7.98-1.18-.32-.64-.67-1.03-.76-1.28-.25-.69.26-1.23,1.12-1.14.73.08,1.6-.21,1.97.24.31.38.4,1.92.74,2.25,2.08,2.02,6.73-.11,5.91,3.75-.02.45.23,1.28-.19,1.71-.32.33-1.02.23-2.13-.32,1.38,6.7,1.83,12.5,1.97,19.38.08,17.09.13,34.18.15,51.26.26,6.61.78,13.06,0,19.27-.23,1.83,2.12,7.83-.36,9.46,2.23,1.52.88,3.25.91,5.06.1,6.25.15,9.37.24,15.57.49,7.85.97,15.7,1.45,23.55.22,3.68.4,6.98.82,10.75.19,1.66-.64,3.57,1.39,4.58-.5.55-.98.74-.92.91.3.73.45,1.09.74,1.82-.39,5.87,2.58,11.44,2.84,16.91.18,3.79.68,7.94,1.39,11.67.19,1.02-.18,3.2.15,4.28-4.07,5.21-2.46,14.53-5.67,17.42-.5.45-1.94.23-2.42.56-.79.54-1.03,2.01-.95,3.33.04.67-1.45.74-1.55.3-.11-.45.28-1.29-.33-2.44-.79,1.3-.86,2.64-1.08,4.27-1.79-.65-2.54-1.58-3.1-3.3-1.08,1.89-2.14,3.57-3.34,4.09-1.24.28-2.28.41-3.37,1.16.08-1.92-1.53-1.24-.99.05-.42,1.57-1.55,1.35-2.57,1.15-1.12-.22-1.45-1.01-2.17-2.53-.34,1.89-1.47,3.71-2.83,4.12-2.23-4.39-1.45-8.71-1.97-12.93-1.13-9.25-1.79-18.14-1.41-27.51-2.66-.19.69-2.75-1.18-6.38,1.36-4.66-.66-9.31-.88-13.78-.36-7.51-.73-15.01-1.1-22.52-.52-13.94-1.06-27.89-1.6-41.83-1.36,3.43-2.04,5.14-3.41,8.55-.36.14-1.23-.55-1.53-.41-.23.11-3.56,8.39-3.16,13.96-.51,1-1.6,2.65-1.03,4.18-.42.3-1.5,1.1-1.16,1.4.55.47,1.21.87,1.57,1.64.03,1.99-1.92,1.66-1.18-.41-1.23.73-1.21,3.13-.38,4.4-1.16.85-1.83,1.21-3.56,1.4.53.48,1.01.98,1.07,1.36.52,3.84-2.53,11.35-4.36,16.74-.4.46-.6.69-1,1.15-.21.25.54,1.14.53,1.8-.01.85-1.33.84-1.48.46-.18-.45-.28-1.36-.25-2.32-3.75,2.64-5.51,7.15-6.59,12.4-1.36-4.65,2.37-9.68-.67-8.77-2.03.61-2.34,4.64-6.38,3.87.27,1.57-.21,2.72-1,3.64-.32-1.81-.86-2.97-1.5-2.66-.34.17-.68,1.52-.99,1.74-1.23.86-1.73.04-2.13-1.21-.62-1.98.85-4.22-.37-4.38-.54-.08-.82-.11-1.36-.19-.63-.97-1.04-1.93-1.93-2.43-1.25-.7-2.08,0-2.5,1.42-2.14-2.33-2.38-5-3.44-7.58-1.92-4.65-2.88-6.98-4.8-11.64-.77-1.87-1.69-2.99-2.49-5.08-2.07-5.41-3.1-8.12-5.15-13.54-1.85-4.87-2.47-9.36-4.86-12.48-.99-1.3-.67-2.7-1.21-3.98-2.04-4.86-3.05-7.3-5.07-12.16-.9,3.3-1.27,6.37-.37,8.74,1.3,3.42.5,7.4.24,11.1-.06.79.47,1.59-.65,2.66-.76.85.5,1.96.95.67-.53-1.6,1.17-1.65.68-.02-1.97,1.77-2.94,3.65-2.14,5.81.91-1.41.67-2.52.6-3.43.31-.17.47-.25.78-.42-.13,3.64-.2,5.46-.33,9.1-.14,3.9-1.59,8.37-.45,12.16.75,2.5,2.03,4.19,1.04,7.41-2.62,8.58.37,8.73.15,10.35-.14,1.03.2,2.93-2.35,2.73.55-.8,1.54-2.53.09-3.52-.66,5.96-1.33,11.93-2.01,17.89-.45,3.92.67,7.33-.04,11.61-.38,2.26-.56,3.39-.98,5.63-1.05,7.57-2.11,15.15-3.17,22.72-.32,2.24.19,4.28-1.14,6.73-.33-.78-.5-1.17-.84-1.95-.78,3.47-1.56,5.81-2.76,8.5-.88-1-1.37-1.54-2.11-1.68-.09.4-.13.59-.22.99.42.58,1.56.74,1.92,1.9-1.35.92-2.02,1.38-3.37,2.3-.04.41.2,1.49-.07,1.72-.38.33-1.27.68-2.63.81,1,2.06.31,4.03-1.91,6.18.35-1.18-2.13-3.2-2.81-2.32-1.46,1.88-1.74,2.85-4.47,2.93-1.62.05-3.32.28-4.32-1.73-1.43.8-2.52,1.65-4.14,2.1-.99-1.98-1.51-3.58-1.95-5.68-1.44.44-4.33-.94-3.92-2.79.56-2.54-1.3-3.71-1.53-5.42-.41-3.06-.61-4.59-1.02-7.65-1.41-10.41.82-21.3,1.76-31.62,1.04.28.92,1.15,1.1,1.69,1.08-2.8,1.59-4.22,2.64-7.04.09-.16.27-.85-.69-.8,1.12.95,1.85.09.64-.67.52.85,1.1.66,1.21.66ZM123.05,77.59c3.09-6.22,5.56-12.91,6.53-20.01-2.56,2.01-2.35,5.5-3.6,7.75-2.15,3.87-4.28,7.81-2.93,12.25ZM65.37,67.38c-.18.33-.27.49-.45.81.1.16.15.24.26.4.32-.11.48-.17.8-.28-.25-.38-.37-.56-.61-.94ZM33.42,121.07c1.83-4.67.84-8.4,1.69-12.14-1.04-.29-1.54-.06-1.81.11-.21.14-.28.83.03,1.04.19.13.46-.12,1.09-.05-.71,3.87-1.66,7.48-.99,11.03Z"/>
        <path d="M473.63,187.13c-1.28,1.56-3.13,3.54-5.18,2.3-.5-.66-.74-.99-1.24-1.65-.63-.85-2.08,2.17-3.36,2.19-.43,0-1.35-.64-1.42-1.33-.25-2.4-1.75-3.51-2.53-5.29-1.54-3.48-2.31-5.22-3.84-8.71-1.8-4.58-2.7-6.87-4.48-11.46-1.3-3.43-1.95-5.15-3.25-8.59-1.11-.32-1.71.85-.41,1.27-1.17,1.29-.9,2.78-1.02,4.67-.79,12.29-1.56,24.57-2.33,36.86-.82,5.45-1.65,10.9-2.47,16.35-1.36,1.33-1.93,2.99-3.54,3.73-.19-1.06-.28-1.59-.46-2.65-.22-1.23-1.28-.43-1.72-.65-.78-.4-.8-2.54-.42-3.51-.81.47-1.15.42-2.51.71.81.58,1.2.8,1.54,1.61-2.03.5-1.76,1.99-2.1,3.76-.22,1.12-2.5.53-2.86-.29-.54.76-.86,1.16-1.23,1.38-.71.41-1.32-.5-1.75-.88-1.57-1.45-2.36-2.17-3.93-3.61-1.57-1.44-4.11.99-4.75,2.99-.42-2.07-1.24-3.13-2.49-3.98-.23-5.85-.46-11.7-.67-17.55.18-5.39.37-10.78.57-16.17.27-4.74.4-7.12.68-11.89.11-1.89,1.13-4.41.26-6.36.1-.38.74-.53.95-.63.23-.11.42-.96.46-1.46.49-6.02.99-12.04,1.48-18.06.33-4.05,0-9.81,1.77-12.96-.33-.44-.62-.84-.68-1.11-.06-.27.73-.99.76-1.32,1.21-13.5,3.86-27.07,4.44-40.82,2.2-2.58,5.06-3.46,7.57-3.98.17-.61.5-2.09.8-2.21.41-.17,1.21.57,1.47,1.22.36-.32.54-.48.89-.81.68-.61,1.83,2.03,3.73,1.15.56-.26.82-1.71,1.38-2.46,1.92-2.54,3.32,2.97,7.17,2.09.39,3.96,1.23,6.94,3.08,9.78,2.6,4,4.36,8.75,5.52,13.82.61,2.68.92,4.01,1.53,6.68,2.87,1.73,4.12,5.45,3.97,9.14,2.11,3.93,3.91,8.12,4.26,12.87.06.81.74.88.99,1.24.45.63.29,1.97-.37,2.96,1.87,1.46,2.48,3.38,3.25,6.36,1.42-2.72,2.12-4.08,3.54-6.81,3.09-7.3,6.18-14.6,9.25-21.91.56-1.34,1.1-2.29.52-3.9,2.4-.7,3.35-3,4.71-5.35,3.86-6.69,7.7-13.39,11.53-20.1,1.55-2.71,3.46-4.41,4.47-7.71,1.02-1.54,3.72-2.84,4.54-5.65,1.36-1.62,4.16-2.43,5.72-3.45-.25,6.62,6.86-3.71,11.5-.47.94.65,1.56,2.91,3.12,1.68.56-.44,1.91-.82,2.26-.35.63.86.94,1.29,1.56,2.15.81.22,1.21.33,2.02.55.53.14.7,2.41.45,3.22-1.53,4.92-.77,9.48-1.24,14.3-1.77,18.1-2.92,36.33-3.93,54.54-.35,6.32-.69,12.64-1.04,18.95-.21,3.79-.81,7.79-.19,11.53.49,2.94-1,5.08-1.09,7.38-.38,9.59-.76,19.18-1.14,28.76.13,13.59.55,27.16.95,40.74-1.57-.08-1.37-1.76-1.71-2-.37-.26-1.28.45-1.83,1.09-.46-2.1.11-4.28-.85-6.39-.21,4.28-.31,6.42-.52,10.69-.49-.23-1.39-.6-1.46-.26-.23,1.07-.35,1.61-.58,2.68-.48-1.21-.17-2.42-1.67-3.19.44,1.96-.73,2.35-.91,3.37-.14.79-.21,1.19-.35,1.98-.05.29-1.46-.47-1.67-.96-1.03-2.44-.67-5.22-.99-8.28-.93.43-2.58.51-2.9-.45-.37-1.12-.29-3.03-.78-3.19-1.03-.32-1.54-.48-2.57-.8-1.46-1.95-2.76-3.46-5.33-3.17.21-3.1-.29-6.98-1.36-9.2,1.08-1.77,1.21-4.32-.27-6.27.25-1.44.61-3.07.53-4.72-.12-2.59-.18-3.89-.3-6.48-1.13-3.4-.04-5.51.09-8.78.19-5.09.29-7.63.49-12.74.05-4.65.07-6.98.12-11.64.97-17.41,2.23-34.66,4.55-51.91-2.97.2-3.09,3.92-4.36,5.5-.98,1.21-1.25,2.98-1.9,3.88-3,4.18-4.92,9.56-7.43,13.6-.82,1.32-.66,2.18-1.24,3.4-1.11,2.34-1.66,3.51-2.77,5.85-1.35,2.85-2.31,5.97-3.32,8.91-.93.79-1.4,1.18-2.33,1.97-.45.38.13,2.32-.28,2.85-1.05,1.13-1.48,2-2.04,3.59-.32.91-2.18,1.68-2,3.45-.44.61-1.99.27-2.61-.9-1.68,1.52-2.84,3.17-4.09,5.17.17.33.26.5.43.83,1-.69,2.2-1.97,3.61-1.33-.24,1.65-3.54,4.28-4.19,3.97-.38-.18-.2-1.6.26-1.98-.22-.41-.33-.61-.55-1.01ZM503.33,210.13c-.18.15-.27.23-.45.38.19.13.28.2.46.34.12-.15.18-.22.3-.37-.12-.14-.18-.21-.31-.34Z"/>
        <path d="M619.49,237.82c.59.28,2.03.53,1.9,1.57-.09.66-1.02,1.31-1.33,1.8-.16,1.38-.55,2.16-2.19,3.4,1.46.41,2.62.07,3.37,1.27.5.79.46,2.26.24,3.15-.33,1.34-2.06,1.83-3.26,1.47-.04,2.43-.14,5.11-2.37,6.3,1.06.61.43,1.58.64,2.18.76,2.19-2.39,2.78-2.21,4.52.08.75.31,1.38,1.27,2.24-1.92.65-2.88.97-4.79,1.61-15,2.18-30.01,4.35-45.02,6.51-4.22.6-8.28.09-12.15,1.79-1.69.74-3.9.12-5.65-.12,1.03-.76,1.64-1.41,1.75-2.42.1-.92-.85-1.9-1.53-2.77-.32-.91-.36-1.83-.36-1.83,0,0-2.38,3.66-9.18-.29.02-1.37.32-3.81-.27-4.58-2.04-2.65-1.59-4.78-1.63-7.75-.05-3.71-.26-7.36-.12-11.37.18-5.1.27-7.65.45-12.75.56-6.57,1.13-13.14,1.8-19.7.44-4.38.76-8.24,1.23-12.63.62-5.89.94-8.84,1.56-14.74.5-4.74-.08-9.79,1.5-14.44,1.01-2.98.71-6,.97-9.07.83-9.54,1.65-19.07,2.46-28.61.18-4.05.27-6.08.45-10.14.52-3.02.79-4.53,1.31-7.55-1.05-.99-1.97-1.91-2.1-3.19,2.18-1.29,1.78-4.32,2.14-6.56.18-1.08.93-1.92.79-2.49-.16-.68-.8-1.72-1.46-2.3.44-.85,1.15-1.18,1.85-1.85-1.37-.06-2.34.35-3.19-.49,1.05-.25,2.75-.77,2.85-1.98.15-1.74.35-2.86,1.51-3.57-1.16-.19-1.74-.28-2.9-.47.31-.97.84-1.01,1.01-1.17.19-.17,0-.83-.76-1.12.82-.29,3.06-.58,3.31-2.07.32-1.92.36-3.5,1.95-4.56,1.43,1.16,2.14,1.74,3.58,2.91,3.3-1.49,4.94-2.23,8.24-3.72,3.74-1.27,5.61-1.91,9.34-3.18,4.94-1.73,9.88-3.47,14.82-5.2,2.11-.74,4-1.73,6.29-1.03,1.39.43,2.6-.41,3.02-2.38,3.98,2.6,4.9-.54,6.26-.13.74.23,1.71.37,1.79,1.57-1.34-1.82-2.44.45-1.27,1.11,1.94-.09,3.37-.84,4.72-.2-.89.54-1.34.81-2.23,1.34-.7.42-.41,1.87-.1,2.52.66,1.41,3.63-.89,4.98,2.91,1.01,2.86-2.71,4.18-3.84,6.18.87-.07,1.95.09,2.6.81.51.56.44,2.08,1,3.05.22.39.33.58.56.97.11.2-.47.95-.79,1.11-1.73.86-2.59,1.29-4.32,2.15,1.48.79,2.46,1.09,3.55,2.62-1.22.67-3.17,1.37-3.41,2.77-.11,1.03.37,3.25,1.01,4.05.53.67,2.25.03,3.39.63-1.15,1.28-1.73,1.92-2.88,3.2-4.42,1.45-6.62,2.17-11.03,3.61-5.21,1.74-7.82,2.61-13.02,4.34-3.73,1.17-5.6,1.75-9.32,2.92-.45,7.56-.91,15.12-1.38,22.68-.19,3-.93,5.92.19,8.71,10.83-4.63,21.37-7.7,32.94-8.68,2.28.16,3.42.23,5.71.39,1.42.1,2,1.99,2.17,3.05.24,1.5-.15,2.78-1.08,3.73,1.39.85,2.09,1.28,3.49,2.13-.91.72-1.29.6-1.95.81-.41.13-.38.9-.5,1.55-.26,3.99-1.31,6.02.34,6.61-2.09,1.54-3.13,2.3-5.22,3.84-.5.37,1.91,1.47,1.36,2.18-.24.3-1.55.67-1.47,1.01.2.86,1.21.96,1.59,1.21.68.46.26,2.19-.59,2.57-2.17.98-3.26,1.47-5.43,2.44.42.23.9.56,1.28.96-2,2.52-4.65,2.69-7.38,3.64-9.19,3.19-18.2,6.85-27.06,11.22-2.26,1.8-1.78,6.76-2.09,9.56-1.21,10.94-2.44,21.87-3.53,32.83-.32,3.16-1.08,6.03-.26,9.52,7.75-1.26,15.5-2.53,23.26-3.81,2.2-.36,4.08-1.2,6.44-1.03,4.72.35,9.55-.63,14.3-.96,3.65-.11,5.49-.17,9.17-.29-.53,1.28-1.66,2.47-1,3.97ZM591.67,76.89c.35-.15.29-.56.28-.57-3.34.9-5,1.35-8.34,2.25.13.34.3.45.38.5,2.54-.29,5.25-1.13,7.68-2.18ZM562.37,272.26c.86-1.11,3.15,0,5.12-.81-.02-.4-.04-.6-.06-.99-2.07.16-3.1.23-5.15.39-1.83.14-2.87,1.08-2.81,2.74,2.21-.22,3.32-.34,5.54-.56,0-.13-.11-.41-.37-.54-.71.09-1.54.26-2.28-.23ZM556.58,273.77c-1.9.45-1.87-1.31-.68-1.19.92.66.9-.63.64-.82-.21-.16-.66-.54-1.21-.31-1.74.71-2.61,1.07-4.34,1.77,2.11.44,3.81,1.17,5.6.54Z"/>
        <path d="M192.9,251.02c-.35-.53-1.62-.55-1.63-2.17,0-2.57-.01-3.86-.02-6.43-1.34-5.34-.24-12.18,1.06-17.38.79-3.82,1.18-5.74,1.97-9.58.44-2.14,2.31-3.7.69-5.79,1.35-.77,1.47-2.08,1.76-3.56.73-3.7,1.1-5.56,1.83-9.28,1-5.13,2.23-9.97,1.29-15.19,2.51-2.57,2.96-6.55,1.52-9.71.68-.86.89-2.07.84-2.83-.04-.6-1.19-1.05-1.5-1.82-3.79-9.26-7.58-18.53-11.36-27.8-1.07-3.56-1.61-5.34-2.68-8.91-1.91-5.76-4.46-11.35-5.83-17.26-.4-1.73-1.72-3.11-2.35-4.56-1.5-3.43-2.25-5.15-3.75-8.59-1.07-3.32-1.6-4.98-2.67-8.31-1.13-3.51-2.77-6.82-2.98-10.83-.11-2.08-.01-3.78-1.49-5.2.81-.64,1.17-1.09,1.41-1.57.31-.62-.16-1.53-.66-2.23.26-.38,1.17-.99,1.23-1.52.09-.75-.19-1.6-.91-2.28,1.11-.64,1.46-2.74,1.89-3.87,1.66-.8,3.51,1.19,4.78,2.36.86-.84,2.62-.37,3.47-.69,1.04-.4,2.01-1.61,3.47-1.16.71.21,2.1-.99,2.77-.51.96.69,1.34,1.49,1.72,2.77,1.21-1.95,2.17-.38,2.86.05,1.13.7,1.51,2.63,1.85,3.97,1.93,7.59,5.55,14.7,8.37,22.19,2.28,6.52,4.57,13.04,6.87,19.55.9,2.57,2.35,4.11,2.4,7.4.05,3.61,2.39,6.74,3.36,10.06.45,1.54.91,4.05,2.59,4.43,1.66-.57,1.67-4.41,2.35-6,.75-1.76,2.01-3.69,2.41-5.76.16-.8,1.78-1.51,1.8-2.23.02-1.14-.32-1.82-1.15-2.52,2.61.25,2.26-3.46,3.1-4.58,1.15-1.54,1.19-2.53,1.78-4.11,1.05-2.83,2.34-5.77,3.46-8.58,1.61-4.04,2.41-6.06,4.02-10.14,2.42-6.25,4.72-12.2,8.04-17.55,1.88-3.04,3.3-6.47,4.8-10.31,1.17.58,2.73-.93,4.07-.69,1.36.24.94,4.22-.08,5.23,2.53.39.93-1.81,3.14-4.48.64-.77,1.46-.03,2.01.64.39.48-.83,2.32-.56,3.12.58,1.72,3.75,1.97,4.64.48.3-.84.03-1.73.25-2.07.29-.44,1.5-.61,1.43-.19-.14.88-.33,2.14-.21,2.77.11.59.85.77,1.61.48.06,1.06.09,1.59.16,2.65,1.71.91,3.57.22,5.01-1.35.97,1.03,1.45,1.55,2.42,2.58-2.96,2.3-2.55,5.28-2.99,8.45-.61,4.46-3.46,8.5-4.78,12.7-1.43,4.56-3.18,8.2-4.87,12.56-2.18,5.62-4.37,11.24-6.57,16.85-3.46.49-1.01,4.07-3.78,5.66-.18,1.6-.51,3.18-1.07,4.77-.81,2.28-1.21,3.42-2.01,5.69-.86,2.43-2.94,4.55-2.69,7.6-1.2.28-1.6.95-1.71,2.23-.24,2.83-2.24,7.33-3,12.15-.53,3.34-1.18,5.8-2.53,8.8-.4,2.38-.61,3.57-1.01,5.94-.75,4.42-1.36,8.54-1.77,12.92-.59,6.19-1.18,12.37-1.77,18.55-.22,2.23-1.1,5.04-.72,7.24-.36.55-.53.83-.89,1.38-.1.16.94.8.85,1.08-.22.68-1.41.06-1.42.37-.02.39.7,1.23.76,1.56.58,3.44-1.37,7.38-1.71,10.82-.27,2.7-.62,4.95-1,7.32-.53,3.39-.61,6.32-2.6,9.77-.9,1.55-.87,4.42-2.04,6.14-.96,1.41-.63,3.13.8,4.34-1.37.22-1.61.2-2.34,1.07-.83-1.93.37-3.76-.19-6.02-.23-.91-2.58.36-2.76,1.71-.37,2.92-2.37,3.36-4.36,4.38-1.6.82-3.4-.07-5.41-.11.21-1.3.45-2.15-.28-3.27-1.03.93-.37,1.61-.64,1.99-1.25,1.74-5.66-2.57-6.68-2.98-2.03-.81-3.68-.18-5.42-2.82ZM219.35,248.93c.04-1.13-1.18-1.32-1.46-.23-.46,1.76,1.4,2.05,1.46.23Z"/>
        <path d="M330.35,237.63c-.8-.86-.49-2.03-.47-2.72.02-.63-.63-1.11-1.11-1.34-.33-.16-.74,1.83-.84,2.42-.41-1.04-.98-1.59-2.08-1.92.59-1.45.2-2.76-.58-1.23-1.12-1.55-2.28-2.01-3.6-.72-.64-1.46-1.23-2.34-2.21-2.8.32-3.94-.28-6.85-1.04-10.89-.24-1.27.51-4.05-.38-5.23-.18,1.59-.25,3.08-1.01,3.72-1.06-5.54-.93-11.65-.97-17.23-.08-10.19-.26-20.62-.44-30.93-.09-3.91-.14-5.86-.23-9.79-.17-5.9-.74-12.02-.65-17.69.08-4.91.52-11.45-1.51-16.19-.23,3.93-3.99,4.63-7.84,6.53-1.85.91-2.77,1.36-4.61,2.27-1.17.57-2.13.79-3.34,1.56-2.73,1.75-4.1,2.62-6.83,4.35-1.28.81-3.04.18-4.07,2.66,1.16.15,1.94-.52,2.61.72-1.53.47-2.29.71-3.81,1.18-.46-.2-.69-.3-1.14-.51-.27-.12-.59,1.35-.82,2.6-.69-.73-.78-1.97-.97-3.51-5.93-1.89-10.01,6.72-9.65-2.77-1.02-.97-2.24-1.4-2.84-3.2-.67-1.98-.36-3.61,0-6.46.26-2.06-1.85-3.66-2.93-2.54.01-1.94.72-1.29.96-1.52.67-.65-.09-4.11,1.4-5.61-.64-.3-1.19-.52-1.44-.87-.28-.39.22-2.3.73-2.46,1.89-.6,2.89-4.46,4.6-5.72,16.59-12.21,34.37-21.42,53.42-28,2.13-.89,3.19-1.34,5.32-2.24,1.62-.68,3.14-1.12,4.84-1.69,5.72-1.91,11.44-3.83,17.15-5.75,1.26-.42,2.3.95,2.81-3.72.92,3.26,1.86,1.44,2.51,1.64,3,.94,7.88-2.52,9.7-2.58,4.96-.18,10.31-1.5,14.93-3.58.8-.36,2.38,1.89,3.05-.76-.98-.12-.83-1.6.07-1.37,2.32,3.53,5.7-.69,5.8,1.95.03.78.04,1.17.07,1.95.02.46.74.72,1.09.86-.45.44-.75,1-.79,1.27-.06.4.21,1.08.68,1.59-.7,1.15-1.54,1.93-1.54,4.93,2.5-1.32,4.42.82,5.66,4.4-1.06.31-1.79.54-2.38,1.99.57.08.97-.05,1.45.77-1.93.87-2.9,1.3-4.84,2.16.94.36,1.63-.19,2.24,1.28-.83,1.39-1.51.81-2.12,1.24.11.44.17.65.29,1.09.61-.14,1.44-1.37,2.09-.15-.53.98-1.46.83-1.88.98-.37.14-.44,1.52-.32,2.71-1.21,2.21-2.37,2.13-4.15,3.01.72.51,1.07.76,1.79,1.27-2.69.96-4.04,1.44-6.73,2.39.22-1.69,1-.97,1.18-.62.12.24.35-.9.19-1.39-.11-.37-8.55,1.96-12.75,3.35-4.74,1.57-7.1,2.35-11.83,3.91-4.15,1.37-8.06,3.17-12.24,4.02-2.74.56-5.36,3.32-8.26,3.22-1,4.8-.2,9.24-.19,14.1,0,4.78.2,9.27.11,14.07-.06,3.29-.09,4.93-.15,8.2.13,4.7.2,7.04.34,11.7,1.08-.87.88-2.48.69-4.12.87.48.69,1.99.62,3.18-.04.73-.86,1.19-1.26,1.56-1.15,3.24-.07,6.95.23,9.09-.79,3.53-.93,7.77.1,10.88-.05.61-.09,1.6-.24,1.96-.24.58.59,1.53.91,1.73-.08,1.31-.72,2.29-1.2,2.94.47.57.79,1.17.87,1.79.09.75-.21,1.7-.75,2.41,1.25,2.62,1.08,8.09.08,10.6-.18.46.5,1.29.38,1.67-.27.87-.41,1.31-.68,2.18-.21,3.1.54,7.44-.5,10.02-.67,1.66-1.6,2.1-1.63,4.64-.01,1.53.21,3.04,1.07,5.4-2.1.92-3.33,2.73-3.07,6.52-.87-1.04-1.8-.62-2.74-1.08-.04-1.06.41-4.4-.46-4.68-.34.59-.51.88-.84,1.47-.15.27-.58-1.24-1.13-1.75.26,4.42.54,7.28.05,11.24Z"/>
        <path d="M46.7,318.74c-.16,0-.24,0-.41.01.16,0,.24,0,.41.01h.42c.16,0,.24,0,.41-.01-.16,0-.24,0-.41-.01-.17,0-.25,0-.42,0ZM7.5,326.44c-.19.13-.29.2-.48.33.83.5,1.95.59,2.88-.07-1.08-.71-1.81-.36-2.4-.27Z"/>
        <path d="M358.49,222.04c.49-1.34.73-2.01,1.22-3.36,3.06-3.72,6.27-5.14,9.77-7.51.24-1.77-.19-3.96.66-5.25.85-1.28-.19-4.48-.41-6.4.44-.99,1.39-2.08,1.48-3.13.17-2.04-.15-3.3-1.04-4.37.47-.43.88-1.18.86-1.63-.03-.49-.42-1.26-.96-1.7.37-.69.73-.92,1.57-1.59-.47-.94-.85-.89-1.44-1.09.76-3.43-.99-7.29-.62-13.34.21-3.36.06-6.07,0-9.28-.09-5.32-.18-10.64-.27-15.96-3.7,2-6.87,4.83-10.74,5.87-.24-2.26-.36-3.39-.61-5.65-1.58.44-2.57-.66-3.65-3.38,1.14-.34,1.56-2.26,3.31-3.63-.41-.61-1.26-1.33-1.87-1.57-.32,0-1.3,1.69-1.8.2-.79-2.33.77-6.09,2.13-6.93-1.15-.48-2.13,1.3-3.21-.41,3-2.47,4.51-3.7,7.51-6.19-1.7-2.73-4.07,2.84-5.54,2.76-.27-.01-.42-1.95.1-2.16,2.11-.86,4.78-4.24,6.87-3.77,3.33.75,5.56-2.91,8.6-4.61,3.52-1.97,5.28-2.96,8.81-4.94,4.67-2.59,9.33-5.19,13.99-7.8,2.21,1.36,4.28.58,6.46-1.1,1.7-1.13,3.41-1.77,4.68.34-1.13.07-1.56.71-1.06,2.19,2.12-.21,3.17-.3,5.31-.55.28,1.83.42,2.74.7,4.57-.96,1.52-1.45,2.29-2.4,3.79-.54.86-1.1.89-1.26,1.77-.41,2.15.56,2.22.89,3.01.92,2.16.09,4.64-.39,5.97-.87,2.46-1.87,2.8-3.35,3.57-4.1,2.16-7.84,4.88-12.2,5.92.34,5.67-.29,10.34-.33,15.5-.14,16.85-.24,33.7-.3,50.55,3.79-1.22,5.68-1.83,9.48-3.06.3,1.6.95,1.37,1.9,1.25,1.19-.15,1.51,2.97,1.68,4.93.15,1.79-.61,3.45-1.73,4.7,1.56.29,2.54.26,3.19,1.3.45.72,1.17,2.04.59,3.98-.67,2.22-2.33,2.91-3.83,4.07.83.56,1.53,4.47.66,5.29-2.82,2.66-5.97,1.59-8.81,2.73-1.46.58-2.36,1.04-3.89.92-1.67-.12-3.52,1.74-5.22,2.13-2.11.48-3.17.72-5.28,1.2-2.27,1.63-4.49,2.62-6.93,1.36-1.92,1.33-3.85,1.58-5.55-.05-3.56,2.04-6.77,2.77-10.25,3.53.63-2.2,1.92-3.04,1.98-4.43-.67-1.23-.76-1.9-.4-2.72.42-.95.78-1.79,1.68-1.73,1.13.43.76-2.59-.23-.84-.83-.42-.12-2.15.45-1.04.65-.19.4-.94.28-1.06-.5-.46-.75-.7-1.24-1.16ZM361.89,123.89c-.97-1.07-1.33.33-1.14.68.86.68,1.21-.6,1.14-.68Z"/>
        <path d="M513.74,271.64c-.83-.3-1.66,1.3-2.27,1.67-1.36.82-2.99-1.21-4.11-1.48-3.7-.9-6.05-3.25-9.14-5.05-2.41-1.41-3.61-2.11-6.01-3.51-.28-.16-1.06-.06-1.18-.31-.13-.28-.19-.66-.12-1.39-1.52,1.5-2.66,0-3.81-.74-1.31-.83-1.97-1.24-3.28-2.07-5.02-2.37-10.05-4.75-15.07-7.12-.71.96-1.07,1.44-1.78,2.4,0-1.24-.18-3.14-.97-3.41-5.53-1.94-10.82-6.46-16.98-6.19,0,.79.34,1.37,1.17,2.21-6.18.25-5.73-4.59-6.49-5.71-.24-.36-1.6,0-1.7.44-.18.83-.26,1.25-.44,2.08-.42-.93-.58-1.84-.81-3.07-3.35-.46-6.21-1.83-9.33-3.11-1.78-.73-2.67-1.09-4.45-1.82,1.64-.63.79-1.5-.21-1.62-2.88.37-5.41.73-8.04-.26,1.51-.32,2.27-.47,3.79-.79-1.28-.2-1.91-.3-3.19-.5,1.06-.31,1.59-.47,2.66-.79-3.17-1.45-4.74-2.17-7.89-3.62.73-.72.83-1.21,1.35-2.43-1.72-.72-2.58-1.08-4.29-1.79,3.44-1.11,6.25.49,9.32,1.07,26.59,5.02,53.54,17.04,77.31,31.39,4.32,2.62,6.5,3.94,10.86,6.58,2.6,1.57,3.87,5.21,6.57,6.26-.86.56-1.02,1.08-.97,1.85.33.28.5.43.83.71-.3.08-.53,1.16-1.02.38-.01-.02-.17-.22-.31-.27Z"/>
        <path d="M501.98,276.45c.8,1.18,1.2,1.78,2.01,2.96-1.48,1.39-2.88.82-4.3.09-4.42-2.26-6.62-3.39-11.01-5.63-23.72-12.96-48.32-22.92-73.76-30.12-1.42-.4-2.24-2.43-4.34-1.7.49-1.62,1.09-1.23,2.05-1.29-.61-.5-1.31-.68-1.77-1.62,1.92.08,2.88.12,4.8.19,6.33,1.74,12.67,3.47,19,5.21,4.72,1.73,9.43,3.45,14.15,5.18,9.29,3.52,18.35,7.46,27.31,11.93,4.63,2.39,9.25,4.77,13.88,7.15,4.76,3.04,7.16,4.57,11.97,7.64Z"/>
        <path d="M283.6,186.65c.74-1.49,2.67.34,3.61.23,3.42-1.41,5.13-2.12,8.55-3.54,1.28.84,2.7.73,4.76,1.2-2.33,2.07-3.5,3.1-5.83,5.15-4.1,2.58-8.21,5.14-12.32,7.69-1.84,1.14-3.23,1.55-5.11,2.76-6.07,3.89-12.14,7.76-18.23,11.61-4.03,2.54-7.39,5.83-12.14,6.32-.63.06-2-.23-2.26-.75-.4-.79.56-2.35.93-3.01,2.39-4.22,5.46-6.4,9.03-8.83,4.33-2.94,6.5-4.42,10.82-7.39,1.77-1.08,2.65-1.62,4.41-2.7,4.45-2.74,8.9-5.5,13.34-8.28.19-.06.33-.24.43-.46ZM283.92,187.2c-.12.12-.18.18-.3.29.31.38.74,1.48,2.16.53-.49-.77-1.19-.88-1.86-.82Z"/>
        <path d="M20.39,165.59c-.14.62-.79.13-1.08.06-.54-.13-1.3.61-1.53,1.44-.5-.51-1.72-1.2-2.11-2.08-2.67-6.01-5.89-11.85-9.05-17.7-2.6-4.94-3.88-7.4-6.44-12.31-.41-.8-.08-1.93.51-2.45,1.84-1.6,4.99,2.99,7.87,7.01,4.57,6.38,7.47,14.26,11.05,21.35.68,1.34,1.38,2.12.78,4.69Z"/>
        <path d="M20.33,147.83c-4.13,1.19-8.7-10.66-10.68-15.84-1.58-4.05-2.37-6.08-3.93-10.12-.49-1.26-.56-4.12,1.17-4.15,2.18-.04,3.87,2.61,4.78,4.46,2.91,5.94,5.83,11.88,8.77,17.8,1.02,2.05,1.63,7.34-.11,7.84Z"/>
        <path d="M265.88,215.08c-4.18,2.62-8.38,5.23-12.58,7.81,3.89-4.63,9-7.59,13.89-10.55,9.1-5.52,17.93-11,27.7-14.88-4.61,4.09-8.79,6.39-14.16,8.99-4.94,2.89-9.89,5.76-14.85,8.63Z"/>
        <path d="M252.12,200.49c-1.49,1.69-2.41,4.59-4.74,4.51-.21-.17-.56-1.94-.27-2.29,1.67-2.01,2.5-3.02,4.17-5.04-.27-.42-.59-1.27-.51-1.74,1.49-1.12,2.24-3.49,3.53-4.82,2.39-2.46,4.84-4.71,7.01-7.63,1.74,1.5.05,3.26.03,4.28-.05,2.54-.26,3.81-1.93,5.41-1.15,1.09-1.66,2.45-3.98,1.75.73.83,1.09,1.47.96,1.97-.64,2.46-3.16,2.35-4.26,3.6Z"/>
        <path d="M42.73,60.16c.03-5.29.04-7.94.07-13.25-1.48.24-2.22.36-3.7.6-.75,2.73-1.12,4.09-1.87,6.8-.32-1.36.28-2.51-.74-3.29-.47,1.61-.7,2.41-1.17,4.01-.32-4.56,1.27-9.29,2.65-14.1.11-.37,1.62-.36,1.62.01,0,.5-.29,2.11-.06,3.02,1.32.35,4.18-.74,5.18,1.16,1.44,2.73,1.13,6.69.41,10.14-.6-1.84-.08-3.86-.12-5.66,0-.51-.41-.61-.49-.59-.45,4.02-.68,6.02-1.14,10.02-.06.56-.16.85-.64,1.12Z"/>
        <path d="M243.5,154.22c-2.62,6.51-6.58,12.43-11.12,17.37-1.1-2.69,1.26-4.32,2.45-5.97,2.95-4.09,5.15-8.58,8.67-11.4Z"/>
        <path d="M610.22,227.38c-.52-1.22-1.82-2.04-2.72-2.93-.61-.6.22-2.32.75-2.57.83-.38,1.43.28,2.02,1.59.64,1.43,1.52,3.16-.05,3.91Z"/>
        <path d="M161.93,266.5c.13.14.19.21.32.35-.13.14-.2.21-.34.35-.13-.14-.19-.21-.32-.35.13-.14.2-.21.34-.35Z"/>
        <path d="M162.62,265.09c.13.14.19.21.32.35-.13.14-.2.21-.33.35-.13-.14-.19-.21-.32-.35.13-.14.2-.21.33-.35Z"/>
        <path d="M208.26,272.6c.13.14.19.21.31.35-.13.14-.19.21-.32.36-.13-.14-.19-.21-.31-.35.13-.14.19-.21.32-.36Z"/>
      </g>
      <g>
        <path d="M752.18,208.14c-9.38.25-19.61-.24-27.57-6.54-1.17-.92-3.99-.6-4.13-3.39-3.5-.68-5.6-4.07-5.79-7.7-3.6-6.17-2.06-15.96,1.81-21.63,1.15-1.67,1.73-2.51,2.88-4.18,1.39-2.03,3.68-3.52,5.6-5.29.3-.73-.14-1.96.7-3.11,1.33,1.44,3.02-.15,4.02-.13,2.39.05,4.4-.3,6.35-1.78.41,3.16-1.31,4.5-1.54,6.76.51.56.85.99.72,1.38-.25.71-1.2,1.19-2.24,1.34.21.06.85.44.9.7.04.25-.56.54-.71.91-.25.57.27.83.55.51.14-.15.64-.47,1.03-.3-.31,1.26-.46,1.89-.77,3.15-.24.97,1.1,1.48,1.34,2.15.16,1.92,1.21,3.65,2.69,4.72-.83.3-1.54.43-1.83.71-.24.23.05,1.11.37,1.52,8.07,10.43,25.03,4.35,33.77-2.88.32-.26-.14-1.15-.65-1.42,2-1.38,2.9-3.84,3.9-5.91.85-.26,1.28-.39,2.13-.64.5-.15.82-1.66.97-2.46.75-3.99-1.67-6.55-4.14-8.92-2.15-2.06-3.41-5.28-6.46-6.55-1-.42-2.61-.05-3.38-1.56-1.12.32-1.89.42-2.57.08-3.2-1.59-7.22-1.23-11.08-1.4-1.33-.06-2.9-1.16-4.2-1.11-3.06.1-5.25-1.24-7.61-2.44-5.02-2.54-10.21-5.73-13.89-10.68-4.01-5.4-5.88-12.66-4.86-19.52.73-4.96,2.07-11.78,5.31-15.76,1.14-2.37,1.72-3.55,2.85-5.92,2.58-3.48,3.86-5.22,6.42-8.7,1.85-2.52,4.48-3.74,6.75-5.57,8.81-7.08,19.26-10.76,30.24-5.94.81.36.87,2.6,2.91,2.01,2.8-.81,3.94,2.43,6.31,3.01.33.08.2.95.19,1.39,1.31,1.83,1.97,2.74,3.28,4.57,4.08,5.96,4.32,14.15,1.81,20.94-1.17,2.35-1.75,3.53-2.93,5.88-1.82.55-2.74.83-4.57,1.38-.33.1-1.3-.26-1.62-.43-.35-.18.38-.97.26-1.84-1.77,1.36-3.26,2.6-5.3,3.3-1.07-1.95-2.72-2.87-4.68-1.97-.05-1.45-.2-2.82.25-4.08.9-2.49,6.28-17.88-.15-15.03-5.92,2.63-10.79,8.98-14.88,14.85-2.88,4.13-4.28,9.1-.61,12.91,1.56,1.62,2.77,2.26,5.02,2.92,1.86.54,3.86,1.67,5.85,2.29,6.5,2.01,12.99,4.04,19.49,6.07,5.88,1.97,10.87,6.1,15.81,10.07,1.21,1.84,1.82,2.77,3.03,4.61,2.57,3.92,5.24,6.53,6.69,11.88,1.33,4.89,1.52,12.09-.66,16.85-.69-.08-1.04-.12-1.73-.2.37,2.55-1.64,4.06-2.51,5.83-1.05,2.14-2.09,2.67-3.51,4.1-3.22,3.25-5.71,7.51-9.47,10.29-1.72,1.26-2.58,1.9-4.3,3.16-2.79,2.05-6.12,4.65-9.3,5.67-2.15.69-2.74.8-4.38,2.16-3.45,2.86-8.35,4-12.7,4.9-.38-.32-.57-.49-.96-.81-.15-.13-.9.29-1.13.61-1.14,1.56-2.51.19-3.38.21ZM749.65,97.64c.64-.11,1.66.12,2.3-.65.4-.49-.02-1.9.47-2.36,2.39-2.26,3.57-3.39,5.94-5.66,1.01-.97,1.41-2.2,2.94-3.25-3.32.16-6.33,1.72-8.77,4.64-2.12.35-3.43,1.87-3.41,4-2.07,2.7-5.09,5.37-4.12,9.27,1.59-1.99,2.73-4.5,4.64-5.99ZM782.18,98.44c1.59-2.55,1.33-5.58.25-8.21-1.08,2.93-.53,5.35-.25,8.21Z"/>
        <path d="M800.84,321.03c-2.36,5.17-.13,9.23-2.27,13.31-.05-1.08.31-1.89-.76-2.3-.16,3.62-.58,6.55-3.04,9.18-.62-2.3-.93-3.45-1.56-5.74-1.09,3.33-1.35,6-2.83,8.65-.15.81-.22,1.22-.37,2.04-.12.67-2.6.18-3.04,1.35-.34.91-.26.05-.78-1.65-.62,1.06-1.93,1.86-3.08.87-1.08-.93-2.37-1.05-3.48-1.49.23-1.25,1.48-.34,1.57-.82.09-.49-.13-1.28-.72-1.46-1.94-.59.39-3.15-.36-4.81-.22-.48-1.01-.85-1.69-1.38.42-6.79.84-13.59,1.26-20.38-.4-.72-.6-1.08-1-1.8-.17-.31.87-1.26,1.26-1.73-.6-2.06-.9-3.1-1.5-5.15-.22-.76-.04-2.13.31-2.72.29-.49,1.24-.24,1.86-.82-.73-.29-1.1-.44-1.83-.73-.49-.19-.67-1.33-.62-2.26.21-4.15.32-6.23.53-10.36.12-2.29.13-3.96.1-5.93-.11-7.78-.22-15.56-.34-23.33-.06-3.66.05-6.97.4-10.59-.2-2.89-.3-4.33-.5-7.21-2,1.04-3.49,1.36-5.59,1.31-1.88.49-2.83.74-4.72,1.23-1.71.45-3.52-1.15-5.05-1.66,2.57-1.39.09-.74-1.72-2.76,1.36-.35,1.8-.88,1.86-1.45.23-2.29-2.06-1.61-3.79-3.51.55-.43.93-.93.85-1.12-.16-.37-.24-.55-.4-.91-.12-.26.96-1.21.82-1.62-.23-.72-.96-1.06-1.48-1.27.88-1.34,1.32-2.01,2.19-3.36,3.71-5.62,9.65-7.24,14.72-10.34,6.31-3.86,13.19-7.19,19.94-10.41,11.05-5.4,22.09-10.85,33.12-16.32,3.8-2.17,5.69-3.26,9.46-5.43.48.86.47,1.67.51,2.9,1.77-.64,2.66-.96,4.42-1.6-.28,2.49-.74,4.74-1.52,6.41.27.68.5,1.96.35,2.69.61.64,2.03-.11,2.42-1.17.48.33.48.95.33,1.53-.13.5-.62,1.15-1.56,1.48-.8.68.15,1.54.6.54.58-.63,1.28,0,.96.9-.76,1.05-2.14,1.53-3.2,2.1,1.13.53,2.23.47,1.51.65-1.44,1.51-2.16,2.26-3.6,3.77,1.11.81,2.25.5,4.16-.38-.8,2.58-3,3.34-4.9,4.76-1.67,1.25-2.5,1.88-4.18,3.14-2.6,1.95-5.69,4-8.49,5.54-4.37,2.41-6.57,3.62-10.98,6.04-4.46,2.27-9.19,4.55-13.21,7.74-.1,4.81-.15,7.22-.26,12.06-.05,2.33-.09,4.27-.23,6.55-.13,2.14.59,4.19-.97,6.56.89.38,1.14.14,2.14-.06-.89,1.33-1.25,2.51-1.26,4.05-.04,7.48-.09,14.96-.15,22.44,0,1.25-.31,2.18-1.52,2.86,1.66.84,1.91,2.97,1.24,4.75-3.48-.01.57,2.15-.29,4.99-.15-.7-.18-1.33-.81-2.02-.39,2.17-.41,3.37.04,4.51.01-1.61,1.45-1.36.82-.18.73,5.12.93,10.09.36,15.22-.4.41-.6.62-1.01,1.03.3.42.45.62.74,1.04.33.47-.56,1.35-.85,1.81-.35.56.52,1.62.65,2.24Z"/>
        <path d="M647.47,114.7c-.62.03-2.16-.74-1.91-1.3.66-1.5,2.42-.4,3.13-.5,1.1-.15,1.13-1.97.45-2.6,1.75.07,2.79.32,4.03-.13,9.08-3.32,18.37-4.95,28.02-5.77-.14.87-.97.99-1.4,1.14,3.46,1.39,5.75-2.34,10.57-.72-.75.79-1.13,1.18-1.88,1.97,3.52,1.58,7.41,1.27,11.62,1.14.67-.02,1.81,1.43,3.02.45.23.73-.03,1.45-.47,2.22,1.67.1,2.51.14,4.18.24.76.82,1.36,1.84,2.51,2.02-3.56,1.67-5.29,4.67-4.76,8.29-6.26,2.87-11.75,1.92-11.92,2.06-.51.4-.86,1.36-.83,2.47.16,7.05.32,14.1.48,21.15.04,1.7.68,3.17.73,5.2.21,8.64.41,17.27.62,25.91.07,2.87.33,5.04,1.33,7.61.4,3.57.6,5.36,1,8.94,4.32-.17,9.07.39,10.3,2.59.53.95.23,2.14-.38,3.21,1.82,1.6,2.73,2.4,4.55,4-2.14,1.72-1.55,3.68-1.79,5.4-.39,2.77-3.6,2.79-5.52,3.53-4.13,1.59-7.95,2.87-12.41,3.03-3.38.12-6.5.8-10.01,1.37-3.2.52-4.8.78-8.02,1.31-2.67.43-6.27,1.05-7.68,1.18-1.77.16-2.66.24-4.43.41-4.75,1.64-9.25,1.23-11.59-2.09.87-.42,1.36-.28,1.73-.28.35,0,.74-.66.19-.97-.28-.15-1.63-.42-1.35-.56.72-.35.55-.99.1-1.2-.29-.14,1.35-.35,1.71-.7-1.18-.4-2.23-.74-2.66-1.71-.46-1.03-.71-2.63.5-3.29.51-.27,1.6-.31,1.78-.6.27-.46-.33-1.31-.68-1.74.27-.33.41-.5.68-.83.38-.46-2.14-1.32-2.07-2.99.04-.98,1.21-1.42,2.88-1.56-.99-.73-1.46-1.49-1.05-2.36.37-.76,1.13-1.91,2.23-2.02,3.09-.32,4.63-.48,7.7-.8,2.27-.24,4.3-1.06,6.78-1.08-.22-3.49-.33-5.23-.55-8.72.38-8.1-.36-16.18-.85-24.25-.4-7.92-.8-15.85-1.19-23.77-.02-2.91-.02-4.36-.04-7.27,0-1.68-1.26-2.92-2.16-4.51-1.72,1.3-3.32-.21-4.35-.12-4.63.38-8.79,1.43-13.11-.02.28-1.49.42-2.24.71-3.73.12-.66,1.57-.85,2.53-1.14-2.64-.24-3.87-2.53-3.39-5.17-.74.18-1.59.08-1.67-.82,1.79.46,3.26.16,3.76-1.02.07-.16.17-.31.27-.48ZM687.06,107.33c-.16,0-.24,0-.41.01.16,0,.24,0,.41.01h.42c.16,0,.24,0,.41-.01-.16,0-.24,0-.41-.01-.17,0-.25,0-.42,0ZM647.85,115.03c-.19.13-.29.2-.48.33.83.5,1.95.59,2.88-.07-1.08-.71-1.81-.36-2.4-.27ZM661.52,126.55c-.72-.82-1.62-.44-1.95-.03.63.45,1.31.48,1.95.03Z"/>
        <path d="M717.52,302.69c-1.07,2.24-.56,4.32-.36,6.39.17,1.73-2.01,2.09-2.97,2.04-1.57-.1-2.17-.49-2.64-3.01-.97,2.01-2.14,3.36-3.4,3.09-.24-.28-.72-1.22-1.04-1.28-1.45-.31-1.87,2.85-3.62,4.5-2.76-3.49-4.14-5.22-6.91-8.68-1.83-2.29-3.27-4.45-4.65-7-2.63-4.85-5.27-9.69-7.92-14.52-.65-1.18-1.58-1.83-2.3-3.24-1.11-2.16-1.66-3.24-2.78-5.4-.09,1.22-.76,1.88-.96,2.16-.16.22.7.18,1.14.16-.34,4.49.41,8.89.8,13.47.2,2.37-.46,4.72.4,7.02.47,1.25-.71,2.31-1.79,2.63-.87,2.81-.22,6.33.78,9.16.21,2.43.32,3.65.53,6.09,1.87-.88,2.73-.65,3,.49.35,1.45.31,2.42-1.39,2.84-.11.29-.16.43-.27.72-.33.89-1.68-.7-3.02-.6-1.86.15-1.06,4.25-3.56,4.41-3.18.21-3.78-4.61-5.84-1.96-.47-3.61-.7-5.42-1.17-9.02-.22-1.7-1.32-3.04-1.45-4.57-1.09-13.55-2.21-27.1-3.34-40.64-.51-6.14-1.03-12.28-1.55-18.42-.11-1.26,1.39-2.25,2.39-2.63-.33-6.24-1-12.41,2.79-11.65.18-1.45.6-2.58,1.67-3.2,2.19-1.27,4.73,3.52,7.13.9,3.46,6.5,6.89,13.01,10.3,19.54,3.38,6.65,6.73,13.31,10.06,19.99,1.36,2.73,1.79,5.86,4.93,7.44-1.69-5.36.54-10.77-1.68-15.84.52-.18,1.05-.94.85-1.12-.48-.43-.71-.64-1.19-1.06-.41-.37-.2-1.21.21-1.94.7-1.26.09-2.42-1.09-2.77.49-.23.73-.35,1.21-.58.27-.13.44-1.05.4-1.51-.39-4.29-.59-6.44-.98-10.72.04-5.69.05-8.53.09-14.21.01-2.11.5-4.33.02-6.43,1.09-.57,2.8-1.36,2.12-3.25,1.1-.32,1.65-.48,2.75-.8-.26-1.2.85-2.84,2.01-2.63.21.92,0,2.6,1.34,3.02.99.31,2.45.33,3.38-1.13,1.75,1.32.69,3.37,1.19,4.55,1.38,3.26,2.21,5.99.83,9.82-.35-.6-.52-.89-.86-1.49-.43,3.68-1.17,7.57.43,10.66,1.76,3.4,2.6,6.59,1.85,10.56.67-.01,1.34.37,1.41.64.08.35-.82,1-.89,1.43-.09.57.44.95.51,1.19.07.24-.33.79-1.07,1.08.54.19,1.41.47,1.58.94.21.56-.2,1.77-.13,2.56.75,8.18,1.49,16.36,2.23,24.54.18,2.04,1.31,4.42,1.29,5.95-.02,2.15.32,3.06.84,5.07.82,3.17-.11,6.91-.26,10.48-.9-1.47-.62-3.21-.97-4.75-.17.2-.26.3-.43.51ZM717.78,301.84c.08-1.25-1.29-.7-.85.15.34-.06.51-.09.85-.15Z"/>
        <path d="M713.29,333.49c1.84-.53,3.6-1.12,5.77-1.45,15.75-2.36,31.63-3.32,47.45-2.19,1.91.14,4.05.22,5.12,2.45-6.05.31-12.11.61-18.16.91-4.14-.06-6.22-.09-10.37-.14-10.44-.11-23.53,4.98-31.21,2.63-.28-.08-.27-.7-.28-1.44-1.7.7-2.96.99-4.15.22,2.07-.32,3.11-.48,5.18-.81.26-.08.39-.11.65-.19ZM713.56,333.81c-.23.16-.34.24-.57.4-.05.71.38.84.91.62.33-.13,1.3-.26,1.09-1-.08-.3-1.34-.13-1.43-.03Z"/>
        <path d="M840.5,241.06c-4.42,6.03-9.57,11.29-14.86,16.31-3.66,3.51-7.32,7.02-11,10.51-1.22,1.16-2.69,2.84-4.47,2.24-.88-1.22.79-3.13,1.45-4.36,2.5-4.67,3.74-7,6.21-11.64,2.52-5.12,3.77-7.68,6.25-12.77.91-1.86,1.5-3.56,3.45-3.54,1.16,3.25-.93,4.9-2.17,7.04-3.67,6.36-7.15,12.98-11.23,19.03-.5.74-.71,2.07-.92,3.03,2.95-1.92,4.51-5.24,6.91-7.72,1.85-1.9,2.77-2.85,4.6-4.75,3.44-3.71,6.88-7.42,10.31-11.15,1.36-1.48,2.91-2.93,5.46-2.23Z"/>
        <path d="M832.72,311.32c-2.95,2.15-4.43,3.23-7.4,5.38-2.03,1.47-4,4.62-6.81,3.97,4.95-6.32,10.75-10.82,16.55-15.68,4.7-3.94,9.39-8.84,15.34-10.61-.01,3.34-2.78,4.76-4.89,6.49-4.27,3.47-8.53,6.96-12.79,10.45Z"/>
        <path d="M811.55,188.15c-2.99,3.76-8.07,8.32-12.96,7.68,1.02-1.99,2.74-1.96,3.88-2.84,3.88-3,10.35-13.26,13.12-12.3.38.13.47,1.74-.32,2.4-1.66,1.39-2.43,3.45-3.71,5.05Z"/>
        <path d="M816.05,192.18c-1.48-.2-2.43-1.61-2.23-2.66.26-1.37.51-1.77,1.81-2.77,2.9-2.23,4.91-5.18,7.14-2.34-1.34,3.16-3.97,6.41-6.72,7.76Z"/>
        <path d="M681.8,307.33c1.03,2.1.66,4.13.61,5.81-2.49-2.31-2.54-5.99-.61-5.81Z"/>
        <path d="M682.37,314.22c.12.13.17.2.29.33-.14.14-.21.22-.34.36-.11-.15-.17-.23-.29-.38.14-.12.2-.19.34-.31Z"/>
        <path d="M802.29,55.09c.13.14.19.21.32.35-.13.14-.2.21-.34.35-.13-.14-.19-.21-.32-.35.13-.14.2-.21.34-.35Z"/>
        <path d="M802.97,53.68c.13.14.19.21.32.35-.13.14-.2.21-.33.35-.13-.14-.19-.21-.32-.35.13-.14.2-.21.33-.35Z"/>
        <path d="M762.36,293.7c-.68,2.1-.2,5.16-1.51,7.46-1.25,2.18-1.87,3.27-3.12,5.46-.6,1.05-2.37,1.57-2.03,3.07-3.1,1.98-7.27,2.63-10.62,3.34-9.5,2.01-13.33-8.79-17.88-15.79-1.09-1.68-1.05-4.68-2.71-6.81-1.76-2.27-2.06-4.81-3.26-6.27.15-.84,1.39-2.55.13-3.49-.06,1.59-1.47,1.3-1.02.11-.19-.68-.37-1.25-.35-1.75.02-.55.77-1.02,1.13-1.37.15-.14-.58-1.07-.69-.88-.34.57-.5.85-.84,1.42-.16-2.11-.24-3.16-.4-5.26-.04-.51-1.11-1.19-.91-1.53.48-.8.72-1.21,1.2-2.01-.57-.03-.86-.05-1.43-.08-.37-.02-.72-1.7-.34-2.1,1.37-1.42.17-3.33.22-4.46.13-3.1.37-6.06-1.04-8.89.55-2.57.12-5.33.16-5.79.25-2.9.38-4.35.63-7.25.59-7.72,2.78-15.37,7.38-21.23.51.95,1.09,1.07,1.41.13.5-.92,1.19-2.19,1.83-2.5.94-.45,2.46.3,3.38.38.28-.6.14-1.12.15-1.37.02-.25.91-.68,1.12-.56.27.16.03,1-.03,1.47,1.45-1.17,2.15-1.29,3.48-.88,4.61,1.44,6.9,2.16,11.48,3.6.29.45.88,2.41,1.94.58,1.06,1.31,1.59,1.96,2.65,3.27,2.92,5.48,4.94,11.88,6.5,18.03.63,2.89.94,4.34,1.57,7.24.9,6.3,1.81,12.61,2.71,18.91.29,1.82.44,2.73.73,4.55.34,2.12-1.36,6.39.18,9.21-.31,1.02-1.79,2.39-1.44,3.73.35,1.34.36,2.63,1.98,3.71-.74.45-1.45.36-1.47.62-.12,1.39-.18,2.08-.3,3.48.15.24.23.36.38.6.03.1-.25.71-.56.19-.06-.1-.15-.25-.37-.29ZM747.24,282.29c.8-7.72,1.68-14.47.35-21.59-.24-1.25-1.3-2.37-1.48-4.69-.08-1.04-.12-1.56-.2-2.59-.13-1.68-.67-4.13-.25-5.96.45-1.95-.81-3.51-.8-4.77.02-2.9-.52-4.87-2.45-6.94-.48-1.08-.72-1.62-1.19-2.7-.35-.79-1.69.09-2.42.06-2.57-.12-3.12,1.68-3.86,3.49-1.27,3.1-1.59,5.49-1.71,8.73-.11,2.86-.48,5.78-.43,8.8.22,11.78,1.4,25.27,6.27,35.75.65,1.4,2.66,2.37,3.96,2.81,1.83-2.3,4.01-8.3,4.23-10.41Z"/>
        <path d="M676.45,333.14c.12.13.17.2.29.33-.14.12-.2.18-.34.31-.12-.13-.17-.2-.29-.33.14-.12.2-.18.34-.31Z"/>
        <path d="M690.17,334.2c-1.65.19-3.21.66-4.96,1.79-1.76-1.79-4.13-1.77-6.84-1.3-1.35.23-1.08-1.53.17-.88,1.25.55,1.9-.72.28-1.26,1.73-1.75,4.19-2.77,6.98-3,.78-.6,1.17-.9,1.95-1.5,23.72-7.03,71.89-7.63,71.89-7.63,0,0,3.96,2.12,6.71,3.81-1.22.59-1.83.88-3.05,1.47-1.61.35-2.41.53-4.02.88-20.98-.08-41.69,1.77-62.04,6.94-2.31.59-4.18,1.57-6.42.15.07.25.11.38.18.63-.11.23-.17.34-.28.57-.22-.27-.32-.4-.54-.67Z"/>
      </g>
      <g>
        <path d="M1123.07,356.96c-.3-.05-.45-.08-.75-.13.3.06.45.1.75.16l.78.15c.3.05.45.08.75.13-.3-.06-.45-.1-.75-.16-.31-.06-.47-.09-.78-.15ZM1145.98,370.46c-.74-.12-.93.4-.2.74.08-.3.12-.44.2-.74ZM1146.85,372.15c.25-.12.38-.18.63-.3-.62-.75-1.55-.3-.63.3ZM1150.34,373.66c0-.31-.36-.63-.81-.71-.45-.09-.83.09-.83.4s.36.63.81.72c.45.09.83-.09.83-.4Z"/>
        <path d="M994.51,289.73c-1.01,3.8-1.51,5.71-2.53,9.53-4.25-4.19-1.38-8.79-2.8-13.87-2.7.27-2.74-2.13-.15-.81,2.21-2.15-1.49-3.93-2.46-5.98-1.98-4.23-3.95-8.45-5.92-12.68-.34,1.2.16,2.75-1.59,2.93-1.22-14.93,0-29.4,1.03-44.29.83-13.3,1.67-26.6,2.54-39.9.13-1.95.92-3.43,1.12-5.78.64-7.32,1.28-14.63,1.92-21.95.3-4.47.44-6.71.74-11.18.59-4.87,1.19-9.73,1.78-14.6.58-1.62.86-2.43,1.44-4.05.32-5.08.47-7.62.79-12.7.04-.6-1.27-2.2.44-2.44,1.17-.16,3.1.32,3.94,2.03.59-1.08.89-1.62,1.48-2.7.51-.94,7.65-.74,7.42-.9,1.05.76,1.57,1.14,2.62,1.9.26-.88.37-1.64.87-2.08,1.05-.9,7.85.38,8.77,1.58.59.77,1.8,2.38,1.67,3.65-2.12,20.9-3.79,41.8-4,62.87-.02,7.88-.01,15.76,0,23.64-.09,3.7-.14,5.55-.23,9.26.18,4.21.24,9.55-1.61,13.34-.82,1.67,1.58,3.57,1.5,4.81-.41,5.88-.82,11.76-1.22,17.65-.19,2.8.78,5.65-.11,9.01-.57,2.15-.85,3.23-1.42,5.39-1,3.82-.37,7.15-2.14,10.82-.49,3.85-.74,5.78-1.23,9.66-.04.31-1.04.01-1.35-.08-.47-.14-.4,1.2.08,1.45,2.66,1.38.24,2.4.05,3.12-1.07,4.02-1.61,6.03-2.68,10.07-.67,2.51-.84,4.51-4.24,5.57-.23-5.41-.45-10.83-.67-16.24-2.55.77-3.46,2.36-3.88,3.94Z"/>
        <path d="M998.44,89.19c-1.36.31-3.19.38-3.77.12-.81-.35-.83-1.73-.67-2.88-.93.66-1.48,1.36-2.35,1.51-.82.14-7.87-2.52-8.56-4.04-.91-2-.38-3.46.09-5.43,1.24-5.14,2.47-10.27,3.7-15.41.43-1.79,4.12-1.75,6.15-1.04-.94-1.96-.17-2.95,2.49-4.67.6.79,2.82,1.26,4.41,1.38,1.89,2.03,5.08,1.87,7.87,2.44,1.08.97,2.34,3.24,4.74,3.63.85,6.37.2,12.97-1.72,19.02-1.32,1.31-1.97,1.97-3.29,3.27-3.64.84-5.49,1.26-9.08,2.08Z"/>
        <path d="M1014,70.75c1.56,3.08,3.52,5.85,5.51,8.32-1.05.73-1.54,1.17-2.2,1.26-.67.09-1.41-.48-1.97-1.32-1.49-2.23-2.23-3.34-3.72-5.57-.9,1.15-.4,2.04-.21,2.82-.05.4-.34.51-.42.51-.37-2.12-.55-3.18-.92-5.3-1.39,2.63-2.09,3.94-3.48,6.55-1.47,1.4-2.2,2.1-3.67,3.49-1.53-1.71-.46-3.14.36-4.54,1.43-2.43,2.14-3.65,3.57-6.09-2.67.36-4.01.53-6.68.89-.43.06-1.12-.41-1.15-.73-.12-1.35,5.23-2.5,9.61-3.09-1.69-3.24-2.53-4.86-4.2-8.09-.31-.59-.26-1.36,0-1.62,1.26-1.28,3.63,2.47,5.67,6.28,1.46-2.55,2.18-3.83,3.64-6.39.31-.55,1.23-.92,1.61-.83.38.09.65,1.52.43,2.03-1.34,3.12-2.01,4.68-3.36,7.79,2.67,1.17,5.25-1.18,8.18,1.27-2.04,1.07-3.88,1.28-6.04,1.64-.23.28-.34.42-.57.71ZM1014.07,69.91c-.29-.33-.71-.16-.73.32.29-.13.44-.19.73-.32Z"/>
        <path d="M843.84,138.52c.8.5,1.2.76,2,1.26.77.49.37,2.87-.49,2.51-6.49-2.67-12.97-5.34-19.48-7.95-4.37-1.71-8.75-3.41-13.12-5.11-1.58-.61-2.73-2.14-3.14-3.81,1.67-.38,3.09,0,4.51.61,2.95,1.25,5.98,1.63,8.91,2.82,5.3,2.14,10.59,4.34,15.88,6.53,1.84.76,3.07,1.97,4.92,3.14Z"/>
        <path d="M842.93,155.84c-5.78-1.22-11.57-2.44-17.36-3.6-3.63-.56-5.44-.83-9.07-1.39-.87-.13-1.28-.41-1.69-.7-.54-.38-.62-2.52,0-2.52,7.33,0,14.61,1.2,21.89,2.91,2.48.59,4.95.91,6.93,2.93.39.4-.11,2.13-.69,2.36Z"/>
        <path d="M1160.03,357.05c.59.92-.39,2.64-2.11,2.65-4.05-3.77-7.1-8.6-10.04-13.47-4,1.06-8.01,2.11-12.01,3.18-.9-.05-1.36-.08-2.26-.13-.65-.04-2.23-1.61-1.76-1.92,3.82-2.51,12.32-4.3,12.6-4.98.44-1.09-7.44-6.4-8.23-12.31,1.89-.07,4.99.89,6.13,2.38,2.66,3.46,3.99,5.19,6.65,8.66,3.79-1.88,13.8-3.77,14.11-2.61.33,1.25-7.44,4.9-11.21,5.91,2.71,4.21,5.42,8.42,8.13,12.64Z"/>
        <path d="M1012.3,317.72c-6.07,2.17-7.31,4.1-8.35,1.16-.79-2.24,6.29-3.58,8.82-4.57,10.24-4.04,20.64-7.29,31.28-9.79,9.8-2.3,19.31-4.33,29.37-4.6-2.65,1.97-6.84,1.99-10.26,2.82-8.78,2.11-17.55,4.22-26.33,6.33-8.22,2.72-16.37,5.74-24.53,8.66Z"/>
        <path d="M842.1,163.68c-5.97.52-11.94,1.05-17.91,1.59-.92.08-1.54-.06-1.83-.4-1.79-2.1,20.04-5.21,21.03-2.98.16.36-.42,1.71-1.29,1.78Z"/>
        <path d="M1021.78,323.9c-3.55-3.06,1.39-3.32,2.99-4.17,4.81-2.58,10.02-3.75,15.24-4.8,7.56-1.63,15.11-3.25,22.67-4.88.88-.02,1.31-.02,2.19-.04,1.02-.02,1.49.56,1.42,1.09-.12.94-.9.97-1.96,1.23-6.73,1.6-13.46,3.19-20.19,4.79-7.64,1.81-14.99,3.82-22.35,6.78Z"/>
        <path d="M832.44,178.99c-.22-1.38.75-2.72,2.04-3.54,3.19-2.03,5.99-5.04,10.05-4.85-2,2.47-4.66,3.57-7.08,5.14-2,1.3-3,1.95-5,3.24Z"/>
        <path d="M1165.78,4.62c-.56-.99-1.75-1.53-2.6-2.19-.58-.45-.03-2.02.4-2.29.67-.42,1.25.07,1.88,1.12.68,1.15,1.59,2.53.32,3.35Z"/>
        <path d="M885.71,189.98c-.17.14-.26.22-.43.36.2.1.29.15.49.25.05-.04.07-.06.12-.1,0-.17,0-.25,0-.42-.07-.04-.11-.06-.18-.09ZM877.01,174.24c-.02-1.5-.03-2.24-.04-3.74-.34,1.23-.37,2.45.04,3.74ZM877.1,183.13c-.01-1.27-.02-1.91-.03-3.17-.46,1.3-.85,2.35.03,3.17ZM858.65,130.06c.13-4.01.2-6.02.32-10.04-.41,2.82.37,6.26-1.11,9.26.3.26.56.52.79.78ZM863.84,270.33c-.41,1.15-.61,2.26-.68,3.34-.21,3.27.76,6.3.69,9.37.28.32.7.41.82.42.36-2.57.54-3.86.89-6.42.05-.2.07-.3.12-.51-.77-2.45.17-4.46-1.84-6.2Z"/>
        <path d="M984.97,63.98c-1.65-1.57-2.47-2.36-4.11-3.93-2.07-1.99-7.43-1.64-9.69-.11-.92-1.35-1.45-2.83-2.45-2.99-.85-.14-3.15.19-3.75.63-1.7,1.27-2.55,1.91-4.24,3.17-.93.7-1.97,1.37-3.34,1.02-.68-.17-1.58-.72-2.53-1.41-2.23,3.79-4.47,7.57-6.72,11.34-.99,1.66-2.26,2.07-2.44,4.12-.22,2.52-2.62,5.09-3.8,7.5-.28.57-2.41.93-2.16,1.42.19.37.95,1.52.76,1.95-2.01,4.38-4.02,8.75-6.05,13.12-1.21,2.61-1.67,5.27-4.07,6.99,2.6,1.01.72,2.52-1.39,1,.76,1.99.01,3.25-.77,5.13-1.88,4.53-2.82,6.79-4.71,11.3-.74,2.28-1.1,3.42-1.84,5.7-1.14,2.3-1.71,3.45-2.86,5.75-1.11,2.23-1.24,4.64-3.82,6.82-1.85-1.07.23-2.93-.17-3.88-.58-1.39-.91-3.08-1.31-4.95-1.13-5.24-1.69-7.85-2.82-13.08-.6-2.79-.09-5.02-1.28-7.72-.91-2.08-1.36-3.11-2.27-5.19-1.32-4.48-1.98-6.72-3.29-11.2-1.38-4.72-2.76-9.43-4.13-14.15-1.12-3.85-4.08-7.31-4.42-11.37-2.98-.56-3.8-1.95-5.58-3.16-2.79-1.9-7.63,2.17-9.21,2.5-.73.16-1.68-.43-2.53-.72-1.85.67-3.1-.25-4.9-1.8.34,2.15.51,3.22.85,5.37.05.33-1.22.79-1.38.61-.17-.2-.28-.85-1.31-1.42-.9,8.61-1.81,17.22-2.75,25.82-.76,3.44-1.14,5.15-1.91,8.58-.42,4.06-.64,6.09-1.07,10.15-2.59,24.22-5.35,48.42-8.26,72.59,0,14.03.86,28.86-.88,42.4-1.22,9.48-3.26,19.33-5,28.97,3.96-1.04,6.38-.25,7.86.95.16-1.07.45-2.17.96-3.28,1.93,1.91.8,3.84,1.4,6.35.56-1.78.84-2.67,1.39-4.45-.1,1.58-.48,3.09-1.38,4.54,0-.03-.01-.06-.02-.09-.06.2-.09.3-.16.5.14.01.67.19.8.61-.12.8-1.12,2.63.49,3.31,1.37.57,2.05.86,3.42,1.43.97.4.84,1.66.39,2.69-.37.84,2.39,1.31,2.45.9.04-.3-.36-1.27.91-1.22.76.03.85,2.25,1.42,2.03,1.13-.42,1.58.36,2.27.41,1.18.07,1.61-1.65,1.66-2.28.5-5.77.99-11.53,1.48-17.3.38-2.7.56-4.04.94-6.73.22-2.31.34-3.46.56-5.75.27-2.76.34-6.07,2.24-8.2.7-.78,1.05-1.17,1.74-1.95.49-.55-.48-1.5-1.58-2.3,2.65-1.28,3.41-4.36,1.56-6.55-2.25-.39-1.04-1.9.89-.92.72-2.39,2.07-4.52.38-7.4-.52,2.21-.14,4.48-1.71,6.51-.75-3.74-.44-7.65,2.22-8.71-2.61-2.09-1.72-4.82,1.42-6.06.87-4.77,1.31-7.15,2.17-11.91.47-5.23.93-10.46,1.39-15.68-.05.04-.08.06-.13.09-.19-.12-.29-.18-.48-.3.19-.13.28-.2.47-.33.07.04.11.07.18.11.42-4.8.84-9.6,1.25-14.4-.49-4.21-3.24-13.31,2.98-13.78.31,3.46.47,5.2.78,8.66.17,1.85.47,2.67.75,4.24,1.33,7.46,2.65,14.93,3.98,22.39.06.32,1.56,1.07,1.36,1.29-.21.23-.76.6-1.65.98,2.72,1.43,1.84,3.18,2.07,4.79.76,5.2,1.53,10.4,2.29,15.6.67,2.55,1.01,3.86,1.69,6.45,2.96.19,4.59-.74,6.41-2.45.45,1.91,1.04,3.35,2.93,4.89,1.09-1.77,1.34-3.64,2.98-4.59,1.61-.62,4.65-.42,5.76-1.62,1.67-4.87,2.5-7.28,4.16-12.1.94-2.72,3.74-4.48,1.14-7.54,1.37.27,1.75.11,2.05-.06.23-.13.56-.7.68-1.07,3.52-10.7,7.01-21.42,10.47-32.15.37-1.14-1.76-3.41.31-4.5,1.22-.64,3.01-1.17,2.89-2.34-.12-1.12-.43-1.79-1.35-3.68.96-.14,1.77.39,1.81,1.61.32-.72-.08-1.8,1.76-2.25-.39,4.7-.79,9.4-1.18,14.09-.46,4.25-.69,6.38-1.15,10.64-.5,5.7-.99,11.41-1.49,17.11-.18,2.04-1.52,3.14-1.63,5.01-.21,3.74-.32,5.61-.53,9.35-.65,8.14-1.29,16.27-1.94,24.41-.17,4.05-.26,6.08-.44,10.16-.27,7.65-.53,15.3-.81,22.95-.1,4.96-.15,7.44-.25,12.44-.03,1.21-.37,2.69,1.59,3.15.36.26.55.4.91.66.47.29,1.51.06.53-.63-.14-.07-.29-.17-.4-.29-.83-.93.65-1.58,1.66-.66,1.05,3.42.6,6.69.51,9.9,1.98.11,3.08.68,5.43,1.24-1.09-1.21-1.22-2.95,0-3.13,2.43,1.11,2.62,3.23,3.05,5.42,1.09-1.2,1.64-1.79,2.73-2.99.92,1.17,1.38,1.76,2.3,2.93,1.26-1.13,2.51-1.88,4.2-1.51,1.7.37,2.56.56,4.26.93-2.58-2.61-1.6-3.22-.42-4.71,1.03-1.3,2.43-1.26,5.78-.57.34-3.78.51-5.66.85-9.42.03-.32,1.81-.68,1.56-.94-.53-.57-.79-.85-1.32-1.42-.71-.76-.5-1.99.3-2.33.43-.18.77.15,2.41-.03-1.56-.93-2.56-1.76-2.29-2.07.47-.53.71-.79,1.18-1.32-.79-1.02-1.19-1.53-1.98-2.55-.42-.55.57-1.43,1.27-2-.62-1.65-1.87-3.72-.66-5.03.84.47,1.26.7,2.1,1.17,2.04,1.13-2.17-2.45-2.36-2.93-.42-1.04-.24-1.52.73-1.74-.21,2.05,2.16,1.93,1.96.45-3.78-1.95-3.32-3.35-3.22-5.52.45-9.18.91-18.35,1.36-27.53.43-5.97.85-11.94,1.28-17.9.17-2.38.89-4.19-1.57-6.35,1.68-.9,1.33-2.42,1.41-4.23,1.68-40,7.21-79.69,14.14-119,.56-3.19,1.4-6.74-1.42-9.45ZM881.3,159.34c-.09,1.51-.14,2.27-.24,3.78.06.26.13.52.23.78.72,2.01.01,3.64-.6,4.99-.08,1.28-.12,1.92-.21,3.2.26.28.64.54,1.18.79-.63.02-1.01.18-1.26.42.03-.48.05-.73.08-1.21-.85-.9-.36-1.94.21-3.2.15-2.31.22-3.46.37-5.77-.32-1.33-.21-2.56.24-3.78.09-1.36.13-2.05.21-3.41.4.2.85.38,1.37.55-.69.97-1.24,1.91-1.58,2.85ZM964.49,282.8c-.45-.59-1.08-1.4.04-2.54.16.23,1.44,1.03-.04,2.54Z"/>
        <path d="M886.19,190.23c-.12.11-.18.16-.31.26-.05.04-.07.06-.12.1-.2-.1-.29-.15-.49-.25.17-.14.26-.22.43-.36.07.04.11.06.18.09.12.06.18.09.3.16Z"/>
        <path d="M887.42,188.52c.3.09.45.13.75.22-.27.16-.41.24-.69.4-.19-.1-.29-.15-.49-.25.17-.15.26-.22.43-.36Z"/>
        <path d="M1126.08,317.79c.78-.36,1.17-.54,1.95-.9-3.92-1.91-7.44-5.87-10.25-9.42-1.65-.58-2.47-.88-4.11-1.46.17.06-2.95-5.55-2.02-9.08-7.94,1,.11,11.63-7.09,13.16-.74-.71.03-1.6-.65-1.9-1.14-.49-3.74-.44-3.48.96.1.53,0,1.89-.78,1.89-.66,0-2.01-.73-3.52-1.54-.03,1.15-.63,3.84-2.94,3.85-1.98,0-4.54-2.83-4.75-4.46-1.86.9-2.79,1.35-4.64,2.24-1.23-5.59-2.47-11.19-3.69-16.79-.62-2.5-1.24-4.8-4.82-6.69-2.57-10.4-5.13-20.8-7.68-31.2-.57-2.32-2.22-3.73-2.96-5.03-4.26-14.18-8.5-28.38-12.71-42.58-.87-3.15-1.3-4.72-2.16-7.85-.94,1.58.25,3-1.92,2.71.17-1.58.07-3.04-2.22-4.34-1.67,3.09.16,6.29.16,9.46.01,8.87.03,17.74.05,26.61-.41,11.17-.81,22.34-1.2,33.51-.6,3.53-.9,5.3-1.5,8.84-.33,1.96.44,6.04-2,6.94-2.75.89-5.88.72-6.41,3.42-2.93-2.14-4.14-2.11-5.6-1.44-1.85.86-2.27,1.36-1.76,4.08-2.4-1.25-1.45-2.4-1.47-3.61-2.75-1.39-1.58-3.16-3.93-4.13-.62-.25-1.08.47-2.84.65-.19-9.57-.37-19.13-.54-28.7.08-3.17.12-4.76.21-7.92.23-7.29.48-14.58.73-21.88.76-.34,1.13-.51,1.89-.85-.66-.59-1-.88-1.66-1.47.13-3.83.19-5.74.32-9.56.19-.31.63-.42,1.12-.28.48,1.67-1.09,3.33.62,5.37.93-2.81.86-5.03.61-8.1-.97.42-.56,1.3-1.69,2.18-1.06-3.81-.51-6.93,1.03-6.06.96.54,1.63-.39,1.02-.61-.65-.23-2.28-.95-2.13-1.3.3-.71,1.47-.3,1.89-.16.51.17.65-1.27.2-1.31-.84-.08-1.26-.12-2.1-.21.52-6.96,1.06-13.93,1.61-20.89.23-8.16.48-16.32.73-24.49,1.08-17.12,2.2-34.23,3.33-51.35,2.31-4.53,3.47-6.8,5.78-11.36.52-.7.79-1.06,1.31-1.76.29-.39,2.65-.4,2.73.13.24,1.52-.84,2.97.14,4.94,2.36-.36,3.54-.55,5.91-.91,1.61,4.42,3.22,8.83,4.84,13.24.57,1.55,1.83,2.56,2.41,4.71,3.05,11.24,6.13,22.48,9.22,33.71,1.61,5.14,3.22,10.27,4.83,15.41.42,1.48.63,2.22,1.06,3.69.97,4.76,1.67,10.82,4.6,14.68,1.07,3.54,1.6,5.32,2.68,8.88,1.98-.68.19-2.71.2-3.89.02-5.93.05-11.85.08-17.78.05-2.12.07-3.18.12-5.3-.09-4.94-.13-7.4-.22-12.34.25-6.66.37-10.83-1.46-17.19,1.04-.36,1.83-.9,2.09-1.33.3-.49-1.34-1.61-1.58-2.4-.95-3.08-.32-6.5-.57-9.63-.18-2.29-.27-3.43-.45-5.72-.31-4.83-.47-7.25-.78-12.09-.29-5.96-.58-11.93-.86-17.89,3.04,1.86,3.65,2.91,6.31,3.04,2.47.12,4.14-1.78,3.81-4.04-.24-1.65,2.72-1.24,2.27.29-.22.76-.01,2.08.5,2.32.66.3,2.43-.48,3.32-.76.6.97.46,2.31,2.23,3.07.2-.9.11-1.43.88-2.4,2.74,1.89,2.94,4.21,3.53,6.64,1.2,5.02,2.41,10.03,3.62,15.05.72,2.99-.76,5.93-1.55,8.9-.58,2.18,2.45,6.08.83,8.22-1.42,1.88-.51,2.85-.6,4.85-.63,13.98-1.4,27.94-.08,41.72.13,1.39-.36,2.37,1.78,3.62-1.25.45-1.92,1.15-2.08,1.85-.22.99,1.43,2.03,1.7,2.76.23.6-1.12,1.05-1.57,1.25-.88.37.95,1.64,1.17,2.19,1.01,2.47.9,5.62,1.04,8.17.51,9.55,1.03,19.1,1.56,28.64.53,4.55,1.06,9.11,1.6,13.66.5,4.91.76,7.37,1.27,12.3.3,2.45.44,3.68.74,6.14.21,1.76,1.01,3.94,1.18,5.58.65,6.14,1.31,12.28,1.97,18.42.83-2.96,2.95-6.18,2.81-9.47-.16-3.78-.24-5.67-.4-9.44-.32-2.95-.48-4.42-.8-7.35-.02-4.22-.03-6.32-.05-10.53.17-7.08,1.33-14.18-.11-21.19-.12-4.92-.24-9.84-.35-14.76-.05-1.95-1.22-3.04-1.21-5.78.03-5.21.03-10.43.22-15.63-.3-4.52-.45-6.78-.75-11.29.15-2.49.22-3.73.37-6.23.16-2.69.05-4.53.06-7.11.07-16.44.15-32.87.23-49.31-.1-7.41-3.3-12.46,5.4-14.85,3.18-4.61.78-16.55,8.62-15.21-.39,3.75-.58,5.63-.97,9.37-.08.74.48,1.51,1.1,1.99.52.4,1.95.64,2.28-.04,1.31-2.72,1.97-4.08,3.28-6.81,2.13,1.38,1.88,2.24,2.18,2.81.54,1.02,2.5,1.61,3.59.8.3-.22,0-.99-.04-1.29-.06-.48.27-1.19,1.38-.84.69.22,1.34.99,1.56,1.93,6.13-1.26,12.27-2.53,18.4-3.79,9.94-2.01,19.88-4.02,29.82-6.03,1.21.7,3.64,2.08,4.47,3.35.32.91-1.84,2.49-.97,2.75,1.31,2.33,3.76,2,6.48,2.63-1.46.28-2.19.43-3.65.71-.99.19.47,2.23,1.99,3.25-1.52-.49-2.28-.74-3.8-1.23.83,1.95,1.57,3.32.7,4.18-.91.9-3,1.21-5.2,1.34,1.11,1.24,1.67,1.86,2.78,3.1.84-1.82,3.19-1.37,3.28.41-1.07,1.46-3.95,1.22-6.17-.08-.24,1.85,1.13,2.71,1.99,4.06-2.11.43-3.21,1.11-3.52,1.82-.61,1.38-.48,2.87,2.34,4.16-5.03.92-9.74,2.29-14.66,3.75-6.18,1.63-12.35,3.26-18.53,4.88-1.68.39-2.52.59-4.19.98-1.01.24-.45,1.57-.58,2.47-.63.21-2.84-.1-3.54.43-2.26,1.68.63,5.03-1.14,7.63-1.52-.81-.85-1.6-.72-1.88.13-.27-1.59-.94-2.25-.63-.86,5.92-.79,11.07.88,16.15.54,1.65,2.57,2.94,1.89,5.09-1.8,5.71,2.18,9.96-.3,11.7,2.08,1.47.03,2.91.09,4.03.22,4.11,1.65,7.98.63,11.85,7.68-.92,15.35-1.83,23.03-2.74,3.56-.59,5.34-.89,8.93-1.48,2.65.1,3.98.15,6.65.25,4.79-.02,9.51.68,13.42,4.08-1.57.83-2.21,1.58-2.43,2.72-.14.73,2.4,1.8,2.96,2.68,2.24,3.56-.81,6.47-5.01,7.83,1.69.51,2.53.77,4.23,1.29-6.31-.7-5.88,9.82-13.37,10.2-3.87.2-7.99.91-11.92,1.65-5.17.92-10.34,1.83-15.51,2.76-1.83.33-4.81-.27-6.99-.44-.74,1.76-3.28,2.6-5.12,3.59.13,4.38.2,6.58.33,10.96.09,2.87.43,4.99.42,7.82-.08,13.11-.15,26.22-.2,39.34,12.64-1.68,24.83-6.7,37.33-7.85,6.36-.59,7.53-2.39,9.83-.81,1.71,1.17,1.88,2.61-.27,3.28-1.17.36-2.57.6-2.04,2.16,2.68-1.03,5.23-.73,9.15-.68-.87,1.81-1.3,2.71-2.17,4.52.68.28,1.78.21,2.79.2.74,2.32,2.18,3.88,5.47,5.26-2.81,0-4.19-.36-5.59.56,2.21.51,3.32.77,5.53,1.28-1.17.29-1.76.44-2.93.74,2.6.8,4.66,1.76,5.22,2.83,1.75,3.37-14.22,3.31-15.79,9.19.92-.77,4.39-1.43,5.32-.31,1.36,1.64.51,3.81,3.22,5.68.18-.42,3.03-1.16,4.23-.68.97.39.58,1.3,2.45,3.26-5.58.78-10.63,3.45-15.9,5.49-4.73,1.68-9.45,3.37-14.18,5.06-3.33,1.19-4.99,1.79-8.3,2.98-6.14,2.41-12.29,4.83-18.43,7.25-3.2,1.08-4.81,1.62-8,2.69-2.84.96-6.33,1.44-9.32,1.97.04-.79-.75-1.09-1.13-1.21-.91-.55.21-1.23.8-.44.09.12.34.44.61.63ZM1141.23,118.42c-.24.12-.35.18-.59.3.22.18.33.27.55.45.24-.12.35-.18.59-.3-.22-.18-.33-.27-.55-.45ZM1136.43,122.34c-.24.12-.35.18-.59.3.22.18.33.27.55.45.24-.12.35-.18.59-.3-.22-.18-.33-.27-.55-.45ZM1045.43,198.52c1.08-.69,1.62-1.04,2.69-1.74-1.76-.65-2.08-1.3-2.68-2.25-.59,1.47-.04,2.67-.02,3.98Z"/>
        <path d="M825.84,91.46c.12.11.18.16.3.26-.1.14-.15.21-.24.34-.12-.11-.18-.16-.3-.26.1-.14.15-.21.24-.34Z"/>
        <path d="M865.68,276.53c-.05.2-.07.3-.12.51,0,0-.53-2.05-2.4-3.36.07-1.08.27-2.19.68-3.34,2.01,1.74,1.07,3.74,1.84,6.2Z"/>
        <path d="M877.07,179.96c.01,1.27.02,1.9.03,3.17-.89-.82-.49-1.88-.03-3.17Z"/>
        <path d="M876.96,170.5c.02,1.49.03,2.24.04,3.74-.41-1.28-.39-2.5-.04-3.74Z"/>
      </g>
      <path d="M1229.93,282.66c-1.6.14-3.72-.08-4.36-.47-.89-.54-.74-2.13-.41-3.42-1.16.61-1.87,1.33-2.89,1.36-.96.03-8.74-4.17-9.35-6.02-.8-2.45,0-4.04.78-6.23,2.06-5.71,4.12-11.42,6.17-17.14.71-1.99,4.96-1.35,7.2-.2-.84-2.41.17-3.42,3.44-4.97.59,1,3.09,1.9,4.9,2.3,1.92,2.63,5.61,2.97,8.76,4.07,1.12,1.29,2.29,4.11,5,4.94.18,7.47-1.38,14.96-4.35,21.61-1.68,1.3-2.51,1.94-4.19,3.24-4.3.37-6.47.56-10.71.93Z"/>
      <path d="M1255.77,259.41c1.42,3.8,3.32,7.29,5.31,10.46-1.3.67-1.91,1.1-2.69,1.1-.78,0-1.57-.78-2.11-1.84-1.44-2.8-2.15-4.21-3.58-7-1.17,1.18-.71,2.28-.59,3.21-.11.46-.46.53-.55.52-.16-2.5-.24-3.74-.39-6.24-1.93,2.8-2.89,4.19-4.82,6.98-1.86,1.37-2.79,2.06-4.66,3.43-1.55-2.22-.13-3.69.98-5.16,1.95-2.57,2.92-3.85,4.87-6.43-3.12-.02-4.68-.03-7.79-.05-.51,0-1.24-.66-1.24-1.03.03-1.58,6.33-2.03,11.44-2.01-1.54-4-2.3-5.99-3.82-9.99-.28-.73-.13-1.6.19-1.86,1.61-1.27,3.87,3.43,5.74,8.14,1.99-2.7,2.99-4.05,4.98-6.77.43-.59,1.53-.86,1.96-.69.43.17.56,1.85.24,2.41-1.93,3.38-2.9,5.06-4.83,8.42,2.93,1.77,6.18-.52,9.25,2.78-2.48.91-4.63.85-7.15.92-.3.29-.45.43-.74.72ZM1255.95,258.46c-.29-.43-.79-.29-.88.25.35-.1.53-.15.88-.25Z"/>
    </g>
  </g>
</svg>