<?xml version="1.0" encoding="UTF-8"?>
<svg id="Livello_2" data-name="Livello 2" xmlns="http://www.w3.org/2000/svg" viewBox="0 0 1228.6 382.15">
  <g id="Livello_1-2" data-name="Livello 1">
    <g>
      <path d="M581,38.17l1.46-.82.09-.7-2.04-3.14-2.53,1.48c-.94.55,2.51,3.54,3.02,3.18Z"/>
      <path d="M147.4,275.85c.59-2.41.64-4.66.31-6.98.28-1.05.54-2.63.54-3.84l-.08-13.29.08-3.84.28-22.74.28-6.9-2.09-1.53c1.3-.75,2.7-1.61,2.47-2.29l-.87-2.55.71-17.42,1.72-26.84,2.43.67c.29.08.34-.92.35-1.35l-2.1-1.38c-.54-.36-.3-2.18-.24-2.89l.62-7.63,3.88-32.24c1.34-11.13,3.28-21.73,5.72-32.66.76-3.4,1.16-6.48,1.65-9.86.56-3.92,2.69-8.31.97-10.43-.54-.67-2.64-1.03-3.49-1.39-1.65-1.62-3.89-2.2-6.01-2.09l-3.98-4.22-1.56-1.87c-.36-.42-1.73.39-2.24.65l-4.87,2.47c-1.58.79-2.27,1.62-3.21,3.09l-1.84,2.87c-.39-.56-1-1.43-1.49-1.28l-2.4.72,2.83-3.32c-2.65-.61-5.23,1.98-4.97,3.74,1.41,1.71,3.01,2.07,4.79,1.44l-2.61,4.01-1.22-1.62-4.18,2.26c.32.82.39,2.76-.21,3.64l-5.94,8.68c-6.59,9.63-12.15,19.64-17.54,30.1-1.39-1.03-.26-2.39.22-3.15l.7-1.13c.12-.21-.7-.3-1.3-.37-5.31,9.77-10.24,19.7-14.91,29.75-.88-3.71-1.61-6.54-2.75-9.51l-6.05-24.5,1.22-1.56c.11-.14-.49,0-.68-.02-1.81-.11-1.31-2.39-3.39-7.78-1.15-2.99-1.76-5.74-2.62-8.77-.85-2.98-1.76-5.94-1.58-9.04.21-3.47-.51-6.84-3.82-8.38l-1.23-7.29-3.18-2.04c-2.01,1.38-2.47,3.74-2.06,6.55-2.7-3.62-8.02-2.12-8.23-.97l-.57,3.05c-3.14-7.96-8.29-10.11-8.37-6.98l-.16,6.23-5.91-1.6c-1.01-.28-3.1-.25-3.62.52-1.86,2.74,4.35,7.58,3.66,10.61l-3.13,13.69-2.66,11.93c-.4,1.78-1.42,3.87-2.18,5.39l-2.88,13.75-9.78,51.6-4.83,30.14,1.03.06,2.39-13.45c1.16.66,1.07,1.51.87,2.65l-1.3,7.56-1.46,9.55-1.16,7.47-1.19,7.66c-.09.63-.39,1.68-.81,1.6l-1.88-.36,1.33,2.14-1.22.86c-.16.11.5.2.7.2l1.41.02-2.41,2.96-2.47,21.79-2.86,34.59c-.2,2.41-.95,5.26-.42,7.34.16.64,1.4,2.19,2.01,2.06l2.15-.46c3.11,4.19-4.72,3.36-4.69,7.54.01,1.56,1.06,3.24,2.47,4.08l-4.43,2.87c-1.08.7-2.49,3.42-1.55,4.2,2.26,1.87,5.01,1.06,7.11.05l8.83-4.25.88,2.31c5.6-.15,8.18-4.69,13.82-3.27l6.95-2.52,1.83,1.79c.24.24,1.26-.77,1.09-1.06l-.94-1.59,9.87-3.46c4.7-1.65,9.34-3.34,14.13-4.38,5.06-1.11,9.78-3.43,16.33-4.42,2-.31,3.54-.28,5.25-1.13l3.35-1.66c-.52-1.72-.94-2.79-.35-3.44.76-.83,2.27-1.75,3.15-2.17l3.87-1.89.91,1.63,4.34-.08-1.65-2.18c-.35-.46-2.09.02-2.69.09l-8.52.99-3.3-2.3,14.58-2.56c-.66-1.75-2.2-1.84-3.84-1.13-.98.43-3.01.5-4.03.68l-7.42,1.33,5.45-2.81c.8-.41.83-3.29-.17-3.26l-7.46.28-19.95,3.85-1.25-1.53c-.17-.2-.58.48-.57.75l.02,1.18-5.51,1.84-.24-3.79c-.73.16-2.57,1.05-2.14,1.57l1.81,2.18-9.28,2.79-6.32,2.16.39-4.31c.02-.25-.53-1.03-.42-1.26l.75-1.41-3.77,2.46.76-6.84,1.73,3.45c1.11-1.08,1.96-1.8,1.79-2.33l-.58-1.84c-.11-.33.81-.98.68-1.29l-.53-1.21c.49-.52,1.86-2.36,1.47-3.07l-1.33-2.42c.59-.32,2.23-1.41,2.06-2.1l-.63-2.69c.26-.36,1.21-1.92,1.28-2.61l.69-6.52c.03-.27-.68-1.11-.79-1.36-.11-.25.69-.67,1.15-.95l3.79-26.04,2.17,1.08c.2.1.51-.64.36-.8l-.79-.83c-.61-.62-1.67-2.37-1.55-3.24l2.54-17.9,3.22-20.68-2.04-.73c-.29-.1.49-.78.78-.68l1.36.46,4.95-28.96,2.53-14.93c.76,2.98,1.26,5.75,1.79,8.69l.79,4.47,4.07,19.91,1.49,4.91,2.61,14.21.68,5-3.91-.02c.94,1.61,1.64,2.96,1.98,4.38l2.96,12.33.79,3.56c.21.94.5,2.04,1.01,2.57,1.24,1.27,2.96-1.76,6.84.21l1.05-2.99,2.47,5.11c3.61-.77,4.95-6.85,4.9-11.27l-.04-3.49,3.47,3.71,3.95-3.59,1.98.22c.32.04.5-1.22.53-1.61l.77-8.65c.09-1-.09-2.38-.38-3.42.36-.27,1.86-1.53,1.72-2.28l-.54-2.87c2.96-9.65,6.12-19.73,10.39-29.02,4.87-10.59,8.28-21.1,13.97-31.85l-3.77,35.97-2.12,27.73-1.24,18.23-.57,8.91c-.08,1.22.31,3.31.55,4.5l-.5,29.48.03,10.71.88,27.66,3.62,3.37-.02-3.87c1.77.88,3.12,1.42,4.2,1.38.28-2.26.99-1.53,1.3-.6-.86,2.73-.19,4.83,1.61,6.54l1.13,4.17,2.51-2.73,1.86,3.37c1.11-.51,2.69-1.52,2.75-2.4.02-.44-1.54-1.7-1.21-2l1.46-1.38c-.35-.42-1.38-1.82-.97-2.26l1.48-1.61.87-4.18,1.72,4.7,3.48-9.77,2.2.93c.92-1.83,1.29-3.79,1.07-5.92l-.52-5.09ZM26.75,158.81l-1.67,3.2s.3.61.41.83c.14.3-.9,1.1-.98,1.5l-1.87,9.93-1.15,4.89-3.27,15.54c-1.48-2.46.03-4.7.45-6.98l3.27-17.68,2.7-13.13c1.12-.25,2.55,1.1,2.13,1.9ZM27.04,155.28c-.09.45-1.85.69-2.27.43l1.42-7.31.68-1.93c.13-.37,1.51.89,1.57,1.26l-1.4,7.55Z"/>
      <path d="M510.24,192.49l-6.21-1.22-13.3-.95,9.89-2.15-4.23-2.19-6.23-.12c-11.39-.21-22.29,1.26-34.08,2.36l5.01-54.21c-.44-.65-1.07-1.55-.8-1.89l1.24-1.58-.75-1.85.56-1.04.48-3.74.68-5.34,5.37-45.92c1.19-10.2,1.72-20.04,3.86-30.09.47-2.22.09-3.75-.47-6.03-1.07-4.29,3.62-8.66,1.38-11.8-.58-.82-2.55-1.01-3.67-1.26-2.16-1.3-3.76-1.57-6.29-1.94l-4.28-.61c-2.23-.32-1.16,6.47-3.16,6.89-2.63.54-4.74-.86-5.17-.14l-1.17,1.92-6.05,11.42-7.46,15.07-2.71,4.5c-5.38,8.93-8.6,18.3-13.35,28.48l-3.22-21.72-3.09-21.95-.39-3.34c-.07-.61-1.58-.84-2.24-.69l-2.45.6c-.74.18.17-4.21-.83-4.3-3.72-.37-5.8-1.63-8.39.11l-.98,4.87-2.29-2.1c-.42-.38-1.8.48-2.35.84-1.81,1.17-1.69,2.01-2.01,3.88-1.2,7.03-3.39,13.6-5.56,20.34-.23,2.15-.76,4.1-2.36,5.68l-17.48,72.35-4.6,22.44-1.05,9.57c-.35,3.17-.85,6.29,2.9,8.28l3.9-7.13-.09,5.35-.13,1.96c-.15,2.21,2.02-3.35,4.89-4.12l.25,7.31c2.67-.03,2.39-6.71,3.82-5.84l2.47,1.51c1.6-1.56,2.1-4.88,2.14-7.6l.05-4.31,2.34-4.97,9.13-42.17c.34-1.57,1.38-3.49,2.07-4.69l4.16-17.02,2.2,15.14,1.09,10.12c.41,3.79.06,7.37.92,11.19,2.3.72,4.9.46,7.04-.48l-.16,4.41c.35.33,2.31.65,2.78.2l1.68-1.61.46,2.82c.06.39,1.86.6,2.1.28,2.68-3.57,1.35-9.62,3.43-9.72l2.24-.11c3.57-1.32,3.67-5.03,4.86-7.97,4.15-10.24,8.12-19.85,13.43-30.29l-8.3,63.35-1.88,22.76c-.61.24-2.05.83-1.83,1.19l1.02,1.73c.99,1.67.55,4.72.32,6.92l-26.25,4.83c-22.67,4.18-45.36,10.17-67.07,17.4-1.12-.84-2.33-1.38-3.39-1.52.59.88,1.68,2.1,1.18,2.29l-1.91.73c-1.81.69-4.7,1.8-6.25,2.88-2.57,1.8-4.92,3.41-7.84,3.82l-1.17-2.11c-.22-.4-1.69.47-1.75.66l1.95,1.58-19.01,7.28c-.44-2.4-.51-4.75-.29-7.24l1.02-11.54,1.92,3.53c1.78-.57,2.45-2.29,2.63-4.67l.66-8.31c.04-.58-1.32-2.04-.97-2.42l1.65-1.77,6.75-40.74,7.21-36.98,10.06-41.28,10.48-39.91,11.45-4.47c.62-.24,2.16-1.69,1.69-2.04l-2.48-1.86,28.83-4.85,7.83-2.36,8.49-.53c.71-.05,1.8-.72,2.08-1.25,1.95-3.69-7.18.85-12.43-.98l15.67-2.59-8.24-1.38,18.22-2.56c1.56-2.01,6.7-2.07,5.12-3.28l-1.89-1.46c-4.64-3.56-9.66-.3-11.21-2.67l7.97-.18-.36-1.47c-.18-.75-3.31.75-6.34-1.27-5.39-.54-10.83.53-16.82.32l3.47-2.52c-6.47-.62-13.11-1.45-19.92-.88-14.02,1.19-27.08,3.66-40.86,6.17-14.34,2.61-27.99,5.3-41.84,9.76l-10.02,2.2.77-2.58c.08-.29-1.08-.39-1.23-.35-.49,1.87-1.52,3.48-3.31,4.68l-.07,1.17c-.01.23,1.35.37,1.63.28l14.63-4.61c2.71-.86,4.6-1.5,7.38-.89l-13.82,4.49c-4.4,1.43-8.98,2.35-12.77,4.27.48,1.79-1,2.7-2.18,2.66-.78-.03-1.93-.61-3.19-1.12-.71-.29-1.34,1.86-.8,2.56.7.89,1.67.94,2.71.53l2.33-.91c.49-.19,1.4,1.53,1.92,1.51l4.88-.23-10.88,4.43-5.8,1.95c-1.9.64-3.48,1.58-3.77,3.62-.16,1.14.71,2.74,1.49,4.1-.28.64-1.14,3.45-.36,3.6l3.23.64,5.82,1.17-2.28,1.87c1.04,1.2,4.5,4.02,6.33,3.41l9.8-3.31c2.32-.78,4.01-1.01,5.68-3.25l-3.93.3-.54-.72,11.15-3.59,11.61-3.31-.37,3.42-8.78,29.47c-5.84,20.65-10.43,41.13-14.13,62.35-.26,1.49-.91,2.91-1.46,3.73l.63,2c.15.48-1.48,1.51-1.58,2.06l-2.11,13.33-4.46,29.95-2.79,18.55-1.8,19.07c-.99-.17-2.51-.17-2.76.11,1.91,2.45,5.34,2.66,7.47,1.21l-2.28-1.46,1.6-9.3c1.28,2.89,1.28,5,1.35,8.07,2.05-1.39-.52-4.51,2.29-5.2l-.91,10.68c-.22,2.65-.13,5.43,2.8,7.13l.76-4.85c1.2,1.16,1.98,1.96,2.63,2.33.63.36,2.19-.93,2.26-1.67l.49-5.28,3.32,7.91c-1.11,1.68-4.17,2.73-5.54.93-.38,1.66-2.89,3.49-4.31,3.42l-1.72-2.81-1.34,4.9-5.7,2.22c-1.93-1.08-3.52-1.59-5.29-1.7l.14,4.47-9.88,5.69.31-4.83-2.79,3.55.83,2.16-8.98,4.73-1.94-2.69-2.15,8.48c1.34.6,2.68,1.25,2.46,1.86l-.8,2.22c-.16.43,2.11,1.26,1.78,1.58-2.64,2.51-7.75,2.98-5.88,8.15,1.19.1,3,.72,4.01,1.38.56.37,2.43-.43,2.12-.99l-1.35-2.42c1.66-2.22,5.7-3.02,8.07-4.56l10.85-7.06,1.33.21-6,5.04c-.27.23-.9,1.45-.58,1.6l1.13.53,12.04-6.13c-.04,1.03-.15,1.71.16,1.68.32-.03,1.64-.31,1.95-.48l9.87-5.31c.71.44,2,1.38,2.06.93.05-.34.74-1.91,1.05-2.05l10.27-4.49c1.02,2.16,1.89,1.31,1.58-.64l15.26-6.33,14.44-6,5.46-2.51c-.6-1.28-.59-2.43.24-2.74,1.14-.42,1.65-.11,2.87.53,1.62.85,4.23-.75,5.88-1.41l5.91-2.34c.59.33,1.56,1,1.83.66l1.15-1.46c1.69.76,4.34.8,6.19.22l7.05-2.19,20.23-5.67,7.62-1.54,40.89-9.34,14.21-3.19c1.4-.31,2.2-.8,3.62-.47l24.6-4.04,1.88.12c.36.03.32-1.2-.01-1.35l-2.6-1.17c5.18-2.49,11.49-.14,14.18-2.84l-12.25-.66,26.81-3.1,11.06-1.57c.7-.1,1.8-1.55,1.89-2.2.08-.51-1.26-.9-1.95-1.04ZM379.43,167.7l-2.35,10.14,1.03-8.73,1.9-7.63c.02,1.84-.13,4.3-.58,6.21ZM331.06,234.58l-13.44,4.57-1.09-.57,11.3-4.18,17.36-5.57c.88-.28,2.77-.29,3.38-.11l-17.51,5.86ZM413.27,214.7l-19.98,4.47c.36-.99,1.8-1.49,3.02-1.63l19.82-4.19c-.78,1.28-1.65,1.08-2.87,1.35ZM436.48,210.08l-9.81,1.71c-1.57.27-2.68.8-4.19.14l14.33-2.75-.34.9Z"/>
      <path d="M251.63,99.74c1.46-6.23,6.89-11.41,6.89-14.89,0-.48-1.44-.63-1.91-.53-.47.1-.77.89-1.2,1.44l-6.48,7.17.49-2.66c-1.33-.02-2.69-.36-3.18.21l-2.57,2.96,1.31-4.23.14-1.85c.02-.31-1.01-.16-1.28-.02l-1.99,1.04,1.26-4.85c-2.97-.46-3.86,1.94-5.16,3.66l-4.99,6.62,1.46-4.63-1.13-.64c-4.48,7.96-8.6,15.89-13.48,23.62-2.84,4.5-4.99,9.21-7.13,13.87l-.65-.76,8.06-18.13,1.23-1.27c.2-.21-1.19-.07-1.32-.02-6.95,12.13-12.48,24.18-18.62,37.43-2.57-5.96-6.09-17.92-4.41-17.31l-1.01-.37-4.73-14.82c-1.31-3.07-2.11-6.29-3.02-9.55l-2.63-9.42,1.48-.21c-.03-2.13.41-3.15,1.68-4.86-.17-.04-1.16.02-1.35.3l-.96,1.43c-1.24-4.83-6.71-6.58-7.52-5.93-.48.39-1.28,1.44-1.58,2.02l-.65,4.42-1.73-2.92-2.91,3.36-1.15,3.74-.34-3.13c-1.24-1.14-3.63-.02-5.18,1-.87.57-2.68.79-2.59,2.11.06.84.92,2.16,1.64,3.04l-1.44,1.41c-.24.23.83,1.2.9,1.6l3.57,18.83-2.44-1.59.96,4.52,1.74-2.74.42,2.49c.08.48-1.29.87-1.98,1.17l6.21,22.83-1.98.16c-.38.03-.41,1.42-.35,1.96l2.95-1.06,6,19.67,3.38,9.84c.89,2.6,2.95,5.89,3.06,8.66l-5.26,15.29-2.45,5.4c-8.46,25.2-15.33,50.34-20.07,76.48l-2.32,12.81-3.06,19.19-1.43,11.04-.77,5.97,2.78,2.91,1.28-2.01c.22-.35,1.2.08,1.79.24,2.13-1.37,2.5-3.41,2.98-6.57.71,1.17,1.16,2.21,1.72,2.71.46.41,2.17.63,3.02.82l-1.51,1.52c-.32.33.31,1.87.7,1.63l1.8-1.12c.33-.21,1.22-1.08,1.53-.83l1.76,1.45c1.32-1.16,2.42-3.46,2.79-5.56,1.44-8.05,3.28-15.49,5.49-23.3.63-2.22,1.12-4.13,2.2-6.07l-4.36,21.41c.84.21,1.88-.81,2.08-1.59l2.39-9.4c.45-1.78,1.72-3.75,2.87-5.32l-.65-1.36c-.12-.25.77-.88.85-1.18l1.68-6.25,2.61-8.27,11.39-38.09,8.04-25.19,2.49-6,4.75-14.95,11.37-31.36c.9-2.49,2.49-4.82,3.59-7.2,6.4-13.83,11.49-28.21,19.43-41.25l4.92-8.08,5.22-10.03c1.06-2.03,2.38-4.48,2.48-6.8-1.56-1.42-5.66,1.64-7.86,4.76ZM167.54,251.77l-1.02-.19.9-2.96c.42-2.91.57-5.66,2.64-8.08l-2.52,11.23ZM190,263.67l-.99.72c.09-1.81.4-4.08,1.02-5.85l2.56-7.35.99.17-3.58,12.32Z"/>
      <path d="M531.36,150.09c5.02-1.17,9.69-2.19,14.83-4.45-.71-1.49-1.79-1.58-4.3-2.45l4.51-.69c-1.69-1.44-3.21-2.38-4.76-2.98l1.06-1.79c.23-.38-1.09-.99-1.56-.89l-7.36,1.5c-2.53.51-4.29.23-6.97-.12-3.04.09-7.04.96-10.21,1.72l-14.07,3.38.38-3.09c.06-.46-1.39-.82-1.61-.44l-.98,1.67c-.18.3-.83-.6-1.01-.9l-.89-1.41c-.17-.25-.63,1.83-.18,2.14l2.78,1.89-7.88,3.35.69-6.47,4.13-29.63,10.78-3.39,7.23-1.89c3.58-.93,6.81-1.87,10.69-2.03,1.58-.07,4.41-.7,4.84-1.89.06-1.02-.24-2.5.27-2.83l2.07-1.34-6.4-2.59,11.33-1.96,3.14-3.28c-.77-.66-3.18-1.65-4.35-1.53l-7.13.72c1.05-1,2.18-1.4,2.11-1.88l-.38-2.61c-1.57-1.05-4.57-1.42-6.99-1.05l-9.45,1.43-13.91,2.56,6.59-35.94,36.26-7.58,15.86-2.44c.23-.54.36-1.55-.02-1.83-.23-.16-1.01-.73-1.2-.87l3.45-2.19c.67-.43-.3-2.08-.97-3.27l11.86-.91c.47-.04,1.46-1.34,1.1-1.46-.35-.12-1.49-.46-1.91-.47l-8.72-.15c-2.94-.05-5.52.63-8.03-.36,7.13-3,14.89-.26,13.74-4.2-1.23-4.25-4.61-.59-10.29-1.3-1.56-2.18-2.33-2.44-4.49-2.18l-21.02,2.49-22.78,3.75-9.49,2.98,1.09-6.05c-.95.24-2.25.76-2.88,1.4-1.64,1.67,1.03,5.68-2.45,5.61-2.14-.05-3.02-3.34-4.22-2.66l-2.4,1.36c-2.64,1.5-3.63,4.26-3.31,7.27l-8.38,2.49c-1.62.48-3.25,1.52-3.55,3.01-.3,1.45.67,2.86,1.65,3.78-1.09.45-2.94,2.85-2.25,3.74,1.8,2.3,4.67,2.98,8.01,2.35.62,2.36.39,4.44-.02,6.81l-5.83,33.37-3.92,1.91c-.81.39-1.58,1.79-1.25,2.75.23.67,1.84.9,2.58.77-.17.71-.5,2.38-.2,3.05l1.26,2.74c.29.64-1,2.08-1.65,2.69l-4.57,33.79-2.68,19.57c-1.68,1.48-4.4,4.74-2.78,6.45.59.62,3.41.54,3.31,1.33l-.38,3.12c-.16,1.3.12,3.15,1.23,3.98.79.59,2.49.56,3.65.23l4.4-1.25c-.22,2.26.21,3.83,1.75,4.64,2.85,1.51,6.82-1.02,10.12-3.51,3.12-2.35,6.96-3.99,10.69-5.55,9.27-3.89,18.5-7.22,27.99-9.62.52.9,1.79,1.96,2.04,1.5,1.63-2.92,1.48-2.43,5.05-3.17.8-.17,2.23-1.82,1.88-2.56-.29-.62-1.52-1.11-2.65-1.57l4.54-2.33-6.29-2.24Z"/>
      <path d="M371.19,79.52c.1-2.02-4.39-2.29-5.48-4.96l-8.86-1.28-2.74,5.78-4.78-3.57-3.23,2.4c-7.03,21.38-12.63,42.41-17.12,64.32l-5.06,24.71c-.27,1.33-1.06,3.01-1.75,4.11l-2.51,15.7-3.07.55,2.17,2.56c-.31,1.03-.88,2.95-.5,3.7.37.75,1.77,1.53,2.74,2.05l1.55-5.65.45,5.68c2.45-.38,3.56-1.5,5.2-3.38l-.55,7.18-3.35,1.93,4.93.54c.58-1.79.62-.07.45.13v3.18c-.01.59,1.75.97,2.58.99l1.11-4.75,3.15,4.15c-.33-4.15,2.51-5.84,2.75-10.91l2,1.29c1.29.84.86-4.79,4.99-5.27.83-1.5,1.81-4.64,2.22-6.76l7.04-36.6,2.67-13.09,2.51-2.43c-1.63-1.07-3.13-2.8-2.57-3.91.87-1.74,2.51-2.37,4.35-2.4.09-.23.02-1.21-.34-1.35l-1.66-.65c-.89-.35.24-2.8.94-3.28l-.36-1.22c-.08-.26.7-.81,1.11-1.11l5.6-23.75c-1.33-8.79,3.31-12.44,3.41-14.65ZM324.35,183.66c-.3,2.36-.58,4.59-2.46,6.28l3.51-19.74c.96,2.22.09,4.41-.18,6.53l-.87,6.93Z"/>
      <path d="M379.16,47.61c.41-6.98-7.57-5.75-8.04-7.5l-.69-2.56-5.2-.69c-.98-.05-2.31,2.08-2.91,3.08-5.13,2.45-9.87,6.42-12.38,11.67l-2.57-.67c1.24,1.72,1.54,3.01,1.17,5.14l-.95,5.55c-.1.61.72,2.19,1.29,2.44.57.25,1.77-.21,2.72-.78.7-.43,2.76,1.17,2.19,1.74l-2.32,2.28,5.65.24,7.04-4.7-1.28,3.39c1.8-.62,3.24-1.43,4.69-2.73l4.76-4.28c3.41-3.07,6.56-6.99,6.83-11.64Z"/>
      <path d="M57.58,260.28l-.31-2.55c-1.19-.05-2.63.84-3.59,2.41-.53.86-.32,2.38.21,3.6l.8,1.88c.24.56,3.39-1.26,2.89-5.34Z"/>
      <path d="M199.03,322.52l-2.24,1.79c-1.51.51-2.36,2.01-1.92,3.54.28.95,2.39,1.83,3.22,1.34,1.11-.65,1.51-2.49,1.35-3.65l-.42-3.01Z"/>
      <path d="M227.93,273.5c-1.26-.16-2.41.73-2.57,1.98s.73,2.41,1.98,2.57,2.41-.73,2.57-1.98c.16-1.26-.73-2.41-1.98-2.57Z"/>
      <path d="M193.79,295.85c-.79-.02-2.34,1.73-2,2.43l1.3,2.7,3.9-2.3c-.68-1.19-2.08-2.81-3.2-2.83Z"/>
      <path d="M50.54,278.57c.66,1.14,1.66,1.87,2.41,1.72,1-.2,2.5-1.83,1.94-2.38l-2.47-2.45c-1.5,1.2-2.32,2.35-1.88,3.12Z"/>
      <path d="M469.64,83.19c.18.33,1.38-.91,1.4-1.36l.35-8.56c-.96-.12-1.82,1.15-1.89,2.26l-.37,6c-.03.43.33,1.33.51,1.67Z"/>
      <path d="M468.96,84.63l-.58,9.9c3.16-1.8,2.6-10.01.58-9.9Z"/>
      <path d="M249.76,233.14c-.13-.75-1.46-1.96-2.23-1.84-1.58.24-3.02,3.4-.06,4.52.86.33,2.47-1.65,2.29-2.67Z"/>
      <path d="M81.03,273.28c-.53.57-.54,2.43.05,2.74.51.27,1.67.55,2.22.58.56.03,1.44-1.53,1.17-2.02-.46-.84-2.82-1.98-3.44-1.31Z"/>
      <path d="M486.17,203.38l-1.26.17-8.2,1.08.11.96,8.44-.48c.29-.02,1.27-.54,1.32-.79.05-.25-.15-.97-.41-.93Z"/>
      <path d="M510.43,186.83c-1.41-.67-3.24-1.57-4.06-1.4l-4.76,1c3.17,1.21,5.67,1.27,8.82.4Z"/>
      <path d="M223.83,232.1c-.89.01-1.6,1.85-1.34,2.71.19.65,1.74,1.47,2.34.91.79-.75.6-3.65-1-3.63Z"/>
      <path d="M809.59,87.95c.13-.81,5.36-1.96,4.6.29l7.06-1.81,2.48,1.67c1.74-3.91,4.82-5.4,7.81-6.08.79-.18,1.58-.31,2.33-.41,2.68-.35,4.95-.36,5.66-1.37.19-.27.27-.6.22-1.03-.01-.09-.04-.17-.06-.25-.24-1.03-1.1-1.88-2.26-2.62-.25-.16-.51-.32-.79-.47l2.27-.76,1.2-.4c.1-.03.2-.1.29-.19.55-.54.84-1.93.73-2.16,0,0,0,0,0,0,0,0,0,0,0,0-.63.1-1.2.16-1.76.17-1.56.02-2.91-.36-4.68-1.2l7.3-1.91,2.01-.53,1.36-.36c1.43-.38,2.6-1.5,3.04-2.81,0,0,0,0,0,0,.07-.21.12-.43.15-.66,0-.01,0-.02,0-.03.03-.21.03-.42.02-.64,0-.01,0-.02,0-.04h0s0,0,0,0l-1.91.88c-.24.11-.58.06-.97-.08-.04-.01-.08-.02-.12-.04-.34-.13-.7-.33-1.06-.53l2.35-1.05s0,0,0,0l2.22-.99c.29-.13.38-.6.34-1.1-.02-.29-.09-.58-.19-.83-.09-.24-.23-.45-.38-.55-.57-.37-1.99-.41-2.79-.38l-6.62.3c.65-2.42,5.68-.68,4.49-1.73l-.96-.84-7.65,2.37-.76-2.63c-.16-.57-1.26-1.05-1.83-1.23l.54,2.37c.09.38-1.15.81-1.26.77-.91-1.88-2.46-2.48-4.68-1.47l-3.03-2.86c-2.32,2.2-4.91,3.24-8.23,3.44l1.28,1.75-7.85,1.8c.01-.95.14-1.64-.18-1.7-.32-.07-1.71-.12-2.06-.03l-4.48,1.28c-1.11-1.23-1.98-2.19-3.35-3.68-.22.03-2.34,1.48-1.77,1.87,1.17.81,1.75,1.22,2.93,2.05-.46.19-2.04.66-2.1.99l-3.99,1.14-15.31,4.54c-.16-1.09-.49-2.76-.97-2.54-2.71,1.28-.3,3.14-6.66,5.3l-9.58,3.25-10.88,4.76c-2.04.89-4.25.98-6.19.27-1.85,3.26-4.76,2.7-5.44,5.51l3.12.56-5.85,4.47-1.38-.37c-.37-.1-.27,1.31-.52,1.57l-1.82,1.88c-.48.5,1.37,1.82,2.16,2.28,2.51-.89,5.07-2.08,8.2-2.78l-15.37,8.45c-2.49,1.36-7.67,3.69-6.83,7.2.21.89,1.33,2.13,2.03,2.84-1.42,1.51-3.64,3.98-3.9,5.85-.22,1.55,2.69,2.99,3.85,2.72,1.41-.33,2.65-1.41,4.48-2.14l4.99-1.98c.38,1.55,2.18,4.32,3.27,3.66l2.31-1.41c.5-.29,1.31.47,2.3,1.33l8.58-4.51c-.12-2.75-2.07.7-6.15.47,5.96-4.12,12.93-6.97,20.44-9.07-4.61,23.41-8.46,45.45-11.44,68.28-.44.3-1.52.97-1.4,1.25l.81,1.89-1.79,15.19c-.08.62-1.29,2.11-1.68,2.47.26.18,1.67,1.52,1.29,2.14l-1.75,2.74.78,1.69c.22.47-.68,1.34-1.4,2.1.06.07.27.28.77.79.28.61.39,2.17.21,3.11l-1.53,7.38c-1.47-.74-3.38-1.8-3.63-1.1l-1.29,3.53,4.97-1.29-1.84,17.73-.7,11.13-.72,18.26-.42,8.34.62,5.16.04.67s0,.03,0,.03l.05.75c.15,2.19,1.21-2.5,2.86-5.16l1.82,3.94c-3.05,1.52-5.38,4.02-4.96,7.4l-1.29,1.52-2.71,3.21-.81,1.24c-.11.17.39-.02.99-.15.19.1.45.25.64.36l15.37-9.1-1.69,13.07,9.17-18.79c4.58-34.53,9.81-68.9,14.9-88.67-.08-1.25.19-2.76.86-3.86-.17-.83-.34-2.41-.3-3.67l.08-2.18c.01-.4.8-.56,1.48-.51.37-.08.95-.22,1.08-.25l-1.84-2.24c-.43-.51.91-2.12,1.26-2.09.35,1.3.54,1.98.57,2.06,0-.03-.03-.21-.09-.51l.98-1.72c.15-.26-.76-.81-1.13-1.09-.48-.36-1-2.17-.47-2.45l2.25-1.19c-.04-.17-.24-.74-.41-.8l-1.82-.55,2.53-.88.93-6.81c.03-.21-.97-1.1-1.01-1.12,0-.02,1.01-.36,1.51-.54l3.26-21.02c.12-.75,2.2-2,1.96-2.63l-1.08-2.86c-.23-.63,1.74-1.65,1.62-2.29l-.54-2.93c1.65-3.38,2.12-7.27,2.69-11.25l1-7.09c-.61-.44-2.29-1.58-1.91-2.01l1.67-1.9-1.12-1.68c-.3-.44,1.15-1.69,1.56-2.14.48-2.28,1.88-4.01,4.26-4.86l6.06-2.16,5.79-2.35.22-1.31Z"/>
      <path d="M641.86,282.72c-.48-8.76.97-17.17,2-25.89l1.17-9.95,1.28-12.65,2.88-21.16,9.92-52.08c-.86-1.48-.69-3.06.38-4.45,4-5.21,1.28-6.39,2.27-10.26l-6.29.34c-.47-1.15-.76-2.16-1.32-2.2l-2.7-.15c-2.26-.12-5.19-.18-7.11.48l-2.89,9.55-1.54-1.86c-.27-.33-1.31-.47-1.68-.6l-2.08-3.16c.21.02,2.08-1.25,2.1-2.01l.09-3.05-1.77,2.34c-.22.29-.86.06-2.02-.16,1.61,2.84.61,6.27-2.73,8.01-7.31,22.04-11.8,44.69-14.19,68.02l-1.99,19.4-4.49-6.99-7.41-13.91,1.12-1.8c.11-.18-.27-.17-.44-.06l-1.25.81-5.25-8.98-8.52-16.51c-4.95-9.59-10.21-18.85-13.24-29.22l1.83-2.34c-2.72-.39-3.13-.91-4.95-2.85-1.12-1.2-4.61-.41-6.34.74l-1.18-3.09c-.32-.83-1.81-2.25-2.68-2.09-.74.13-1.6,1.21-2.73,2.59l-.43-4.72-2.44,1.92c-1.03.81-3.03,2.36-2.83,3.48.34,1.92.63,4.57.57,5.39l-3.61-2.19-2.37-4.95-2.06,2.67c1.67,2.16,2.32,3.59,2.99,5.84l-4.41.07c-.89,3.17.06,6.2,1.4,9.25-5.18,20.14-9.06,40.06-12.28,60.66l-5.67,36.32-4.66,33.52-1.31,11.34-1.49,10.42c-.52.55-1.1,1.05-.99,1.41.08.27.6,1.16.47,1.41l-1.03,1.87c-.22.4.59,1.59.5,2.12l-1.11,7.11c-.21,1.35.02,3.63.94,4.14,1.03.56,2.45.5,4.39.24l.19,15.86-1.93-3.66c-2.47,2.45-3.95,6.26-1.26,10.1l.83-5.65,1.63.35,1.46-1.4,1.86.7c.21.08.23-.6.2-.82l-.16-1.32,4.98-2.1.74-9.45c2.55,2.14-.72,8.67,1.37,8.71l2.56.04-.19,9.25c3.11-3.35,2.87-6.6,4.18-10.47l.79,5.63c.06.49,1.25,1.52,1.75,1.41l.12-.06c.18-.17.41-.48.61-.84.23-.4.42-.84.49-1.17l.69-2.98c.11-.49,1.25-.49,2.19-.49.2,0,.4,0,.57,0l.14-.97.65-4.49c.47-3.15.9-5.7,2.74-8.58l1.19-4.73h1.49c.31,0,.58-1.13.64-1.55l6.68-50.36,1.25-11.57,7.31-43.83,6.55,13.04c1.1,2.19,3.57,3.81,3.1,6.36.99.98,2.35,2.78,2.88,4.3l1.3,3.73,2.64,4,6.05,9.37c.3.46,1.32,1.8,1.03,2.26l-1.33,2.07,1.94-.58c.39-.11,1.14,1.12,1.36,1.5l4.8,8.69-2.28,2.54c-.37.42,1.12,1.99,1.17,1.84l2.14-2.77,4.04,6.19,3.16,4.58c1.19,1.74.8,4.21-.15,5.43l3.37,4.46,2.92.02c.91,0,1.52,4.33,2.92,5.4.33.26.7.33,1.14.11,2.12-1.07,2.28-3.87,2.82-6.49l3.32,4.13.77,2.49.52,1.68c.21.69,1.71,1.55,2.33,1.51.62-.05,2.11-.87,1.9-1.45l-.57-1.66-.21-.6,1.96-.75c.4-.15.28-1.5.22-1.93l-1.02-7.68c2.18,2.46,4.04,4.02,6.38,4.16l.92-4.04c1.84.76,2.68,1.1,3.36,1.13.69.04,1.01-2.39.72-3.06-4.6-10.42-.41-12.14-.71-17.73Z"/>
      <path d="M737.9,188.65l1.2-1.63c-.11.01-1.41.21-1.71.25-.33.05-.09-1.4.01-1.76.09-.32.52-.12,1.4.18l.64-1.24c.1-.2-1.08-.26-1.33-.31-.32-.06-.47-1.29-.15-1.29h1.88c.12-7.46.19-15.18-.71-22.8l-1.51-5.6-3.79-9.16-2.2-4.05-2.76-4.89c-.17-.3.97-1.11,1.25-1.31.18-.13-.78-.48-.96-.33l-1.27,1.14c-4.9-4.15-10.8-6.94-17.69-6.8-3.24-2.56-6.28-3.01-10.06-.91-1.57,1.2-2.4,3.7-2.29,5.93l-3.46,2.89c-.89.74-2.38,1.45-3.48,1.37-.82-.06-2.1-1.32-2.7-2.2-.32-.47-2.04.7-1.69,1.17l1.78,2.45c-7.04,7-12.49,15.23-17.55,23.94l-3.52,6.06c-4.63,11.74-8.21,23.65-10,36.13-1.39,9.64-1.04,18.87.16,28.45.44,3.51-.12,6.21-1.1,9.77l1.74-2.89,2.47,5.74,3.05,7.33,3.59,5.39-1.93,3.63,3.22-2.04c.8-.5,7.76,9.47,20.21,6.41.06,1.12.08,2.25.6,2.52.42.22,1.75-.34,1.8-.81l.21-2.16,4.94-4.59c4.24-3.94,12.72-6.04,20.48-17.7.29-.45,1.92-.74,1.99-1.17l.27-1.57,8.18-14.59,2.5-3.83,5.28-14.24,3.9-18.89c-.46-.65-1.16-1.63-.9-1.98ZM715.95,173.34l-1.66,11.76-1.68,8.05c-3.09,14.86-8.49,29.23-17.48,41.36l-7.77,6.19c-2.58-1.84-3.78-4.42-3.74-7.46,2.26-.44,1.92-1.33.08-1.42-1.16-23.83,5.12-49.96,15.7-72.01l1.96.12c.82.05-.94-5.92,4.55-8.77.53-.28,1.27-1.82,1.8-1.81l2.79.07c.81.03,2.45-.83,3.1-.41,3.78,2.42,3.36,17.18,2.34,24.32ZM736.44,174.13l-1.31-7.5-1.17-9.37c2.86,5.25,4,10.2,2.48,16.87Z"/>
      <path d="M670.46,129.5l2.97-.47c5.01-2.96,10.77-7.72,15.27-11.93,1.1,1.14,2.66,2.56,3.63,2.53.98-.02,2.17-1.54,2.96-3.1l-5.85-1.51,2.02-2.48c4.14-5.07,7.12-9.24,6.54-16.97-.3-3.97.16-8.77-.99-12.36l-1.86-5.77c-1.97-6.13-6.85-11.36-12.63-14.14l-16.74-8.07c-3.51-1.69-6.2-5.19-4.82-9.63,1.76-5.68,5.69-11.34,10.43-15.01l7.92-6.12c.62-.48,2.49-.63,3.17-.37,2.68.99,2.19,8.32,1.45,13.46l1.76,4.52c.17.45,1.94,1.44,2.1.98l.82-2.5c.14-.42,1.39-.3,1.33.11l-.24,1.64c-.12.82-.15,2.23.08,2.91.24.67,1.91,1.72,2.34,1.16l1.76-2.27c.93-1.2,2.67-2.95,3.89-3.13,1.19,2,2.69,4.26,4.26,4.65.77-.07,2.17-2.3,1.55-2.37l-2.3-1.16c-.23-.12.48-.75.69-.92l.61-.5c-.63-.87-1.43-3.06-1.46-4.35-.02-.92,1.44-1.62,2.62-2.05-1.01-.51-2.14-1.09-1.82-1.32l1.21-.9c.41-.29.98-1.13,1.17-1.59.15-.35-1.41-1.37-1.42-1.75l-.45-11.03c-.23-5.72-6.22-11.46-12.3-13.7-3.47-.17-5.72-.64-7.78-2.89-1.47-.77-4.79-1.22-6.52-1.08l-4.68.39-.88,4.7-12.89,7.22c-2.88,1.6-5.16,3.58-7.51,6.02l-4.16,4.33-7.17,10.65c-.9,1.33-2.24,3.2-2.51,4.79l-1.89,10.92,3.36.38-.48,1.7c-.9-.48-2.4-1.12-2.46-.57-.05.41-.03,1.84.18,2.38l4.05,10.37c.32.64,1.24,1.71.78,1.87l-1.8.6c2.14,1.2,3.76,2.53,5.62,4.16,4.25,3.71,10.04,5.19,15.17,7.34l9.01,3.78c4.09,1.72,6.29,6.03,4.64,10.67-1.89,5.33-5.86,11.05-11.04,13.43l-9.52,4.39c-.85.39-3.45.32-4.14-.27-2.29-1.98-3.95-6.7-3.36-10.97-1.04-.7-2.88.46-4.45,2.24l-.24-6.61-3.3,1.22c-1.35.51-3.38,1.88-3.33,3.11l.34,7.51c-2.72-2.46-3.4-3.3-5.26-3.95l2.34,2.07-3.44.1.08,7.27c.05,5.18,4.54,14.47,8.5,19.23-.66,1.65-.77,2.91.41,4.78l1.48-3.29c6.65,3.98,14.47,4.63,22.03,3.11l.86,1.91c.14.29.97-.49.9-.81l-.28-1.49,5.4-3.02,3.3,1.51c.26-1.78.32-3.58.95-3.68ZM657.19,111.7c3.96-1.92,7.14-3.59,10.47-6.45-1.45,4.07-6.09,6.38-10.47,6.45Z"/>
      <path d="M586.1,150.35c-.22,4.52.04,8.32,1.4,12.44,1.98-1.8,2.53-2.51,3.19-4.63-.23-1.52.38-1.42.8-.24.32.64,1.04,1.8,1.35,1.54.31-.26,1.03-.97,1.21-1.32l.96-1.82c.2-.38,1.7-.04,1.91.14l.58,7.24c4.01.33.66,5.75,2.38,6.95l2.72,1.89-.72-2.24c-.11-.34.86-1.13,1.11-1.39l.16-3.18,2.34,1.41c.91.55,2.89-3.34,2.42-9.03-.24-2.87-.32-4.85.19-7.65l1.35,4.71c.17.58,2.15.73,2.58.27.43-.46.73-1.5.79-2.29l.3-4.28,1.84,3.83,2.69-5.99c.43-.97-.97-3.25-1.09-4.15l.35-10.87c.06-1.99.77-4.08,1.38-5.38-.32-1.06-.84-3.31-.75-4.5l.78-9.46,2.16-22.01,1.42.07c.2,0,.62-.53.45-.64l-1.44-1,1.21-13.16,2.87-17.97c.24-1.53,1.11-4.13,0-5.25-.89-.91-3.37-2.04-4.21-2.01-.76.87-1.75,1.84-1.81,1.41l-.22-1.65c-.13-.96-.48-2.96-1.28-2.82l-3.02.55c-.45-.51-3.54-1.15-4.06-.2-.93,1.68-1.72,4.41-2.25,6.31-.93-1.62-2.12-2.7-3.86-3.89l-2.65-1.8c-.6-.41-2.06,1.32-2.29,2.01l-1.63,4.78c-4.83,17.93-8.65,35.93-9.56,54.31l-2.03,40.98Z"/>
      <path d="M599.72,38.62l6.29-1.54-.31,2.12c-.05.33,1.04.96,1.91,1.45,2.93,1.65,6.23-5.89,6.63-2.35l.2,1.76,4.95-6.28c.64-.36,2.18-.36,3.76-.26l6.18-10.5-.66-6.55-6.23-2.58c-.17-.97-1.12-3.12-1.99-3.09l-3.67.13-3.42.12c-.79.03-1.14,2.24-1.74,2.83l-5.64,5.52-1.27-1.45c-.24-.28-1.15.55-1.09.91l.34,1.99c.32,1.85-1.72,5.28-3.14,6.72,1.1,3.45.63,6.53-1.11,11.04Z"/>
      <path d="M874.21,66.27l.79-2.01-1.23.2-.58,1.23c-.13.27.91.86,1.02.58Z"/>
      <path d="M723.25,308.47c-.52.23-.24,2.83.29,2.59l2.59-1.2.2,1.33c.42-.19,1.08-.49,1.72-.79-.47-1.41-3.49-2.52-4.79-1.93Z"/>
      <path d="M1089.76,210.74c.16-.08.23-.12.39-.2-.13-.02-.27.06-.39.2Z"/>
      <path d="M1091.69,208.45c.3-.41.62-.86.98-1.36-.51.27-.77.4-1.28.67.12.28.18.42.31.69Z"/>
      <path d="M1208.45,37.35c-.39-.04-1.66-.11-2.13-.02-3.81.74-5.79,1.15-9.86,1.99-3.42.7-6.44,1.98-9.65,1.79,5.1-2.48,15.64-4.46,15.73-7.82.07-2.65-5.19.64-12.07,1.63-2.03-1.75-2.96-1.79-5.61-.86-7.05,2.49-14.18,4.78-21.35,6.98-.2-.09-.38-.14-.56-.14-2.45,0-3.68,0-6.17-.02,4.89-2.87,7.3-4.34,11.97-7.41-3.22-.45-4.86-.69-8.17-1.18-2.17-1.72-3.27-2.59-5.48-4.34-2.29,4.88-7.31,1.3-10.44,1.11-11.88,3.69-23.83,7.04-35.86,10.21-.93.24-3.55,1.86-4.19,1.21-1.3-1.3-1.96-1.95-3.26-3.26-5.63.85-9.63,3.97-8.45,9.92-6.07,2.37-9.11,3.54-15.15,5.87-1,.39-2.89,3.1-1.95,3.53,2.38,1.11,3.58,1.66,5.96,2.76-2.08,1.26-3.12,1.89-5.2,3.15-1.84.34-3.38.91-3.67,1.76-.36,1.05,1.21,2.18,2.79,2.92-1.65.3-4.34,2.06-3.22,2.8,2.91,1.92,7.39,2.54,12.54,1.96,1.12,1.86.9,3.57.37,5.67-3.04,12.1-6.02,24.26-9,36.39-2.44,1.1-3.65,1.63-6.07,2.69-1.24.54-2.43,2.25-1.92,3.33.36.76,2.83.85,3.96.62-.25.84-.75,2.8-.28,3.52.78,1.18,1.17,1.78,1.95,2.93.45.67-1.48,2.46-2.43,3.22-1.39,11.29-2.48,22.66-2.96,33.9-.28,6.69-.31,13.56-.3,20.33-2.22,1.58-5.65,4.95-2.8,6.76,1.03.66,5.29.6,5.32,1.43.06,1.31.08,1.97.14,3.28.06,1.36.91,3.29,2.8,4.17,1.34.63,3.92.63,5.6.31,1.29-.25,2.26-.43,3.23-.62.94-.18,1.89-.37,3.14-.63-1.25.26-2.2.45-3.14.63,1.14.24,2.16.48,2.86.81.21.1.42.2.63.29.51,1.47,1.56,2.53,3.42,3.18,1.59.55,3.26.63,4.94.37-.65.95-1.27,1.84-1.83,2.62.61-.32.92-.48,1.53-.79.77-.4,1.16-.59,1.93-.99,1.47-.58,1.91-1.05-.54-.74-.23-.06-.46-.12-.68-.18,3.12-.57,6.26-2.24,8.97-4.04,4.04-2.69,9.36-4.82,14.28-7.15,12.27-5.82,24.43-12.14,36.6-18.31.9,1.18,2.84,2.43,3.08,1.68,1.47-4.72,1.43-3.95,5.92-5.99,1.01-.46,2.5-3.3,1.9-4.28-.5-.82-2.22-1.2-3.8-1.55,2.2-1.86,3.29-2.78,5.47-4.61-3.44-.56-5.19-.81-8.72-1.26,6.35-2.82,12.81-6.17,18.56-10.08-1.12-1.74-2.5-1.58-5.89-1.99,2.3-.81,3.45-1.21,5.72-1.96-2.36-1.33-4.44-2.01-6.55-2.29.46-.92.7-1.36,1.17-2.23.25-.47-1.53-.78-2.15-.56-3.81,1.37-5.73,2.14-9.59,3.7-3.33,1.35-5.76,1.6-9.46,2.1-4.13,1.11-9.54,3.46-13.82,5.43-6.34,2.92-12.77,5.81-19.23,8.5-.01-1.46-.02-2.19-.02-3.6,0-.52-2.13-.46-2.38.02-.44.85-.67,1.29-1.1,2.15-.2.39-1.29-.43-1.61-.69-.61-.51-.91-.76-1.52-1.27-.29-.22-.59,2.18.12,2.39.25.07.47.14.69.2-1.4.55-2.1.82-3.49,1.37.43-9.63,1.33-18.94,4.26-28.18,2.38-.08,2.83-.21,2.58-.54-.99-1.36-1.48-2.04-2.48-3.41,3.58-1.6,5.36-2.4,8.93-4.01,5.41-2.43,10.4-5.17,17.21-4.04.19-.73.48-1.85.56-2.17,2.49-1,5.14-.5,6.9.63,1.14-2.59,1.71-3.88,2.84-6.48.78-.22,1.57-.43,2.37-.62,2.33-.56,6.59-2.06,7.42-3.41.25-1.05.06-2.47.85-2.95,1.31-.79,1.96-1.19,3.25-1.97-3.57-.31-5.39-.45-9.07-.74,6.88-2.16,10.29-3.22,16.9-5.26,1.98-1.66,2.97-2.49,4.89-4.13-1.01-.46-4.35-.79-6.03-.35-4.14,1.07-6.25,1.62-10.52,2.72,1.67-1.31,3.38-2.02,3.32-2.48-.12-.99-.19-1.49-.34-2.48-2.23-.6-6.7-.13-10.37.92-1.14.32-2.17.61-3.13.88-.97-1.81-1.45-2.71-2.44-4.53-2.69,1.23-5.91,3.41-5.42,6.07-8.25,2.26-16.53,4.42-24.82,6.51.08-.49.12-.74.2-1.23,1.79-5.78,3.43-11.65,4.88-17.52.72-.38,1.51-.67,2.22-.85-.74-.22-1.12-.33-1.86-.55.97-4.05,1.95-8.18,2.81-12.37,12.59-2.79,25.31-5.7,37.55-9.16.24.13.48.25.72.36.17-.27.25-.4.41-.67,4.02-1.12,7.98-2.27,11.87-3.46,6.48-1.74,12.94-3.54,19.4-5.33.18-.45.15-1.24-.35-1.37-.3-.07-1.32-.33-1.59-.39,1.5-.98,2.25-1.47,3.73-2.49.72-.5-.66-1.62-1.62-2.47,5.55-1.46,8.23-2.21,13.31-3.55.51-.13,1.41-1.59,1.02-1.63Z"/>
      <path d="M1143.36,121.31c.42.28.63.42,1.05.7.33-.75.5-1.12.83-1.87-.03-.01-.04-.02-.07-.03-.56-.22-2.3.86-1.8,1.19Z"/>
      <path d="M975.76,126.08c-4.29-1.33-5.43-2.24-7.76-5.66-2.61,1.78-3.92,2.65-6.56,4.34.04,1.25-1.39,4.47-2.52,4.03-1.67-.65-2.5-.98-4.18-1.65-1.61.02-4.21,3.11-4.53,5.25-1.83,12.21-3.66,24.41-5.48,36.62-4.53,32.75-5.59,65.67-5.7,98.7,3.9-1.52,5.83-2.3,9.64-3.92,1.11,2.27,1.66,3.4,2.76,5.66.54,1.1,4,2.58,4.81,1.71.82-.87,1.07-2.94,1.35-5.05,1.66.29,2.49.43,4.16.73-1.63-1.25-2.44-1.88-4.05-3.12-.78-.6.96-4.41.93-2.49,2.31.92,4.32.12,6.47-.79.81-2.34,1.21-3.52,2.02-5.86.31-8.37.61-16.74.9-25.1,1.97-24,3.87-48.01,5.62-72.03.55-6.95,1.09-13.89,1.62-20.84.26-3.34,1.4-7.88.49-10.52Z"/>
      <path d="M955.58,115.26c10.33,1.86,7.27-5.23,13.63-2.9,5.86-6.8,10.43-15.19,11.84-24.04.64-4.01-3.89-5.71-6.85-7-2.82-1.22-4.22-1.85-7.04-3.14-4.4-1.51-5.87,3.28-7.58,5.13-4.25,4.6-9.3,11.58-10.38,18.05-.43,2.53.69,6.9,1.39,10.25.47,2.27,2.73,3.24,4.99,3.65Z"/>
      <path d="M790.97,63.98c.9-.34,2.14-1.3,3.05-2.26,1.73-1.82-.46-4.92-2.68-5.26-.45.01-1.65,1.02-1.28,1.23.88.5,1.33.75,2.21,1.26-.23.12-2.98.87-2.68,1.28.55.76.83,1.14,1.38,1.9-1.57.41-2.35.62-3.92,1.05.37.51,3.02,1.15,3.92.8Z"/>
      <path d="M1089.68,210.85s.05-.07.08-.11c-9.29,4.78-18.51,9.69-27.79,14.47.01.18.02.27.04.44-.84.25-1.26.37-2.1.62.83-.42,1.24-.64,2.06-1.06,0-.08-.01-.12-.02-.2-5.67-1.49-7.25-4.1-7.03-8.69-.55-3.69-.83-5.55-1.36-9.19,2.58.46,3.87.68,6.46,1.14,1.78-2.77,2.68-4.15,4.49-6.88-.34-4.46-.5-6.65-.81-11.01.06-5.86.11-8.74.21-14.44,0-3.79,0-5.67.02-9.4-.35-3.63-.52-5.44-.87-9.03,1.11-32.87,4.87-65.41,8.92-98.03.94-7.54,1.8-15.09,2.57-22.65-1.88-.96-2.82-1.44-4.69-2.39-1.03-.52-.33-3.32-.2-4.2.18-1.31.27-1.96.44-3.28.08-.58-2.19-.99-3.77-1.22-1.28,3.71-1.93,5.54-3.24,9.18-.64-.03-.96-.04-1.6-.06.06-1.2.09-1.8.15-3,0-.39-.78-.45-3.15-.89-.83,4.89-1.25,7.3-2.11,12.08-.1.49-1.69,1.67-1.73,1.24-.09-1-.13-1.5-.22-2.51-.07-.82-.74-2.92-1.75-2.9-1.34.03-3.37,1.15-3.81,2.01-1.44,2.83-2.16,4.24-3.59,7.04-1.24,6.52-2.53,13.02-3.85,19.52-1.56,10.87-3.18,21.74-4.84,32.6-1.36,9.55-2.74,19.1-4.12,28.66-2.82-7.33-5.65-14.65-8.48-21.97-2.12-6.25-4.24-12.5-6.35-18.75-1.09-3.24-1.45-8.12-6.53-9.26-7.5-1.68-7.28-4.93-8.91-4.26-1.27.52-1.9.78-3.15,1.31-.59.24-2.7.67-2.61,1.22.26,1.45.39,2.17.65,3.62-2.68,1.77-4.01,2.66-6.62,4.45-.72,8.6-1.43,17.2-2.15,25.81-.81,9.96-1.63,19.92-2.45,29.88-.68,9.72-1.38,19.44-2.07,29.16-.54,5.84-.81,8.79-1.37,14.75-.81,20.64-1.66,41.27-2.68,61.9,1.1.89,2.72,1.85,3.55,1.48,1.95-.87,2.93-1.3,4.89-2.17.23,3.12.34,4.69.56,7.81.05.68,1.38,2.38,1.79,1.95.78-.83,1.16-1.25,1.94-2.08,1.11.61,1.66.91,2.77,1.53-3.27,1.85-6.55,3.71-9.78,5.55-.02,0-.02,0-.03.01-.08.05-.18.11-.32.18-.05.03-.11.07-.18.1-12.64,7.21-25.12,14.73-37.82,21.82.79.2,1.18.3,1.97.5-.74.46-1.47.91-2.14,1.32-.09-.56-.21-1.24-.13-1.59-.97.71-4.06,3-7.01,5.88h0c-2.53,2.47-4.96,5.38-5.76,8.13-.14-2.66-.21-3.99-.35-6.65-.22-19.31-.41-38.63-.61-57.94.31-13.99.61-27.98.83-41.97.82-.38,1.24-.57,2.06-.96.39-.18-.21-.39-2.02-1.78.87-15.4,1.76-30.79,2.73-46.19.85-8.98,1.71-17.97,2.59-26.95,1.15-9.09,2.31-18.19,3.47-27.28-3.17-4.1-2.04-9.23,1.63-12.32.24-1.24.36-1.87.6-3.12-3.36-1.27-5.04-1.92-8.4-3.24-.71-1.1-1.06-1.65-1.76-2.75-.39-.63-2.47.96-3.27.97-1.66.03-4.92.11-5.63.76-1,4.52-1.5,6.77-2.5,11.24-1.47-1.8-2.3-3.06-3.41-3.58-1.66-.77-3.52.62-4.27,2.23-1.23,2.61-1.84,3.9-3.09,6.48-.43.89-3.21,1.2-4.33,1.15-.11.09-.33,1.05-.05,1.08,1.11.12,1.67.17,2.78.28-3.5,4.78-5.28,7.12-8.87,11.76-4.22,7.97-8.49,15.9-12.78,23.83-3.17,5.84-4.77,8.77-7.96,14.72-3.84,7.89-7.59,15.83-11.2,23.83-2.12,5.63-3.17,8.52-5.23,14.41-.23.94-.35,1.42-.59,2.37-.12.45-1.54-.83-1.82-1.35-1.54-8.06-3.04-16.13-4.48-24.2-1.19-6.98-2.38-13.96-3.46-20.95-.52-1.91-.78-2.85-1.29-4.73-.2-2.88-.29-4.3-.45-7.12-.21-3.53-8.3-1.58-9.15-6.62-4.11.32-6.16.48-10.28.82-.74,3.04-1.1,4.57-1.81,7.68-2.65-1.37-3.97-2.04-6.59-3.37-1.6,2.98-3.12,3.83-7.66,3.61-.66,5.62-.96,8.5-1.47,14.46-2.26,7.22-4.34,14.4-6.29,21.71-3.01,14.64-6.07,29.26-9.15,43.88-4.06,16.13-8.12,32.27-12.16,48.4-2.32,8.3-4.62,16.95-2.65,25.5,1.15,5-.73,10.2-1.35,15.18-1.21,9.92-2.39,19.84-3.54,29.76-.76,8.95-1.5,17.9-2.15,26.86-.06.84,1.01,3.51,1.36,4.52.15.43-1.33,1.36-1.82,1.39-.66.04.99,1.39,1.61,1.69,1.09.53,1.63.8,2.73,1.33,1.17.56-6.6,9.73,1.34,14.06.17.57.26.85.43,1.42-1.52.47-4.52,1.89-4.02,2.33,1.89,1.65,2.84,2.48,4.75,4.12.33.28,2.28.34,2.28-.01,0-.84.01-1.27.02-2.11,1.33-2.84,2-4.28,3.35-7.18,1.04.18,2.5.62,2.96.36,1.23-.68,1.84-1.02,3.07-1.7-.07,6.13-.08,9.13-.05,15.01,5.61-1.02,6.29-4.52,6.55-7.89.51-6.54,1.07-13.09,1.68-19.62.78.44,1.17.66,1.95,1.1.21,1.26.31,1.88.52,3.13.12.71,3.79,1.02,3.97.34.62-2.39.93-3.59,1.55-6,.16-.61.77-.67,4.09-.63,1.22-2.18,1.35-6.52.07-9.57,2.51-2.08,3.43-5.54.72-8.61,1.84-13.28,3.75-26.56,5.7-39.83.39-3.53.59-5.31.99-8.85,2.61-19.14,5.27-38.27,7.93-57.4,1-6.63,1.49-9.92,2.46-16.43.39-1.38,1.24-2.05,1.39-.06,1.51,3.13,2.27,4.7,3.78,7.83,2.05,12.83,4.12,25.65,6.26,38.46.21,1.31,3.44,3.99,4.81,4.01,1.38.02,2.27-1.33,4.32-3.81.32,2.05.48,3.08.81,5.13.2,1.28,3.86,2.52,5.33,3.1,1.29.51,1.93.76,3.21,1.27.66.26,1.19-1.91,1.27-2.51.56-4.62.84-6.93,1.39-11.53,1.72.75,2.57,1.12,4.29,1.86.78.34,2.97-1.3,3.16-2.07,1.24-5.31,1.86-7.95,3.09-13.2,3.32-9.76,6.63-19.52,9.95-29.29.84.36,1.25.53,2.09.89.33.14,2.26,1.22,2.31,1.2.02,0-.04-.37-.13-1.29.41-1.54.61-2.3,1.02-3.83-1.09-.99-1.64-1.49-2.73-2.49,2.04-6.15,4.07-12.31,6.1-18.47.95-3.37,1.41-5.13,2.36-8.5.83-2.92,1.29-6.15,4.89-6.58-3.17,33.86-6.74,67.62-6.16,101.67.21,7.1.43,14.21.66,21.31.09,2.85-.09,6.05-3.25,6.2-1.6.07-2.84.13-2.73.66.13.6.86,2.05,1.38,1.88,1.56-.5,2.34-.75,3.9-1.25,1.11,3.44,1.48,7.61.86,11.65,1.54.09,2.31.14,3.83.23.35.02.54-.19.61-.53.13-.61-.06-1.66-.21-2.6.39-1.73.58-2.6.97-4.33,1.25,1.89,1.87,2.83,3.12,4.7.68-2.22,1.03-3.33,1.71-5.54.14-.31.35-.75.51-1.1,1.06,3.31,1.6,4.96,2.66,8.24,8.23,2.62,16.47,5.17,24.75,7.62.56-6.65.29-13.61-2.21-19.86,5.41-2.83,8.07-4.27,13.29-7.22,8.51-3.79,16.97-7.84,25.56-11.34,5.01-2.05,12.97-7.64,14.69-8.22.62-.21,3.9-1.99,8.08-4.32,6.55-2.48,9.87-3.72,16.58-6.22,4.29-1.72,6.45-2.59,10.79-4.32,1.62-.65,3.5-1.75,3.72-3.16.08-.47-.28-.95-.9-1.41,6.71-1.64,14.2-2.93,14.2-2.93,0,0,8.31-2.74,15.35-4.96,3.53.55,5.3.83,8.84,1.38,1.9-.69,5.25-2.83,6.64-4.26.81-.84,1.22-1.26,2.03-2.1.07-.07.14-.14.21-.21,2.19-2.31,10.85-5.98,10.85-5.98,6.07-3.3,12.12-6.67,18.12-10.1-2.96.32-4.45.48-7.43.8,4.84-4.29,7.2-6.48,11.99-10.72-1.92-.25-2.88-.38-4.81-.63,0,0,4.07-2.06,9.03-5.55,4.8-3.38-7.59,2.27-8.31,2.6,4.79-3.84,9.7-7.6,14.92-10.84-7.94,2.87-15.97,5.51-23.99,8.17-.69-.32-1.17-.54-1.98-.92,0,0,0,0,0,0-.94,1.3-1.54,2.09-1.54,2.09-.19.12-.28.18-.47.31ZM1056.23,227.36c-6.08.46-19.96,1.39-20.55,3.53-.41.04-2.26.91-1.88,1.06.23.09.34.13.56.22-11.11,7.94-23.94,14.31-35.94,21.12.82-5.83,1.21-8.75,1.99-14.59.04-.62.78-.23,2.99,2.05.21-.07.77-.3,1.51-.59,1.4-2.76,2.09-4.14,3.48-6.91-1.46-5.14-1.02-9.74-.68-14.94.69-10.41,1.28-20.83,1.96-31.24.44-7.19.66-10.73,1.11-17.73.59-6.42.88-9.59,1.48-15.89,2.75,6.47,5.49,12.94,8.22,19.41,2.7,6.23,4.05,9.38,6.78,15.77-.06.17-.18.51-.3.83-1.75-.68-2.62-1.02-4.36-1.69,2.67,2.68,4.01,4.02,6.7,6.73,2.47,2.48,4.46,5.45,1.2,7.84-.37.27-1.41,1.01-1.42,1.04.48.66.73.99,1.21,1.66,3.5,5.22,8.68,10.77,14.18,13.9,1.23,2.51,1.84,3.77,3.05,6.29.15.33,2.61.94,2.87.7.89-.83,1.34-1.25,2.23-2.08,1.22.5,4.01,1.87,5.15,3.06-.62.18-.93.27-1.55.46,1.14-.09,1.83-.13,1.83-.13,0,0-.69.05-1.83.13Z"/>
      <path d="M946.82,282.98c.2-.15.31-.22.31-.22-.17-.05-.26.05-.31.22Z"/>
      <path d="M1148.07,121.22c-.1-1.07-.88-2.11-2.05-2.87-.32.72-.47,1.08-.79,1.8,1.14.43,1.71.65,2.84,1.07Z"/>
      <path d="M1119.24,200.5c-.3.04-.84.29-1.55.7,1.3-.48,1.93-.75,1.55-.7Z"/>
      <path d="M1176.1,199.79l11.15-2.73-.55,3.76c-.08.58,1.84,1.71,3.39,2.58,5.19,2.92,11.04-10.43,11.75-4.17l.35,3.12,8.78-11.13c1.13-.64,3.86-.63,6.67-.46l10.95-18.62-1.18-11.61-11.05-4.57c-.3-1.73-1.99-5.53-3.54-5.48l-6.5.23-6.06.21c-1.4.05-2.02,3.98-3.09,5.02l-9.99,9.78-2.24-2.58c-.43-.49-2.04.98-1.93,1.62l.61,3.53c.57,3.28-3.05,9.35-5.57,11.91,1.95,6.12,1.12,11.57-1.97,19.57Z"/>
    </g>
  </g>
</svg>