<?xml version="1.0" encoding="UTF-8"?>
<svg id="Livello_2" data-name="Livello 2" xmlns="http://www.w3.org/2000/svg" viewBox="0 0 1217.06 394.85">
  <g id="Livello_1-2" data-name="Livello 1">
    <g>
      <path d="M50.04,209.19c.03,2.55.05,3.83.08,6.38.1,5.13.15,7.69.25,12.82.57,5.06.85,7.6,1.42,12.67.17,1.53,1.81,2.92,1.73,4.62-.33,6.67,3.19,15.79.5,23.82-.63,1.88-2.23,4.13-1.79,6.15-3.66,1.64-4.82,3.79-5.8,6.83-2.85,8.8-8.1,9.55-15.5,12.06-2.66.9-3.99,1.35-6.66,2.26-5.18,1.76-11.57,1.64-15.94-.62-1.05-.54-2.16-1.85-2.84-2.5-4.25-4.06-4.27-9.24-4.88-14.34-1.06-8.9-.71-22.64.69-31.86.68-4.49,1.03-6.74,1.71-11.24.61-3.54.91-5.3,1.52-8.84,2.28-12.08,3.43-18.12,5.73-30.22.6-5.11.91-7.66,1.51-12.77.67-4.99,1.01-7.48,1.68-12.48.97-9.9,1.45-14.86,2.42-24.76.52-3.52.78-5.28,1.31-8.8.76-5.14.75-9.71.58-14.78-.19-5.59-.28-8.38-.47-13.97-.35-10.37.41-20.3,4.96-30.87,3.32-7.68,17.97-15.88,27.44-12.68,6.45,2.18,10.39,6.92,12.8,11.93,1.29,1.88,1.93,2.82,3.22,4.7,3.75,7.21,5.98,14.81,7.63,22.71,2.14,10.26,3.21,15.41,5.32,25.72.17.83-.1,1.33,1.14,1.32.77,0,1.4-.44,1.49-1.39.56-5.67,2.29-11.01,3.32-16.57,2.98-16.11,8.13-32.26,17.65-45.81,1.85-1.82,2.78-2.73,4.64-4.55,6.31-7.88,19.5-11.4,29.22-6.91,1.05,1.21,2.73,2.74,4.44,3.84,3.19,2.05,4.75,12.86,3.08,16.09-1.63,3.14-.54,6.29-.66,9.36-.2,5.43-.3,8.14-.51,13.57-.14,3.77-1.14,7.68-1.97,11.4-2.46,11.07-1.51,21.61.31,32.44.32,4.35.48,6.52.79,10.87-.48,10.04,2.18,19.3,2.77,29.14.42,6.97.62,10.46,1.03,17.44.08,1.31,1.33,2.39,1.44,3.84.7,8.99,2.95,17.43,5.07,26.19,1.74,7.15,2.6,10.74,4.32,17.92.37,3.13.56,4.69.93,7.82.37,3.07-.45,8.34-3.36,10.33-3.16,2.16-4.73,3.24-7.88,5.4-2.6,1.79-6.14,2.26-9.13,2.75-9.87,1.63-26.64,3.34-34.39-5.24-2.14-2.37-3.1-6.65-2.32-9.55.97-3.63.64-6.67.73-10.18.33-12.47,1.92-25.01,3.19-37.44.21-15.17.41-30.35.6-45.52.07-5.96,1.07-11.46-.57-17.54-2.12,6.37-3.17,9.55-5.28,15.9-1.22,6.34-1.82,9.51-3.03,15.84-.57,2.97-1.67,4.96-3.22,7.6-2.37,4.03-3.66,9-8.77,11.76-3.72,2.01-9.43,2.16-13.41,1.23-4.65-1.09-6.79-4.37-7.73-7.9-1.47-5.49-2.21-8.23-3.68-13.71-.57-2.12-1.39-3.63-1.97-5.63-1.48-5.11-2.23-7.67-3.72-12.77-1.77,4.27-1.71,8.05-2.35,12-1.29,8.02-.85,15.59-.84,23.68,0,4.41,0,6.62,0,11.04Z"/>
      <path d="M250.36,259.76c-1.3,1.75-9.49,9.48-10.41,9.92-13.13,6.41-27.94,6.26-41.64,5.15-7.65-.62-14.32-2.73-20.46-6.69-2.66-1.71-5.22-3.14-7.33-5.63-4.46-5.25-6.99-11.21-9.38-17.34-.63-1.61-1.67-2.77-2.03-4.58-2.03-10.36-3.87-26.25,3.36-35.76,6.86-4.84,14.37-5.55,22.16-1.8,3.91,1.88,6.38,5.51,8.15,9.1,4.69,9.53.84,17.62,5.67,24.31,1.82,2.53,3.16,5.69,7.03,6.39,4.73.86,7.43-.68,9.63-3.87,1.85-2.68,3.24-6.25.89-9.35.18-17.19-.43-33.28-2.36-50.37-5.84,3.62-10.84,5.57-17.03,5.51-5.41-.05-10.63-.33-14.91-2.61-5.38-2.86-10.17-5.56-13.41-10.22-1.17-.81-1.75-1.22-2.92-2.03-8.93-12.89-12.07-27.51-11.62-42.78.05-1.81-1.5-3.96-1.32-6.17.79-9.99-.42-19.5-1.35-29.34-.77-8.13-1.15-12.2-1.93-20.32-.38-4,2.33-8.72,5.85-11.73,6.26-5.36,18.86-6.02,26.24-.08,1.98,1.59,3.83,4.21,4.31,6.4,1.18,5.37,1.77,8.06,2.94,13.45.16,6.24.24,9.36.4,15.6.23,10.13.34,15.2.56,25.34.05,2.22.93,3.62,1.53,5.56,1.56,4.99,1.47,14.08,8.59,15.33,8.72,1.54,13.45-8.1,15.83-15.88,4.09-13.41,6.33-27.81,3.93-42.34-.93-5.62.21-11.37,3.09-16.57,1.83-3.29,4.98-4.68,8.74-6.06,3.88-1.43,5.83-2.15,9.72-3.57,2.96-1.08,7.3-1.55,10.47-.51,3.28,1.06,4.91,1.6,8.19,2.68,9.9,4.53,9.06,16.68,7.14,26.6-.81,4.21-1.22,6.31-2.03,10.52-1.58,11.81-2.37,17.71-3.95,29.52-.84,3.89-1.27,5.83-2.11,9.71-1.52,13.29-2.27,19.94-3.79,33.24-.11,8.86-.17,13.29-.29,22.16-.06,4.45.17,8.74.33,13.14.13,1.28.99,2.49.97,4.24-.07,8.53-.11,12.79-.19,21.33-.08,8.96-1.11,24.81-5.25,30.41Z"/>
      <path d="M346.74,353.66c3.6.02,5.41.03,9.01.06-3.38-.68-5.08-1.01-8.46-1.68-1.9-.37-3.37.56-4.53,1.21-9.47-1.18-17.8-5.37-24.1-11.79-7.32-7.46-9.79-21.86-9.01-31.49.9-11.1,6.27-22.96,18.89-24.77,6.9-.99,14.38.19,18.29,5.82,4.43,6.38-1.54,12.06-.12,19.6.88,4.69,5.84,7.44,11.47,7.51,12.98.16,14.6-11.62,16.61-13.39.27-.24-.58-.96-.7-1.22-.49-7.13-6.5-13.53-13.52-17.55-5.86-3.36-8.8-5.02-14.68-8.31-11.68-5.95-23.97-10.6-32.81-20.68-4-4.56-6.32-11.16-6.18-17.01.04-1.68.34-1.88-.42-3.45-2.04-4.21.01-9.19,1.02-13.54,1.42-6.14,5.24-12.39,10.74-16.69,4.69-3.67,8.84-7.74,14.95-9.78,19.02-6.35,35.99-6.18,56.41-1.41,5.45,3.32,10.15,6.77,14.37,10.98,4.51,6.61,6.24,13.72,5.24,21.28-.6,4.54-1.3,8.71-4.01,12.8-1.03,1.55-2.5,2.35-3.78,3.53-6.2,5.7-20.07,8.41-26.94,1.13-3.18-3.37-2.99-8.09-2-12.39,1.11-4.84-.65-10-5.48-11.98-7.14-2.94-13.77-.59-17.83,4.27-3.27,3.91-3.2,7.2-.67,11.36,2.14,3.52,3.59,7.21,7.4,10.2,2.77,2.18,4.16,3.28,6.92,5.48,6.51,4.2,9.75,6.32,16.22,10.6,6.18,3.86,9.26,5.81,15.41,9.75,2.42,1.55,4.93,3.24,7.11,5.02,3.24,2.66,4.86,3.99,8.1,6.67,9.22,9.05,13.22,23.93,10.59,36.08-.54,2.52-.71,4.91-2.14,7.28-2.09,3.48-3.13,5.21-5.21,8.68-2.57,4.28-6.8,6.64-11.04,9.34-4.41,2.81-8.48,4.81-14.04,5.92-5.64,1.12-11.11,3.5-17.43,3.73-5.46.19-8.18.3-13.64.52-3.6.15-6.94-.5-9.98-1.66Z"/>
      <path d="M492.05,13.83c1.88,2.3,5.37,4.56,6.44,7.26,2.16,5.42,2.09,10.61,1.89,15.98-.42,10.71-.63,16.07-1.06,26.8-.52,12.83-.13,25.81.44,38.63.48,2.29.72,3.43,1.2,5.72.9,14.21,2.47,27.73,5.17,41.54,1.01,5.15-.91,11.19-5.45,13.98-2.25,1.39-5.24,1.5-7.89,2.13-4.25,1.02-9.82.14-12.35-3.47-1.16-1.65-1.28-3.1-3.08-4.65-4.75-4.11-6.82-10.73-7.02-16.89-.2-6.37-.31-9.55-.52-15.9-.38-9.98-.58-14.96-.99-24.92-.1-2.33-.48-4.13-.91-6.39-.91-4.77-1.36-7.15-2.28-11.91-6.64,12.95-3.09,34.87-15.52,42.43-3.03,1.84-7.98,1.18-11.81-.68-2.56-1.24-5.1-4.39-5.92-7.71-.57-2.3-2.09-4.11-2.82-6.23-2.52-7.29-3.17-14.63-7.16-22.13-2.56,10.85-1.49,21.4-1.47,32.26.02,11.61.49,21.02,4.04,32.55,1.02,3.3-.62,7.15-1.1,10.45-1,.94-1.5,1.41-2.5,2.35-4.45,7.92-8.84,6.03-13.01,7.56-4.2,1.54-10.62.29-13.92-2.65-4.03-3.59-4.29-8.36-3.41-12.98.27-1.39-1.95-2.85-2.14-4.28.47-.54.71-.81,1.18-1.35-.37-.68-.55-1.01-.92-1.69.28-5,.42-7.5.69-12.5,1.52-11.44,3.04-22.89,4.56-34.33,1.33-11.82-.18-23.88-.45-35.71.1-7.74.15-11.61.24-19.34.1-8.67.25-16.99,2.41-25.42,2.15-8.4,12.13-14,21.64-11.91,5.5,1.21,11.7,9.28,12.61,13.93,1.08,5.5,1.62,8.25,2.69,13.76,1.3,6.69,1.58,13.73,4.9,19.88,1.76,3.27,2.47,6.21,4.27,10.15,2.09-7.19,3.13-10.78,5.23-17.97,3.02-10.37,6.45-20.67,13.46-29.62,3.37-2.94,5.06-4.41,8.44-7.35,1.27-.7,1.91-1.04,3.18-1.74,7.61.91,11.41,1.38,19.01,2.36Z"/>
      <path d="M472.33,272.5c.47,4.39,5.48,14.21,6.08,21.27.52,6.16-.38,10.33-4.27,14.97-1.93,2.3-4.48,4.31-8.34,3.06-4.86,4.08-10.81,3.66-16.82,1.25-5.73-2.31-8.33-7.65-7.9-13.43.29-2.35.69-4.69-1.07-6.89-.2-13.41-.41-26.83-.64-40.24-.06-3.33.12-6.35-.04-9.65-.34-6.9-.51-10.35-.86-17.23-.35-6.96-.51-13.37-.22-20.31.19-4.54.29-9.96,5.11-13.1,6.8-4.43,19.13-4.84,25.37.8,6.3,5.69,7.03,10.38,11.29,15.05,2.15,3.57,3.22,5.35,5.36,8.94,2.47,4.14,4.41,8.48,8.16,11.96,1.56,1.94,2.33,2.91,3.88,4.85-.99-6.06-1.49-9.09-2.5-15.14-.54-1.97-.8-2.96-1.34-4.93-2.62-9.61-3.98-22.52-1.29-31.89,1.38-4.82,5.15-7.91,10.57-9.48,5.1-1.47,9.84-1.98,15.11.09,4.07,1.6,7.61,5.24,7.16,9.39-.35,3.28-.53,4.92-.88,8.2.34,11.67-1.19,23.85-.06,35.12.13,1.33.96,2.62,1.05,4.2.14,2.67.22,4.01.36,6.68,1.46,5.64,2.19,8.47,3.63,14.13,2.51,6.44,3.76,9.67,6.24,16.15,2.91,7.69,4.36,11.55,7.23,19.29,1.37,3.68.33,9.46-1.33,13.56-.8,1.98-3.43,3.97-5.16,5.08-1.98,1.27-4.8,1.11-6.85,1.76-3.87,1.23-6.93,2-11.09.29-2.64-1.09-6.38-2.03-8.03-4.68-2.7-4.33-4.05-6.49-6.77-10.8-1.02-1.61-1.92-2.89-2.98-4.4-4.38-6.23-6.57-9.33-10.99-15.49-1.32-1.43-1.98-2.15-3.3-3.57-4.25-6.18-6.39-9.25-10.67-15.36-1.98-2.35-2.97-3.51-4.95-5.85-.66,2.75-.59,4.89-.32,7.35.83,7.6,1.24,11.4,2.06,19.02Z"/>
      <path d="M319.7,181.87c-5.31,2.78-21.56,4.28-27.35,2.02-4.11-1.61-6.7-4.97-8.48-8.59-2.47-5-2.04-11.07-1.26-16.65,1.24-8.88,1.86-13.32,3.11-22.2,1.09-6.47,1.63-9.71,2.73-16.18,1.04-6.15,2.08-12.22,2.34-18.42.14-3.22.52-6.1,1.05-9.34.34-2.05.51-3.07.84-5.12,1.48-10.16,2.22-15.25,3.7-25.41,1.04-7.17,3.2-14.06,1.67-21.14-2.68-1.36-5.93-1.52-9.12-1.35-3.5.19-5.25.29-8.74.5-7.15.42-16.26.21-19.13-4.24-3.44-5.34-1.83-11.62.77-17.32,2.11-4.62,4.53-8.24,9.72-11.09,4.22-2.32,9.52-4.3,14.81-4.47,17.11-.55,34.95-4.02,52.21-2.5,11.82,1.32,17.72,2.02,29.52,3.5,2.6.33,5.11,2.57,7.16,3.65,3.27,1.73,2.91,4.85,3.49,7.53,1.22,5.67-1,11.46-7.49,14.29-2.23.97-5.15,2.64-7.87,2.57-9.89-.26-28.33-.2-29.05,6.82-.46,4.43-.69,6.65-1.14,11.08.32,5.44-1.98,10.5-2.17,15.83-.15,4.15-.22,6.23-.37,10.38-1.53,12.08-3.07,24.16-4.6,36.24,1.62,1.38.95,3.05,1.19,4.58.79,4.98,1.02,9.65,1.37,14.61.47,6.55.7,9.82,1.15,16.38.53,7.56,1.82,15.08-.25,22.55-1.26,4.53-5.87,9.43-9.8,11.5Z"/>
      <path d="M620.08,231.28c.73-4.97.35-10.09-.05-15.2-.14-1.85-.87-2.97-1.33-4.66-2.62-9.8-6.52-20-15.26-26.12-3.3-2.31-4.96-3.47-8.27-5.76-4.47-1.78-6.71-2.67-11.19-4.42-6.38-2.5-13.92-2.67-20.91-1.68-6.56.93-12.19,4.2-17.39,7.61-9.8,6.43-15.08,18.76-16.83,30.43-1.37,9.11-1.16,17.98,1.71,26.95,1.63,5.1,2.16,10.69,5.26,15.13,2.17,3.09,3.25,4.65,5.41,7.76,3.01,4.34,7.21,7.77,12.12,10.4,0,0,.02.01.05.03.03.01.06.03.08.05,12.4,7.42,30.43,13.37,43.8,6.6,15.1-7.66,20.63-30.57,22.81-47.11ZM562.87,203.8c3.08-5.08,9.56-8.28,15.81-6.09,5.2,1.82,7.41,6.27,9.23,10.51,3.06,7.14,1.61,17.94-2.8,24.22-4.01,5.71-8.33,12.9-16.04,11.17-9.67-2.18-10.69-13.34-10.54-22.46.1-6.15,1.1-12,4.34-17.35Z"/>
      <path d="M539.64,99.56c-3.22,2.19-3.51,16.19,2.09,16.76,11.84,1.2,25.84-5.83,35.8-1.31,9.95,4.52,11.48,22.31,7.63,32.33-1.12,2.93-3.24,4.04-5.8,5.61-3.57,2.19-7.68,2.63-12.22,2.17-7.46-.76-14.53-.4-21.8.66-4.54.66-6.8,1-11.33,1.67-4.39.65-8.9,1.16-13.16.17-11.99-2.79-13.38-18.76-12.83-29.31.2-7.83.3-11.74.49-19.56.24-9.68-.28-19.02.34-28.71.52-8.2.78-12.29,1.29-20.48.22-3.47-.63-6.23-.57-9.37.11-5.35.16-8.03.26-13.37.09-4.53.77-9.06,4.3-12.15,8.29-7.25,17.78-4.21,29.32-1.83,4.82,1,7.23,1.5,12.04,2.52,10.66,1.87,15.99,2.84,26.63,4.83,6.35,1.19,8.93,6.28,8.33,11.64-.6,5.33-6.63,8.86-13.05,8.11-4.22-.49-6.33-.73-10.55-1.21-7.91-.89-15.64-2.28-23.62-1.35-3.36.39-5.93,4.04-5.88,7.07.13,7.56.19,11.34.3,18.91,4.85,1.25,9.33.75,14.16.43,6.41-.42,9.61-.62,16.03-1.01,6.8-.41,15.65,3.79,16.9,11.08.42,2.45,1.37,4.94.17,7.18-2.49,4.64-7.02,7.74-12.9,7.29-6.29-.48-9.44-.71-15.73-1.15-5.34-.38-12.23-.61-16.64,2.39Z"/>
      <path d="M291.33,366.49c-1.49,1.91-5.96,1.54-8.43,1.98-15.64,2.76-18.36-2.5-21.5-3.78-2.63-1.07-2.93-3.73-4.19-5.6-.9-1.34-2.34-2.28-2.04-4.05.28-1.64-1.28-2.96-1.42-4.39-.39-4.11-.58-6.16-.97-10.26.59-9.79.88-14.68,1.46-24.47-.85-7.84-.28-15.35.62-23.16,1.38-11.99,2.07-17.99,3.46-29.98,1.15-2.62,1.72-3.93,2.88-6.56.9-2.06,2.7-2.65,4.3-3.76,6.13-4.25,13.15-6.41,21.1-5.46,4.54.54,8.13,2.96,9.87,6.38,3.18,2.59,3.59,6.27,3.36,9.86.48,2.88.72,4.32,1.19,7.21.11,2.37.16,3.55.26,5.92.07,3.31.11,4.96.18,8.26-1.67,12.22-1.02,26.79,2.12,38.64,1.87,7.07,2.62,14.16,1.71,21.42.47.58,1.64,1.65,1.14,2.42-.39.59-1.36,1.16-1.46,1.62-.15.7.27,1.61,1.46,2.34-1.93,1.24-1.64,2.53-2.36,4.38-1.05,2.72-3.65,6.95-6.87,8.07-2.57.89-3.94.48-5.88,2.97Z"/>
      <path d="M706.03,181.92c-1.8.24-1.95,1.43-3.08,2.13-3.27,2.01-8.04,1.13-11.93.62-4.07-.53-6.11-.79-10.18-1.31-2.63-.33-5.48-.95-8.06.38-2.32,1.19-3.58,4.55-3.42,7.2.34,5.75-.59,10.94-.9,16.48-.22,4.01.03,7.93.09,11.85,0,0,3.74,13.85,3.24,21.19-.5,7.33-8.97,12.87-15.41,17.78-7.94,6.05-21.38-2.76-26.58-10.35-5.18-7.55,2.48-28.63,2.48-28.63,1.36-8.33,2.04-12.49,3.4-20.82.72-3.12,1.09-4.68,1.81-7.8.73-3.14,1.5-6.31.2-9.58-5.92-1.76-11.87-1.76-18.03-1.35-3.04.2-6.88-1-9.46-2.57-4.04-2.45-6.14-7.24-5.79-11.25.33-3.72,2.62-6.09,5.67-8.17,4.07-2.79,9.26-2.97,14.26-3.56,6.25-.75,9.38-1.12,15.65-1.83,7.35-.85,11.02-1.27,18.38-2.08,14.53-1.77,30.12-3.23,44.27,1.53-.85.62-1.5.51-1.85,1.66,2.62-1.07,3.6-.07,5.44,1.13,3.51,2.3,6.54,5.63,6.29,9.88-.06,1.01-1.81,2.96-.68,4.18.9.38,1.35.57,2.26.95,1.22.52.47,11.22-8.05,12.34Z"/>
      <path d="M368.18,177.66c-10.45,1.16-12.3,1.96-19.98-3.13-9.88-6.55-8.45-17.69-7.43-28.06,1.23-12.58,2.85-25.39,5.15-37.85,1.32-7.16-1.2-10.66-.27-14.21.6-2.31-.04-4.77,1.84-6.87,2.21-2.46,3.28-6.29,6.78-7.88,9.16-4.15,20.81-3.67,24.89,2.72,1.33,2.08,1.64,3.61,3.57,5.3,1.68,1.46.32,4.71.71,6.32.94,3.91.47,7.1.52,10.89.16,11.88-.33,23.99-1.23,35.82-.88,11.7,4.56,21.4-1.27,30.67-2.6,4.13-8.12,5.72-13.28,6.3Z"/>
      <path d="M284.59,241.82c-6.56,3.28-15.81,1.94-19.54-3.51-3.71-5.42-4.22-12.41-.55-17.87,5.05-7.51,17.81-14.1,27.46-11.89,2.07.47,3.46,1.85,5.58,2.52,4.66,1.48,6.17,11.59,3.4,17.75-.86,1.91-2.85,3.28-3.86,4.92-2.49,4.03-6.37,7.81-12.5,8.07Z"/>
      <path d="M377.56,68.84c-6.18,4.91-16.5,6.02-23.25,1.64-1.84-1.74-2.76-2.62-4.6-4.35-4.47-4.21-5.01-25.5,6.21-27.5,4.74-3.21,10.15-3.9,15.97-2.37,2.17.57,4.75,1.07,5.4,3.19,4.64,1.41,4.87,4.82,5.3,8.22.75,5.9,1.76,11.78-1.85,17.29-.76,1.17-1.89,2.85-3.18,3.88Z"/>
      <path d="M864.46,389.33c-1.74,2.22-2.27,4-3.46,5.52.05-1.17.64-2.83,3.46-5.52Z"/>
      <path d="M746.95,351.37c.74,4.14,3.15,9.29-3.99,12.02-.1,2.95-3.45,4.76-6.38,6.61-3.13,1.98-7.03,2.69-11.47,3.35-3.7.55-7.16.14-10.99-.4-7.44-1.05-12.56-2.76-18.82-6.81-2.77-1.79-5.55-3.52-7.15-6.22-3.15-5.34-4.79-11.08-6.23-17.08-1.3-5.4.27-9.13.88-13.64.64-4.75,1.99-9.93,4.04-14.31,1.79-3.99,2.7-6.01,4.53-10.07,1.95-5.26,2.93-7.92,4.92-13.26,1.68-3.88,2.53-5.84,4.23-9.77,2.26-7.17,4.54-14.33,6.82-21.5.64-3.14.96-4.71,1.6-7.86.88-4.17,1.32-6.25,2.21-10.42.93-4.39,1.39-6.58,2.33-10.96.92-4.15,1.38-6.22,2.3-10.36.96-6.32,1.63-12.59,2.92-18.85-.43-.96-1.54-2.7-1.12-3.55,2.3-4.6,1.82-11.82,5.7-15.74,3.34-3.38,6.37-7.12,12.54-8.71,7.81-2.02,17.73-2.02,25.76.06,7.08,1.83,12.99,7.88,14.34,14.47.78,5.84,1.56,11.69,2.35,17.55.79,7.48.25,15.16,2.75,22.42.5,1.46,2.87,2.69,2.8,4.8,2.95-5.67,4.93-11.08,6.9-17.14,1.75-5.16,3.5-10.32,5.24-15.49,4.14-11.17,9.44-21.36,16.51-30.87,7.5-10.09,23.72-16.6,35.96-15.96,7.14.37,15.81,5.36,14.87,12.49-.57,4.32,1.1,7.85,1.64,11.92,1.54,11.6-.75,22.8-3.63,34.2-2.85,11.3-4.72,22.95-5.33,34.44-.49,9.28.37,19.08.94,28.66.67,11.43,2.53,22.53,5.29,33.92,2.46,9.27,4.94,18.56,7.4,27.88,2.77,10.77.63,28.22-12.61,29.97-5.33-.38-7.94-.75-13.29-1.16-8.97-.69-24.1-2.09-29.4-10.05-1.57-2.36-6.76-3.73-9.39-5.43-7.07-4.58-10.18-13.2-8.78-20.57,1.56-7.32,3.14-14.64,4.72-21.95.51-1.87.76-2.81,1.26-4.68,1.74-6.48,3.48-12.97,5.22-19.46,4.33-14.93,6.01-29.5,6.88-44.94-4.3,7.49-8.62,14.95-12.96,22.39.55,2.03-1.73,3.95-2.2,5.84-1.5,6.11-4.21,10.88-8.2,15.89-1.61,1.09-2.42,1.63-4.03,2.72-2.73,2.86-8,3.59-12.81,3.9-5.16.34-13.33-.79-14.91-6.7-1.78-8.27-3.51-16.53-5.2-24.78-.5-2.46.29-4.88-3.13-7.33-1.6,5.47-2.39,8.21-3.98,13.67-.03.9,1.45,2.11,1.06,3.59-1.27,4.86-1.9,7.28-3.15,12.13-1.12,4.31-1.19,8.15-1.58,12.44-.27,2.91-.4,4.37-.66,7.27-1.14,12.72-.43,27.01,2.37,39.48.82,4.77,1.24,7.16,2.09,11.93Z"/>
      <path d="M1062.07,273.73h0c-7.3,15.56-22.25,29-40.18,28.31t-.02,0c-1.69-.56-3.28-1.23-4.42-2.3-3.84-3.6-8.19-7.88-10.19-12.12-2.75-5.84-4.14-8.72-6.92-14.36-5.56-11.61-11.41-23.13-17.51-34.47-2.24-4.23-3.36-6.32-5.62-10.43-1.31,12.27-2.07,24.26-.34,36.54,1.5,10.66,3.39,21.81,5.7,32.61,1.12,5.22.59,10.16.57,15.1-.04,7.91-3.3,15.55-10.66,18.73-4.3,1.86-7.63,2.97-13.92,2.05-2.81-.41-4.21-.62-7.01-1.06-8.76-4.18-18.84-13.17-18.76-23.37.09-11.72.55-23.41,2.18-34.88,1.61-11.27,2.95-22.6,3.4-34.11.21-10.36.4-20.71.58-31.05-.52-2.44-.78-3.65-1.3-6.07-.66-14.63.31-29.49.72-44,.18-6.21,2.37-11.32,6.44-15.51,1.83-1.89,6.18-3.9,10.14-4.71,5.81-1.19,13.03-1.42,18.46,2.03,3,2.23,4.51,3.35,7.51,5.62,7.17,6.9,10.55,13.81,14.21,22.65,1.69,2.55,2.53,3.85,4.2,6.46,4.14,8.25,8.13,16.59,11.92,25.02,2.85-3.26,1.23-6.36,1.41-9.57.72-13.39.81-27.4-.35-40.8-.66-7.61.29-15.33,1.62-22.64,2.68-14.75,12.39-27.37,26.75-32.42,7.36-2.59,15.78-5.31,23.78-1.23,5.26,2.68,6.74,10.54,5.36,15.26-1.3,7-2.62,13.99-3.96,20.99-.5,6.29-1.01,12.57-1.53,18.87-.83,9.74-1.68,19.48-2.55,29.24-.26,14.81-.58,29.62-.96,44.43.71,3.02,1.07,4.54,1.78,7.59.94,12.81,1.7,26.32.22,39.13-.3,1.79-.44,2.68-.74,4.47Z"/>
      <path d="M1117.5,182.66c-1.13,6.27-3.03,14.75.92,20.91,7.1-2.09,14.19-4.25,21.23-6.54,9.74-2.73,17.53-3.95,26.35.79,2.97,1.6,4.59,6.83,6.94,9.13,2.68,2.63,1.9,4.02,2.61,7.21,1.58,7.07,2.63,15.12-1.23,21.11-3.69,5.74-9.42,10.37-15.89,12.71-4.14,1.5-9.15.45-13.44.77-11.28.84-22.5,3.5-33.37,5.69-9.5,1.91-16.95,1.76-26.75-1.92-1.56-1.87-5.22-5.03-5.85-7.07-1.61-5.21-4.56-11.33-4.62-16.89.29-16.04.59-32.08.88-48.13.41-14.21,1.49-28.48,2.8-42.63.8-9.21,1.57-18.4,2.33-27.6.19-2.35-.86-3.66-.87-5.57-.07-7.96-.19-15.9-.35-23.84.19-12,2.35-21.62,7.8-32.08,7.01-5.9,14.98-11.85,24.34-14.45,11-1.28,21.14-.88,32.3.6,8.28,1.09,16.45,2.04,24.44,2.01,5.53-.02,12.91,3.85,15.38,9.04.86,3.54,1.29,5.32,2.17,8.87,2.52,10.74-3.74,26.28-15.97,27.91-8.87.49-17.72.73-26.63.87-6.42-.01-13.54.9-18,4.8-4.69,4.1-4.83,11.7-4.72,17.96-.06,5.8-.13,11.61-.2,17.43-.02,1.53,1.34,5.36,2.76,5.54,12.69-.43,25.78-2.73,38.13-5.08,4.43-.84,10.32-1.09,14.27,1.29.28,1.53-.53,3.14.63,4.01,2.05,1.53,3.43.59,4.95.27,4.33.67,5.04,6.68,6.21,10.27,2.79,8.52-1.63,17.42-8.87,21.08-3.35,1.69-6.36,2.8-10.34,3.47-5.27.89-7.91,1.26-13.19,1.94-7.02.97-14.08,1.78-21.14,2.49-4.31.44-9.46,1.74-13,3.81-3.14,1.83-2.52,7.04-3.01,9.78Z"/>
      <path d="M1213.21,207.88c5.45-4.06,4.81-11.92,0-16.73-4.53-4.11-12.56-6.02-17.95-5.23-8.37,1.22-15.01,9.72-14.13,18.06.88,8.31,9.28,16.31,18.08,14.72.32-.06.67-.11,1.02-.18,9.38-1.48,9.74-2.23,9.54-3.69-.51-.03-.76-.05-1.27-.08.46-.39.83-.79,1.16-1.21,1.21-1.56,1.77-3.38,3.54-5.65Z"/>
      <path d="M896.33,337.94c-5.83-2.55-12.24-6.13-15.77-11.65-1.61-3.04-2.41-4.55-4.01-7.56-1.93-3.65-2.61-7.53-2.83-10.92-1.35-20.85.68-41.13,4.44-62.14-2.51-2.6-.83-4-.7-6.06.9-14.68,3.18-29.46,4.87-44.02.57-4.88,2.42-11.32,6.02-15.02,2.47-2.54,5.64-2.9,10.15-3.11,6.95-.32,14.59.83,20.4,4.99,7.64,5.47,6.43,13.78,6.97,21.49.78,11.2.74,22.28-.9,33.29-1.68,11.29-3.01,22.37-2.48,34.08.88,10.06,1.75,20.14,2.59,30.24.92,9.95,1.92,19.68-.17,28.75-1.13,4.91-5.46,7.19-11.44,8.22-2.42.42-3.47,1.42-7.45.87-3.89-.54-5.83-.83-9.69-1.45Z"/>
      <path d="M890.98,161.96c-4.49-1.56-5.01-3.36-5.7-5.79-1.39-4.85.51-11.75,5.13-14.44,6.42-3.75,14.89-3.71,22.43-1.93,5.78,1.37,11.94,4.31,14.64,9.48,5.36,10.26-1.72,18.46-10.34,22.13-2.18.93-3.62,1.65-7.14,1.62-6.71-.06-18.06-1.91-20.66-9.19-.18-.13-.39-.22-.57-.28-.98-.75.2-.9.69-.63.25.37.61.48.8.57.33.15,1.21.25,1.42.07.4-.34-.13-1.41-.69-1.6h0Z"/>
      <path d="M1213.21,207.88c-1.78,2.27-2.33,4.09-3.54,5.65.05-1.2.66-2.9,3.54-5.65Z"/>
    </g>
  </g>
</svg>